{
.appVersion = "3227";
.formatVersion = 3;
axes = (
{
name = Weight;
tag = wght;
}
);
classes = (
{
automatic = 1;

glyphs = (
{
color = 6;
glyphname = A;
kernLeft = LAT_A_UC;
kernRight = LAT_A_UC;
lastChange = "2023-11-23 10:10:50 +0000";
layers = (
{
anchors = (
{
name = bottom;
pos = (680,0);
},
{
name = ogonek;
pos = (1310,0);
},
{
name = top;
pos = (680,1474);
}
);
layerId = "AB099EFE-E788-4EFC-8633-CF147CB782A6";
shapes = (
{
closed = 1;
nodes = (
(116,0,l),
(314,496,l),
(326,518,l),
(676,1386,l),
(684,1386,l),
(1034,518,l),
(1046,496,l),
(1244,0,l),
(1310,0,l),
(706,1474,l),
(654,1474,l),
(50,0,l)
);
},
{
closed = 1;
nodes = (
(1074,476,l),
(1074,536,l),
(286,536,l),
(286,476,l)
);
}
);
width = 1360;
},
{
anchors = (
{
name = bottom;
pos = (750,0);
},
{
name = ogonek;
pos = (1516,0);
},
{
name = top;
pos = (750,1474);
}
);
layerId = "2D8F7115-C311-411E-929D-56333CF7FFB2";
shapes = (
{
closed = 1;
nodes = (
(376,0,l),
(512,360,l),
(540,504,l),
(746,1052,l),
(754,1052,l),
(960,504,l),
(988,360,l),
(1124,0,l),
(1516,0,l),
(906,1474,l),
(594,1474,l),
(-16,0,l)
);
},
{
closed = 1;
nodes = (
(1156,270,l),
(1156,570,l),
(344,570,l),
(344,270,l)
);
}
);
width = 1500;
},
{
anchors = (
{
name = bottom;
pos = (700,0);
},
{
name = ogonek;
pos = (1384,0);
},
{
name = top;
pos = (700,1474);
}
);
layerId = "FD1CEFBD-BAB1-4C2A-A598-30E93F9A29F6";
shapes = (
{
closed = 1;
nodes = (
(204,0,l),
(386,440,l),
(410,504,l),
(696,1228,l),
(704,1228,l),
(990,504,l),
(1014,440,l),
(1196,0,l),
(1384,0,l),
(774,1474,l),
(626,1474,l),
(16,0,l)
);
},
{
closed = 1;
nodes = (
(1100,386,l),
(1100,550,l),
(300,550,l),
(300,386,l)
);
}
);
width = 1400;
}
);
unicode = 65;
},
{
color = 6;
glyphname = AE;
kernLeft = LAT_AE_UC;
kernRight = LAT_E_UC;
lastChange = "2023-11-23 10:10:50 +0000";
layers = (
{
anchors = (
{
name = bottom;
pos = (1114,0);
},
{
name = top;
pos = (1150,1474);
}
);
layerId = "AB099EFE-E788-4EFC-8633-CF147CB782A6";
shapes = (
{
closed = 1;
nodes = (
(88,0,l),
(370,496,l),
(872,1390,l),
(926,1390,l),
(914,1474,l),
(858,1474,l),
(20,0,l)
);
},
{
closed = 1;
nodes = (
(976,476,l),
(976,536,l),
(344,536,l),
(344,476,l)
);
},
{
closed = 1;
nodes = (
(1716,0,l),
(1716,60,l),
(1054,60,l),
(932,1414,l),
(1716,1414,l),
(1716,1474,l),
(868,1474,l),
(954,500,l),
(1000,0,l)
);
},
{
closed = 1;
nodes = (
(1618,726,l),
(1618,786,l),
(972,786,l),
(982,726,l)
);
}
);
width = 1856;
},
{
anchors = (
{
name = bottom;
pos = (1118,0);
},
{
name = top;
pos = (1118,1474);
}
);
background = {
shapes = (
{
pos = (-8,0);
ref = A;
slant = (2,0);
}
);
};
layerId = "2D8F7115-C311-411E-929D-56333CF7FFB2";
shapes = (
{
closed = 1;
nodes = (
(368,0,l),
(574,480,l),
(852,1156,l),
(892,1156,l),
(876,1474,l),
(664,1474,l),
(-16,0,l)
);
},
{
closed = 1;
nodes = (
(1098,270,l),
(1098,570,l),
(394,570,l),
(394,270,l)
);
},
{
closed = 1;
nodes = (
(1736,0,l),
(1736,328,l),
(1246,328,l),
(1196,1146,l),
(1736,1146,l),
(1736,1474,l),
(860,1474,l),
(906,450,l),
(930,0,l)
);
},
{
closed = 1;
nodes = (
(1650,586,l),
(1650,902,l),
(1184,902,l),
(1204,586,l)
);
}
);
width = 1818;
},
{
anchors = (
{
name = bottom;
pos = (1118,0);
},
{
name = top;
pos = (1138,1474);
}
);
layerId = "FD1CEFBD-BAB1-4C2A-A598-30E93F9A29F6";
shapes = (
{
closed = 1;
nodes = (
(196,0,l),
(450,492,l),
(872,1302,l),
(914,1302,l),
(902,1474,l),
(786,1474,l),
(8,0,l)
);
},
{
closed = 1;
nodes = (
(1040,386,l),
(1040,550,l),
(364,550,l),
(364,386,l)
);
},
{
closed = 1;
nodes = (
(1724,0,l),
(1724,164,l),
(1126,164,l),
(1036,1310,l),
(1724,1310,l),
(1724,1474,l),
(868,1474,l),
(938,484,l),
(970,0,l)
);
},
{
closed = 1;
nodes = (
(1634,668,l),
(1634,832,l),
(1056,832,l),
(1070,668,l)
);
}
);
width = 1842;
}
);
metricRight = E;
unicode = 198;
},
{
color = 6;
glyphname = B;
kernLeft = LAT_H_UC;
kernRight = LAT_B_UC;
lastChange = "2023-11-23 10:10:50 +0000";
layers = (
{
anchors = (
{
name = bottom;
pos = (592,0);
},
{
name = center;
pos = (244,422);
},
{
name = top;
pos = (586,1474);
}
);
layerId = "AB099EFE-E788-4EFC-8633-CF147CB782A6";
shapes = (
{
closed = 1;
nodes = (
(616,0,ls),
(900,0,o),
(1080,156,o),
(1080,394,cs),
(1080,596,o),
(952,738,o),
(744,774,c),
(744,762,l),
(876,820,o),
(962,944,o),
(962,1098,cs),
(962,1324,o),
(802,1474,o),
(574,1474,cs),
(224,1474,l),
(224,1414,l),
(574,1414,ls),
(762,1414,o),
(898,1290,o),
(898,1098,cs),
(898,914,o),
(760,786,o),
(574,786,cs),
(224,786,l),
(224,726,l),
(616,726,ls),
(864,726,o),
(1016,598,o),
(1016,394,cs),
(1016,188,o),
(864,60,o),
(616,60,cs),
(260,60,l),
(260,0,l)
);
},
{
closed = 1;
nodes = (
(268,0,l),
(268,1474,l),
(204,1474,l),
(204,0,l)
);
}
);
width = 1214;
},
{
anchors = (
{
name = bottom;
pos = (690,0);
},
{
name = center;
pos = (310,462);
},
{
name = top;
pos = (616,1474);
}
);
layerId = "2D8F7115-C311-411E-929D-56333CF7FFB2";
shapes = (
{
closed = 1;
nodes = (
(784,0,ls),
(1068,0,o),
(1276,176,o),
(1276,434,cs),
(1276,676,o),
(1092,778,o),
(900,806,c),
(890,716,l),
(1034,766,o),
(1158,922,o),
(1158,1098,cs),
(1158,1312,o),
(974,1474,o),
(646,1474,cs),
(464,1474,l),
(464,1154,l),
(646,1154,ls),
(740,1154,o),
(804,1114,o),
(804,1020,cs),
(804,942,o),
(756,880,o),
(670,880,cs),
(464,880,l),
(464,610,l),
(748,610,ls),
(842,610,o),
(912,558,o),
(912,472,cs),
(912,378,o),
(846,320,o),
(760,320,cs),
(464,320,l),
(464,0,l)
);
},
{
closed = 1;
nodes = (
(492,0,l),
(492,1474,l),
(124,1474,l),
(124,0,l)
);
}
);
width = 1320;
},
{
anchors = (
{
name = bottom;
pos = (618,0);
},
{
name = center;
pos = (260,426);
},
{
name = top;
pos = (614,1474);
}
);
hints = (
{
horizontal = 1;
origin = (0,22);
settings = {
deltaV = {
"{100, 370, 0, 0, 0, 0}" = {
"12" = -1;
};
};
};
type = TTDelta;
},
{
horizontal = 1;
origin = (0,23);
settings = {
deltaV = {
"{100, 370, 0, 0, 0, 0}" = {
"12" = -1;
};
};
};
type = TTDelta;
},
{
horizontal = 1;
origin = (0,24);
settings = {
deltaV = {
"{100, 370, 0, 0, 0, 0}" = {
"12" = -1;
};
};
};
type = TTDelta;
},
{
horizontal = 1;
origin = (0,25);
settings = {
deltaV = {
"{100, 370, 0, 0, 0, 0}" = {
"12" = -1;
};
};
};
type = TTDelta;
},
{
horizontal = 1;
origin = (0,23,1,1);
settings = {
deltaV = {
"{100, 370, 0, 0, 0, 0}" = {
"12" = -1;
};
};
};
type = TTDelta;
},
{
horizontal = 1;
origin = (0,25,1,1);
settings = {
deltaV = {
"{100, 370, 0, 0, 0, 0}" = {
"12" = -1;
};
};
};
type = TTDelta;
}
);
layerId = "FD1CEFBD-BAB1-4C2A-A598-30E93F9A29F6";
shapes = (
{
closed = 1;
nodes = (
(644,0,ls),
(940,0,o),
(1130,166,o),
(1130,410,cs),
(1130,610,o),
(1004,746,o),
(794,794,c),
(794,750,l),
(922,796,o),
(1024,942,o),
(1024,1102,cs),
(1024,1320,o),
(840,1474,o),
(554,1474,cs),
(308,1474,l),
(308,1310,l),
(562,1310,ls),
(734,1310,o),
(844,1230,o),
(844,1078,cs),
(844,934,o),
(738,830,o),
(574,830,cs),
(308,830,l),
(308,670,l),
(630,670,ls),
(828,670,o),
(950,578,o),
(950,418,cs),
(950,258,o),
(836,164,o),
(656,164,cs),
(332,164,l),
(332,0,l)
);
},
{
closed = 1;
nodes = (
(348,0,l),
(348,1474,l),
(172,1474,l),
(172,0,l)
);
}
);
width = 1238;
}
);
metricLeft = H;
unicode = 66;
},
{
color = 6;
glyphname = C;
kernLeft = LAT_O_UC;
kernRight = LAT_C_UC;
lastChange = "2023-11-23 10:10:50 +0000";
layers = (
{
anchors = (
{
name = base;
pos = (868,0);
},
{
name = bottom;
pos = (828,0);
},
{
name = cedilla;
pos = (828,0);
},
{
name = top;
pos = (828,1474);
}
);
layerId = "AB099EFE-E788-4EFC-8633-CF147CB782A6";
shapes = (
{
closed = 1;
nodes = (
(998,-16,o),
(1178,50,o),
(1290,156,c),
(1262,220,l),
(1190,134,o),
(1014,44,o),
(828,44,cs),
(504,44,o),
(186,320,o),
(186,736,cs),
(186,1148,o),
(500,1430,o),
(838,1430,cs),
(988,1430,o),
(1156,1374,o),
(1258,1272,c),
(1286,1336,l),
(1178,1426,o),
(1010,1490,o),
(838,1490,cs),
(460,1490,o),
(122,1180,o),
(122,738,cs),
(122,322,o),
(432,-16,o),
(826,-16,cs)
);
}
);
width = 1380;
},
{
anchors = (
{
name = base;
pos = (828,0);
},
{
name = bottom;
pos = (816,0);
},
{
name = cedilla;
pos = (840,0);
},
{
name = top;
pos = (806,1474);
}
);
layerId = "2D8F7115-C311-411E-929D-56333CF7FFB2";
shapes = (
{
closed = 1;
nodes = (
(992,-16,o),
(1152,16,o),
(1286,94,c),
(1146,422,l),
(1078,348,o),
(950,320,o),
(852,320,cs),
(604,320,o),
(400,494,o),
(400,740,cs),
(400,988,o),
(606,1154,o),
(840,1154,cs),
(964,1154,o),
(1076,1108,o),
(1142,1044,c),
(1282,1372,l),
(1144,1454,o),
(984,1490,o),
(836,1490,cs),
(392,1490,o),
(32,1170,o),
(32,740,cs),
(32,308,o),
(398,-16,o),
(850,-16,cs)
);
}
);
width = 1328;
},
{
anchors = (
{
name = base;
pos = (852,0);
},
{
name = bottom;
pos = (820,0);
},
{
name = cedilla;
pos = (832,0);
},
{
name = top;
pos = (820,1474);
}
);
layerId = "FD1CEFBD-BAB1-4C2A-A598-30E93F9A29F6";
shapes = (
{
closed = 1;
nodes = (
(1000,-16,o),
(1172,42,o),
(1290,136,c),
(1224,294,l),
(1140,206,o),
(988,148,o),
(840,148,cs),
(528,148,o),
(270,406,o),
(270,742,cs),
(270,1090,o),
(550,1326,o),
(840,1326,cs),
(984,1326,o),
(1130,1278,o),
(1220,1192,c),
(1286,1352,l),
(1168,1438,o),
(1004,1490,o),
(836,1490,cs),
(438,1490,o),
(90,1180,o),
(90,738,cs),
(90,304,o),
(430,-16,o),
(832,-16,cs)
);
}
);
width = 1360;
}
);
metricLeft = O;
unicode = 67;
},
{
color = 6;
glyphname = D;
kernLeft = LAT_H_UC;
kernRight = LAT_O_UC;
lastChange = "2023-11-23 10:10:50 +0000";
layers = (
{
anchors = (
{
name = bottom;
pos = (704,0);
},
{
name = center;
pos = (232,758);
},
{
name = top;
pos = (700,1474);
}
);
layerId = "AB099EFE-E788-4EFC-8633-CF147CB782A6";
shapes = (
{
closed = 1;
nodes = (
(660,0,ls),
(1044,0,o),
(1296,286,o),
(1296,752,cs),
(1296,1178,o),
(1070,1474,o),
(660,1474,cs),
(204,1474,l),
(204,0,l)
);
},
{
closed = 1;
nodes = (
(268,1414,l),
(652,1414,ls),
(990,1414,o),
(1232,1166,o),
(1232,752,cs),
(1232,356,o),
(1020,60,o),
(652,60,cs),
(268,60,l)
);
}
);
width = 1418;
},
{
anchors = (
{
name = bottom;
pos = (682,0);
},
{
name = center;
pos = (322,738);
},
{
name = top;
pos = (686,1474);
}
);
layerId = "2D8F7115-C311-411E-929D-56333CF7FFB2";
shapes = (
{
closed = 1;
nodes = (
(666,0,ls),
(1014,0,o),
(1398,238,o),
(1398,746,cs),
(1398,1250,o),
(1014,1474,o),
(636,1474,cs),
(124,1474,l),
(124,0,l)
);
},
{
closed = 1;
nodes = (
(492,1146,l),
(678,1146,ls),
(802,1146,o),
(1030,1062,o),
(1030,746,cs),
(1030,426,o),
(802,328,o),
(678,328,cs),
(492,328,l)
);
}
);
width = 1430;
},
{
anchors = (
{
name = bottom;
pos = (692,0);
},
{
name = center;
pos = (262,750);
},
{
name = top;
pos = (692,1474);
}
);
layerId = "FD1CEFBD-BAB1-4C2A-A598-30E93F9A29F6";
shapes = (
{
closed = 1;
nodes = (
(660,0,ls),
(1046,0,o),
(1336,288,o),
(1336,750,cs),
(1336,1200,o),
(1046,1474,o),
(648,1474,cs),
(172,1474,l),
(172,0,l)
);
},
{
closed = 1;
nodes = (
(352,1310,l),
(660,1310,ls),
(938,1310,o),
(1156,1102,o),
(1156,750,cs),
(1156,390,o),
(938,164,o),
(660,164,cs),
(352,164,l)
);
}
);
width = 1426;
}
);
metricLeft = H;
metricRight = O;
unicode = 68;
},
{
color = 6;
glyphname = E;
kernLeft = LAT_H_UC;
kernRight = LAT_E_UC;
lastChange = "2023-11-23 10:10:50 +0000";
layers = (
{
anchors = (
{
name = bottom;
pos = (598,0);
},
{
name = cedilla;
pos = (586,0);
},
{
name = ogonek;
pos = (966,0);
},
{
name = top;
pos = (586,1474);
},
{
name = topleft;
pos = (40,1474);
}
);
hints = (
{
horizontal = 1;
options = 4;
origin = (0,11);
target = (0,2);
type = TTStem;
},
{
horizontal = 1;
options = 1;
origin = (0,3);
target = (0,6);
type = TTStem;
},
{
horizontal = 1;
options = 4;
origin = (0,10);
target = (0,7);
type = TTStem;
},
{
horizontal = 1;
options = 1;
origin = (0,4);
type = TTSnap;
},
{
horizontal = 1;
options = 1;
origin = (0,3);
type = TTSnap;
},
{
horizontal = 1;
options = 1;
origin = (0,4);
type = TTSnap;
},
{
horizontal = 1;
options = 1;
origin = (0,5);
type = TTSnap;
},
{
horizontal = 1;
options = 1;
origin = (0,6);
type = TTSnap;
}
);
layerId = "AB099EFE-E788-4EFC-8633-CF147CB782A6";
shapes = (
{
closed = 1;
nodes = (
(966,0,l),
(966,60,l),
(268,60,l),
(268,726,l),
(868,726,l),
(868,786,l),
(268,786,l),
(268,1414,l),
(966,1414,l),
(966,1474,l),
(204,1474,l),
(204,0,l)
);
}
);
width = 1106;
},
{
anchors = (
{
name = bottom;
pos = (580,0);
},
{
name = cedilla;
pos = (576,0);
},
{
name = ogonek;
pos = (1002,0);
},
{
name = top;
pos = (576,1474);
},
{
name = topleft;
pos = (18,1474);
}
);
hints = (
{
horizontal = 1;
options = 4;
origin = (0,11);
target = (0,2);
type = TTStem;
},
{
horizontal = 1;
options = 1;
origin = (0,3);
target = (0,6);
type = TTStem;
},
{
horizontal = 1;
options = 4;
origin = (0,10);
target = (0,7);
type = TTStem;
},
{
horizontal = 1;
options = 1;
origin = (0,4);
type = TTSnap;
},
{
horizontal = 1;
options = 1;
origin = (0,3);
type = TTSnap;
},
{
horizontal = 1;
options = 1;
origin = (0,4);
type = TTSnap;
},
{
horizontal = 1;
options = 1;
origin = (0,5);
type = TTSnap;
},
{
horizontal = 1;
options = 1;
origin = (0,6);
type = TTSnap;
}
);
layerId = "2D8F7115-C311-411E-929D-56333CF7FFB2";
shapes = (
{
closed = 1;
nodes = (
(1002,0,l),
(1002,328,l),
(492,328,l),
(492,586,l),
(912,586,l),
(912,902,l),
(492,902,l),
(492,1146,l),
(1002,1146,l),
(1002,1474,l),
(124,1474,l),
(124,0,l)
);
}
);
width = 1084;
},
{
anchors = (
{
name = bottom;
pos = (590,0);
},
{
name = cedilla;
pos = (578,0);
},
{
name = ogonek;
pos = (980,0);
},
{
name = top;
pos = (578,1474);
},
{
name = topleft;
pos = (28,1474);
}
);
hints = (
{
horizontal = 1;
options = 4;
origin = (0,11);
target = (0,2);
type = TTStem;
},
{
horizontal = 1;
options = 1;
origin = (0,3);
target = (0,6);
type = TTStem;
},
{
horizontal = 1;
options = 4;
origin = (0,10);
target = (0,7);
type = TTStem;
},
{
horizontal = 1;
options = 1;
origin = (0,4);
type = TTSnap;
},
{
horizontal = 1;
options = 1;
origin = (0,3);
type = TTSnap;
},
{
horizontal = 1;
options = 1;
origin = (0,4);
type = TTSnap;
},
{
horizontal = 1;
options = 1;
origin = (0,5);
type = TTSnap;
},
{
horizontal = 1;
options = 1;
origin = (0,6);
type = TTSnap;
}
);
layerId = "FD1CEFBD-BAB1-4C2A-A598-30E93F9A29F6";
shapes = (
{
closed = 1;
nodes = (
(980,0,l),
(980,164,l),
(352,164,l),
(352,668,l),
(880,668,l),
(880,832,l),
(352,832,l),
(352,1310,l),
(980,1310,l),
(980,1474,l),
(172,1474,l),
(172,0,l)
);
}
);
width = 1098;
}
);
metricLeft = H;
unicode = 69;
},
{
color = 6;
glyphname = Schwa;
kernLeft = LAT_SCHWA_UC;
kernRight = LAT_O_UC;
lastChange = "2023-11-23 10:10:50 +0000";
layers = (
{
anchors = (
{
name = bottom;
pos = (758,0);
},
{
name = top;
pos = (758,1474);
}
);
layerId = "AB099EFE-E788-4EFC-8633-CF147CB782A6";
shapes = (
{
closed = 1;
nodes = (
(1124,-16,o),
(1424,308,o),
(1424,738,cs),
(1424,1172,o),
(1136,1490,o),
(724,1490,cs),
(524,1490,o),
(360,1418,o),
(262,1336,c),
(288,1272,l),
(386,1370,o),
(546,1430,o),
(720,1430,cs),
(1092,1430,o),
(1362,1130,o),
(1362,736,cs),
(1362,330,o),
(1078,44,o),
(728,44,cs),
(370,44,o),
(186,340,o),
(186,698,c),
(1400,698,l),
(1400,758,l),
(122,758,l),
(122,704,ls),
(122,270,o),
(356,-16,o),
(728,-16,cs)
);
}
);
width = 1546;
},
{
anchors = (
{
name = bottom;
pos = (746,0);
},
{
name = top;
pos = (754,1474);
}
);
layerId = "2D8F7115-C311-411E-929D-56333CF7FFB2";
shapes = (
{
closed = 1;
nodes = (
(1200,-16,o),
(1524,304,o),
(1524,730,cs),
(1524,1188,o),
(1156,1490,o),
(724,1490,cs),
(574,1490,o),
(414,1454,o),
(274,1372,c),
(414,1044,l),
(480,1106,o),
(590,1156,o),
(720,1156,cs),
(968,1156,o),
(1146,996,o),
(1146,738,cs),
(1146,496,o),
(988,312,o),
(738,312,cs),
(558,312,o),
(414,414,o),
(414,562,c),
(1176,562,l),
(1176,866,l),
(66,866,l),
(66,638,ls),
(66,246,o),
(336,-16,o),
(746,-16,cs)
);
}
);
width = 1556;
},
{
anchors = (
{
name = bottom;
pos = (734,0);
},
{
name = top;
pos = (750,1474);
}
);
layerId = "FD1CEFBD-BAB1-4C2A-A598-30E93F9A29F6";
shapes = (
{
closed = 1;
nodes = (
(1126,-16,o),
(1442,288,o),
(1442,736,cs),
(1442,1136,o),
(1182,1490,o),
(706,1490,cs),
(518,1490,o),
(366,1434,o),
(246,1352,c),
(316,1184,l),
(402,1270,o),
(550,1326,o),
(712,1326,cs),
(1036,1326,o),
(1262,1082,o),
(1262,742,cs),
(1262,390,o),
(1028,148,o),
(726,148,cs),
(434,148,o),
(270,374,o),
(270,638,c),
(1324,638,l),
(1324,802,l),
(90,802,l),
(90,672,ls),
(90,280,o),
(330,-16,o),
(726,-16,cs)
);
}
);
width = 1532;
}
);
metricRight = O;
unicode = 399;
},
{
color = 6;
glyphname = F;
kernLeft = LAT_H_UC;
kernRight = LAT_F_UC;
lastChange = "2023-11-23 10:10:50 +0000";
layers = (
{
anchors = (
{
name = bottom;
pos = (236,0);
},
{
name = center;
pos = (236,376);
},
{
name = top;
pos = (606,1474);
}
);
layerId = "AB099EFE-E788-4EFC-8633-CF147CB782A6";
shapes = (
{
closed = 1;
nodes = (
(268,0,l),
(268,726,l),
(860,726,l),
(860,786,l),
(268,786,l),
(268,1414,l),
(940,1414,l),
(940,1474,l),
(204,1474,l),
(204,0,l)
);
}
);
width = 1022;
},
{
anchors = (
{
name = bottom;
pos = (310,0);
},
{
name = center;
pos = (310,290);
},
{
name = top;
pos = (624,1474);
}
);
layerId = "2D8F7115-C311-411E-929D-56333CF7FFB2";
shapes = (
{
closed = 1;
nodes = (
(492,0,l),
(492,524,l),
(912,524,l),
(912,852,l),
(492,852,l),
(492,1146,l),
(1002,1146,l),
(1002,1474,l),
(124,1474,l),
(124,0,l)
);
}
);
width = 1042;
},
{
anchors = (
{
name = bottom;
pos = (262,0);
},
{
name = center;
pos = (262,344);
},
{
name = top;
pos = (610,1474);
}
);
layerId = "FD1CEFBD-BAB1-4C2A-A598-30E93F9A29F6";
shapes = (
{
closed = 1;
nodes = (
(352,0,l),
(352,646,l),
(876,646,l),
(876,810,l),
(352,810,l),
(352,1310,l),
(962,1310,l),
(962,1474,l),
(172,1474,l),
(172,0,l)
);
}
);
width = 1028;
}
);
metricLeft = H;
unicode = 70;
},
{
color = 6;
glyphname = G;
kernLeft = LAT_O_UC;
kernRight = LAT_G_UC;
lastChange = "2023-11-23 10:10:50 +0000";
layers = (
{
anchors = (
{
name = bottom;
pos = (790,0);
},
{
name = hook;
pos = (1286,1336);
},
{
name = top;
pos = (790,1474);
}
);
layerId = "AB099EFE-E788-4EFC-8633-CF147CB782A6";
shapes = (
{
closed = 1;
nodes = (
(1190,-16,o),
(1424,270,o),
(1424,704,cs),
(1424,758,l),
(770,758,l),
(770,698,l),
(1362,698,l),
(1362,340,o),
(1176,44,o),
(820,44,cs),
(468,44,o),
(186,330,o),
(186,736,cs),
(186,1130,o),
(454,1430,o),
(828,1430,cs),
(994,1430,o),
(1156,1374,o),
(1258,1272,c),
(1286,1336,l),
(1188,1418,o),
(1022,1490,o),
(824,1490,cs),
(410,1490,o),
(122,1172,o),
(122,738,cs),
(122,308,o),
(422,-16,o),
(820,-16,cs)
);
}
);
width = 1546;
},
{
anchors = (
{
name = bottom;
pos = (790,0);
},
{
name = hook;
pos = (1286,1372);
},
{
name = top;
pos = (790,1474);
}
);
layerId = "2D8F7115-C311-411E-929D-56333CF7FFB2";
shapes = (
{
closed = 1;
nodes = (
(1222,-16,o),
(1490,246,o),
(1490,598,cs),
(1490,864,l),
(770,864,l),
(770,562,l),
(1146,562,l),
(1146,414,o),
(1000,312,o),
(818,312,cs),
(576,312,o),
(400,490,o),
(400,738,cs),
(400,1000,o),
(594,1154,o),
(832,1154,cs),
(968,1154,o),
(1078,1106,o),
(1142,1044,c),
(1282,1372,l),
(1144,1454,o),
(984,1490,o),
(832,1490,cs),
(362,1490,o),
(32,1154,o),
(32,728,cs),
(32,306,o),
(356,-16,o),
(812,-16,cs)
);
}
);
width = 1548;
},
{
anchors = (
{
name = bottom;
pos = (798,0);
},
{
name = hook;
pos = (1286,1352);
},
{
name = top;
pos = (782,1474);
}
);
layerId = "FD1CEFBD-BAB1-4C2A-A598-30E93F9A29F6";
shapes = (
{
closed = 1;
nodes = (
(1196,-16,o),
(1442,274,o),
(1442,672,cs),
(1442,802,l),
(762,802,l),
(762,638,l),
(1262,638,l),
(1262,370,o),
(1094,148,o),
(806,148,cs),
(504,148,o),
(270,390,o),
(270,742,cs),
(270,1082,o),
(496,1326,o),
(820,1326,cs),
(984,1326,o),
(1130,1270,o),
(1216,1184,c),
(1286,1352,l),
(1168,1434,o),
(1008,1490,o),
(820,1490,cs),
(390,1490,o),
(90,1172,o),
(90,738,cs),
(90,292,o),
(402,-16,o),
(806,-16,cs)
);
}
);
width = 1532;
}
);
metricLeft = O;
unicode = 71;
},
{
color = 6;
glyphname = H;
kernLeft = LAT_H_UC;
kernRight = LAT_H_UC;
lastChange = "2023-11-23 10:10:50 +0000";
layers = (
{
anchors = (
{
name = bottom;
pos = (712,0);
},
{
name = center;
pos = (712,1086);
},
{
name = top;
pos = (712,1474);
}
);
layerId = "AB099EFE-E788-4EFC-8633-CF147CB782A6";
shapes = (
{
closed = 1;
nodes = (
(268,0,l),
(268,726,l),
(1158,726,l),
(1158,0,l),
(1222,0,l),
(1222,1474,l),
(1158,1474,l),
(1158,786,l),
(268,786,l),
(268,1474,l),
(204,1474,l),
(204,0,l)
);
}
);
width = 1426;
},
{
anchors = (
{
name = bottom;
pos = (764,0);
},
{
name = center;
pos = (764,1184);
},
{
name = top;
pos = (764,1474);
}
);
layerId = "2D8F7115-C311-411E-929D-56333CF7FFB2";
shapes = (
{
closed = 1;
nodes = (
(492,0,l),
(492,578,l),
(1034,578,l),
(1034,0,l),
(1402,0,l),
(1402,1474,l),
(1034,1474,l),
(1034,906,l),
(492,906,l),
(492,1474,l),
(124,1474,l),
(124,0,l)
);
}
);
width = 1526;
},
{
anchors = (
{
name = bottom;
pos = (738,0);
},
{
name = center;
pos = (738,1122);
},
{
name = top;
pos = (738,1474);
}
);
layerId = "FD1CEFBD-BAB1-4C2A-A598-30E93F9A29F6";
shapes = (
{
closed = 1;
nodes = (
(352,0,l),
(352,672,l),
(1114,672,l),
(1114,0,l),
(1294,0,l),
(1294,1474,l),
(1114,1474,l),
(1114,836,l),
(352,836,l),
(352,1474,l),
(172,1474,l),
(172,0,l)
);
}
);
width = 1466;
}
);
unicode = 72;
},
{
color = 6;
glyphname = I;
kernLeft = LAT_H_UC;
kernRight = LAT_H_UC;
lastChange = "2023-11-23 10:10:50 +0000";
layers = (
{
anchors = (
{
name = bottom;
pos = (244,0);
},
{
name = ogonek;
pos = (276,0);
},
{
name = top;
pos = (244,1474);
}
);
layerId = "AB099EFE-E788-4EFC-8633-CF147CB782A6";
shapes = (
{
closed = 1;
nodes = (
(276,0,l),
(276,1474,l),
(212,1474,l),
(212,0,l)
);
}
);
width = 490;
},
{
anchors = (
{
name = bottom;
pos = (332,0);
},
{
name = ogonek;
pos = (516,0);
},
{
name = top;
pos = (332,1474);
}
);
layerId = "2D8F7115-C311-411E-929D-56333CF7FFB2";
shapes = (
{
closed = 1;
nodes = (
(516,0,l),
(516,1474,l),
(148,1474,l),
(148,0,l)
);
}
);
width = 664;
},
{
anchors = (
{
name = bottom;
pos = (278,0);
},
{
name = ogonek;
pos = (368,0);
},
{
name = top;
pos = (278,1474);
}
);
layerId = "FD1CEFBD-BAB1-4C2A-A598-30E93F9A29F6";
shapes = (
{
closed = 1;
nodes = (
(368,0,l),
(368,1474,l),
(188,1474,l),
(188,0,l)
);
}
);
width = 558;
}
);
unicode = 73;
},
{
color = 6;
glyphname = I.ss03;
kernLeft = LAT_ISS03_UC;
kernRight = LAT_ISS03_UC;
lastChange = "2023-11-23 10:10:50 +0000";
layers = (
{
anchors = (
{
name = bottom;
pos = (374,0);
},
{
name = ogonek;
pos = (588,0);
},
{
name = top;
pos = (374,1474);
}
);
layerId = "AB099EFE-E788-4EFC-8633-CF147CB782A6";
shapes = (
{
closed = 1;
nodes = (
(408,0,l),
(408,1474,l),
(344,1474,l),
(344,0,l)
);
},
{
closed = 1;
nodes = (
(588,0,l),
(588,60,l),
(164,60,l),
(164,0,l)
);
},
{
closed = 1;
nodes = (
(588,1416,l),
(588,1474,l),
(164,1474,l),
(164,1416,l)
);
}
);
width = 752;
},
{
anchors = (
{
name = bottom;
pos = (492,0);
},
{
name = ogonek;
pos = (868,0);
},
{
name = top;
pos = (492,1474);
}
);
layerId = "2D8F7115-C311-411E-929D-56333CF7FFB2";
shapes = (
{
closed = 1;
nodes = (
(676,0,l),
(676,1474,l),
(308,1474,l),
(308,0,l)
);
},
{
closed = 1;
nodes = (
(868,0,l),
(868,320,l),
(114,320,l),
(114,0,l)
);
},
{
closed = 1;
nodes = (
(868,1154,l),
(868,1474,l),
(114,1474,l),
(114,1154,l)
);
}
);
width = 984;
},
{
anchors = (
{
name = bottom;
pos = (418,0);
},
{
name = ogonek;
pos = (696,0);
},
{
name = top;
pos = (418,1474);
}
);
layerId = "FD1CEFBD-BAB1-4C2A-A598-30E93F9A29F6";
shapes = (
{
closed = 1;
nodes = (
(508,0,l),
(508,1474,l),
(328,1474,l),
(328,0,l)
);
},
{
closed = 1;
nodes = (
(696,0,l),
(696,160,l),
(140,160,l),
(140,0,l)
);
},
{
closed = 1;
nodes = (
(696,1314,l),
(696,1474,l),
(140,1474,l),
(140,1314,l)
);
}
);
width = 836;
}
);
},
{
color = 6;
glyphname = J;
kernLeft = LAT_J_UC;
kernRight = LAT_U_UC;
lastChange = "2023-11-23 10:10:50 +0000";
layers = (
{
anchors = (
{
name = bottom;
pos = (432,0);
},
{
name = top;
pos = (686,1474);
}
);
layerId = "AB099EFE-E788-4EFC-8633-CF147CB782A6";
shapes = (
{
closed = 1;
nodes = (
(580,-16,o),
(732,124,o),
(732,434,cs),
(732,1474,l),
(668,1474,l),
(668,430,ls),
(668,152,o),
(538,44,o),
(384,44,cs),
(222,44,o),
(114,166,o),
(112,346,c),
(50,346,l),
(54,136,o),
(184,-16,o),
(384,-16,cs)
);
}
);
width = 936;
},
{
anchors = (
{
name = bottom;
pos = (556,0);
},
{
name = top;
pos = (794,1474);
}
);
layerId = "2D8F7115-C311-411E-929D-56333CF7FFB2";
shapes = (
{
closed = 1;
nodes = (
(794,-16,o),
(988,172,o),
(988,466,cs),
(988,1474,l),
(618,1474,l),
(618,462,ls),
(618,374,o),
(566,312,o),
(488,312,cs),
(406,312,o),
(352,382,o),
(352,496,c),
(8,496,l),
(8,184,o),
(196,-16,o),
(496,-16,cs)
);
}
);
width = 1112;
},
{
anchors = (
{
name = bottom;
pos = (458,0);
},
{
name = top;
pos = (730,1474);
}
);
layerId = "FD1CEFBD-BAB1-4C2A-A598-30E93F9A29F6";
shapes = (
{
closed = 1;
nodes = (
(654,-16,o),
(828,138,o),
(828,446,cs),
(828,1474,l),
(648,1474,l),
(648,442,ls),
(648,238,o),
(550,148,o),
(422,148,cs),
(292,148,o),
(214,250,o),
(212,406,c),
(32,406,l),
(38,156,o),
(188,-16,o),
(428,-16,cs)
);
}
);
width = 1000;
}
);
metricRight = H;
unicode = 74;
},
{
color = 6;
glyphname = K;
kernLeft = LAT_H_UC;
kernRight = LAT_K_UC;
lastChange = "2023-11-23 10:10:50 +0000";
layers = (
{
anchors = (
{
name = bottom;
pos = (628,0);
},
{
name = top;
pos = (630,1474);
}
);
layerId = "AB099EFE-E788-4EFC-8633-CF147CB782A6";
shapes = (
{
closed = 1;
nodes = (
(268,0,l),
(268,708,l),
(302,708,l),
(264,734,l),
(1048,0,l),
(1136,0,l),
(324,762,l),
(324,716,l),
(1084,1474,l),
(996,1474,l),
(264,742,l),
(302,766,l),
(268,766,l),
(268,1474,l),
(204,1474,l),
(204,0,l)
);
}
);
width = 1210;
},
{
anchors = (
{
name = bottom;
pos = (722,0);
},
{
name = top;
pos = (686,1474);
}
);
layerId = "2D8F7115-C311-411E-929D-56333CF7FFB2";
shapes = (
{
closed = 1;
nodes = (
(492,0,l),
(492,638,l),
(580,638,l),
(460,692,l),
(976,0,l),
(1416,0,l),
(776,848,l),
(776,648,l),
(1398,1474,l),
(956,1474,l),
(460,774,l),
(580,828,l),
(492,828,l),
(492,1474,l),
(124,1474,l),
(124,0,l)
);
}
);
width = 1406;
},
{
anchors = (
{
name = bottom;
pos = (664,0);
},
{
name = top;
pos = (648,1474);
}
);
layerId = "FD1CEFBD-BAB1-4C2A-A598-30E93F9A29F6";
shapes = (
{
closed = 1;
nodes = (
(352,0,l),
(352,684,l),
(406,684,l),
(328,716,l),
(1008,0,l),
(1246,0,l),
(504,782,l),
(504,692,l),
(1204,1474,l),
(970,1474,l),
(328,754,l),
(406,790,l),
(352,790,l),
(352,1474,l),
(172,1474,l),
(172,0,l)
);
}
);
width = 1286;
}
);
metricLeft = H;
unicode = 75;
},
{
color = 6;
glyphname = L;
kernLeft = LAT_H_UC;
kernRight = LAT_L_UC;
lastChange = "2023-11-23 10:10:50 +0000";
layers = (
{
anchors = (
{
name = bottom;
pos = (598,0);
},
{
name = center;
pos = (236,738);
},
{
name = dot;
pos = (764,738);
},
{
name = top;
pos = (236,1474);
},
{
name = topright;
pos = (770,1474);
}
);
layerId = "AB099EFE-E788-4EFC-8633-CF147CB782A6";
shapes = (
{
closed = 1;
nodes = (
(962,0,l),
(962,60,l),
(268,60,l),
(268,1474,l),
(204,1474,l),
(204,0,l)
);
}
);
width = 1016;
},
{
anchors = (
{
name = bottom;
pos = (572,0);
},
{
name = center;
pos = (306,758);
},
{
name = dot;
pos = (854,754);
},
{
name = top;
pos = (318,1474);
},
{
name = topright;
pos = (628,1474);
}
);
layerId = "2D8F7115-C311-411E-929D-56333CF7FFB2";
shapes = (
{
closed = 1;
nodes = (
(998,0,l),
(998,328,l),
(492,328,l),
(492,1474,l),
(124,1474,l),
(124,0,l)
);
}
);
width = 1006;
},
{
anchors = (
{
name = bottom;
pos = (586,0);
},
{
name = center;
pos = (262,746);
},
{
name = dot;
pos = (794,746);
},
{
name = top;
pos = (262,1474);
},
{
name = topright;
pos = (712,1474);
}
);
layerId = "FD1CEFBD-BAB1-4C2A-A598-30E93F9A29F6";
shapes = (
{
closed = 1;
nodes = (
(974,0,l),
(974,164,l),
(352,164,l),
(352,1474,l),
(172,1474,l),
(172,0,l)
);
}
);
width = 1012;
}
);
metricLeft = H;
unicode = 76;
},
{
color = 6;
glyphname = M;
kernLeft = LAT_H_UC;
kernRight = LAT_H_UC;
lastChange = "2023-11-22 11:34:34 +0000";
layers = (
{
anchors = (
{
name = bottom;
pos = (800,0);
},
{
name = top;
pos = (800,1474);
}
);
layerId = "AB099EFE-E788-4EFC-8633-CF147CB782A6";
shapes = (
{
closed = 1;
nodes = (
(268,0,l),
(268,1076,l),
(268,1352,l),
(276,1352,l),
(780,274,l),
(820,274,l),
(1324,1352,l),
(1332,1352,l),
(1332,1076,l),
(1332,0,l),
(1396,0,l),
(1396,1474,l),
(1314,1474,l),
(806,382,l),
(794,382,l),
(284,1474,l),
(204,1474,l),
(204,0,l)
);
}
);
width = 1600;
},
{
anchors = (
{
name = bottom;
pos = (902,0);
},
{
name = top;
pos = (902,1474);
}
);
layerId = "2D8F7115-C311-411E-929D-56333CF7FFB2";
shapes = (
{
closed = 1;
nodes = (
(492,0,l),
(492,402,l),
(484,816,l),
(492,816,l),
(870,308,l),
(934,308,l),
(1312,816,l),
(1320,816,l),
(1312,402,l),
(1312,0,l),
(1680,0,l),
(1680,1474,l),
(1412,1474,l),
(906,820,l),
(898,820,l),
(392,1474,l),
(124,1474,l),
(124,0,l)
);
}
);
width = 1804;
},
{
anchors = (
{
name = bottom;
pos = (838,0);
},
{
name = top;
pos = (838,1474);
}
);
layerId = "FD1CEFBD-BAB1-4C2A-A598-30E93F9A29F6";
shapes = (
{
closed = 1;
nodes = (
(352,0,l),
(352,798,l),
(348,1092,l),
(356,1092,l),
(806,286,l),
(870,286,l),
(1320,1092,l),
(1328,1092,l),
(1324,798,l),
(1324,0,l),
(1504,0,l),
(1504,1474,l),
(1354,1474,l),
(842,564,l),
(834,564,l),
(322,1474,l),
(172,1474,l),
(172,0,l)
);
}
);
width = 1676;
}
);
metricLeft = H;
metricRight = H;
unicode = 77;
},
{
color = 6;
glyphname = N;
kernLeft = LAT_H_UC;
kernRight = LAT_H_UC;
lastChange = "2023-11-23 10:10:50 +0000";
layers = (
{
anchors = (
{
name = bottom;
pos = (702,0);
},
{
name = leghookright;
pos = (1198,0);
},
{
name = top;
pos = (718,1474);
}
);
layerId = "AB099EFE-E788-4EFC-8633-CF147CB782A6";
shapes = (
{
closed = 1;
nodes = (
(268,0,l),
(268,970,l),
(268,1356,l),
(276,1356,l),
(452,1084,l),
(1168,0,l),
(1230,0,l),
(1230,1474,l),
(1166,1474,l),
(1166,512,l),
(1166,114,l),
(1158,114,l),
(982,388,l),
(266,1474,l),
(204,1474,l),
(204,0,l)
);
}
);
width = 1434;
},
{
anchors = (
{
name = bottom;
pos = (776,0);
},
{
name = leghookright;
pos = (1260,0);
},
{
name = top;
pos = (780,1474);
}
);
layerId = "2D8F7115-C311-411E-929D-56333CF7FFB2";
shapes = (
{
closed = 1;
nodes = (
(492,0,l),
(492,520,l),
(486,848,l),
(494,848,l),
(592,712,l),
(1166,0,l),
(1436,0,l),
(1436,1474,l),
(1068,1474,l),
(1068,954,l),
(1078,648,l),
(1068,648,l),
(970,778,l),
(392,1474,l),
(124,1474,l),
(124,0,l)
);
}
);
width = 1560;
},
{
anchors = (
{
name = bottom;
pos = (742,0);
},
{
name = leghookright;
pos = (1224,0);
},
{
name = top;
pos = (742,1474);
}
);
layerId = "FD1CEFBD-BAB1-4C2A-A598-30E93F9A29F6";
shapes = (
{
closed = 1;
nodes = (
(352,0,l),
(352,782,l),
(348,1138,l),
(356,1138,l),
(500,942,l),
(1180,0,l),
(1310,0,l),
(1310,1474,l),
(1130,1474,l),
(1130,704,l),
(1134,336,l),
(1126,336,l),
(988,536,l),
(304,1474,l),
(172,1474,l),
(172,0,l)
);
}
);
width = 1482;
}
);
metricLeft = H;
metricRight = H;
unicode = 78;
},
{
color = 6;
glyphname = O;
kernLeft = LAT_O_UC;
kernRight = LAT_O_UC;
lastChange = "2023-11-23 10:10:50 +0000";
layers = (
{
anchors = (
{
name = bottom;
pos = (820,0);
},
{
name = center;
pos = (824,738);
},
{
name = horn;
pos = (1146,1410);
},
{
name = ogonek;
pos = (954,0);
},
{
name = top;
pos = (820,1474);
},
{
name = topleft;
pos = (78,1474);
},
{
name = topright;
pos = (1568,1474);
}
);
layerId = "AB099EFE-E788-4EFC-8633-CF147CB782A6";
shapes = (
{
closed = 1;
nodes = (
(1220,-16,o),
(1524,308,o),
(1524,738,cs),
(1524,1168,o),
(1220,1490,o),
(820,1490,cs),
(426,1490,o),
(122,1168,o),
(122,738,cs),
(122,308,o),
(426,-16,o),
(820,-16,cs)
);
},
{
closed = 1;
nodes = (
(466,44,o),
(186,336,o),
(186,738,cs),
(186,1136,o),
(466,1430,o),
(820,1430,cs),
(1180,1430,o),
(1460,1136,o),
(1460,738,cs),
(1460,336,o),
(1180,44,o),
(820,44,cs)
);
}
);
width = 1646;
},
{
anchors = (
{
name = bottom;
pos = (802,0);
},
{
name = center;
pos = (802,738);
},
{
name = horn;
pos = (1118,1426);
},
{
name = ogonek;
pos = (958,0);
},
{
name = top;
pos = (802,1474);
},
{
name = topleft;
pos = (-12,1474);
},
{
name = topright;
pos = (1618,1474);
}
);
layerId = "2D8F7115-C311-411E-929D-56333CF7FFB2";
shapes = (
{
closed = 1;
nodes = (
(1236,-16,o),
(1572,318,o),
(1572,738,cs),
(1572,1158,o),
(1236,1490,o),
(804,1490,cs),
(378,1490,o),
(32,1158,o),
(32,738,cs),
(32,318,o),
(378,-16,o),
(804,-16,cs)
);
},
{
closed = 1;
nodes = (
(578,320,o),
(400,506,o),
(400,738,cs),
(400,972,o),
(578,1154,o),
(802,1154,cs),
(1026,1154,o),
(1204,972,o),
(1204,738,cs),
(1204,506,o),
(1026,320,o),
(802,320,cs)
);
}
);
width = 1604;
},
{
anchors = (
{
name = bottom;
pos = (812,0);
},
{
name = center;
pos = (816,738);
},
{
name = horn;
pos = (1126,1422);
},
{
name = ogonek;
pos = (950,0);
},
{
name = top;
pos = (812,1474);
},
{
name = topleft;
pos = (46,1470);
},
{
name = topright;
pos = (1576,1470);
}
);
layerId = "FD1CEFBD-BAB1-4C2A-A598-30E93F9A29F6";
shapes = (
{
closed = 1;
nodes = (
(1228,-16,o),
(1540,304,o),
(1540,736,cs),
(1540,1168,o),
(1230,1490,o),
(812,1490,cs),
(398,1490,o),
(90,1168,o),
(90,738,cs),
(90,304,o),
(402,-16,o),
(816,-16,cs)
);
},
{
closed = 1;
nodes = (
(500,148,o),
(270,398,o),
(270,738,cs),
(270,1082,o),
(508,1326,o),
(812,1326,cs),
(1122,1326,o),
(1360,1082,o),
(1360,738,cs),
(1360,402,o),
(1130,148,o),
(812,148,cs)
);
}
);
width = 1630;
}
);
unicode = 79;
},
{
color = 6;
glyphname = OE;
kernLeft = LAT_O_UC;
kernRight = LAT_E_UC;
lastChange = "2023-11-23 10:10:50 +0000";
layers = (
{
anchors = (
{
name = bottom;
pos = (1192,0);
},
{
name = top;
pos = (1192,1474);
}
);
layerId = "AB099EFE-E788-4EFC-8633-CF147CB782A6";
shapes = (
{
closed = 1;
nodes = (
(1102,-16,o),
(1348,160,o),
(1434,456,c),
(1406,456,l),
(1406,0,l),
(2166,0,l),
(2166,60,l),
(1470,60,l),
(1470,726,l),
(2068,726,l),
(2068,786,l),
(1470,786,l),
(1470,1414,l),
(2166,1414,l),
(2166,1474,l),
(1406,1474,l),
(1406,1018,l),
(1434,1018,l),
(1348,1316,o),
(1100,1490,o),
(812,1490,cs),
(422,1490,o),
(122,1172,o),
(122,738,cs),
(122,308,o),
(422,-16,o),
(812,-16,cs)
);
},
{
closed = 1;
nodes = (
(458,44,o),
(186,340,o),
(186,740,cs),
(186,1134,o),
(452,1430,o),
(816,1430,cs),
(1178,1430,o),
(1414,1138,o),
(1414,742,cs),
(1414,336,o),
(1168,44,o),
(816,44,cs)
);
}
);
width = 2306;
},
{
anchors = (
{
name = bottom;
pos = (1052,0);
},
{
name = top;
pos = (1052,1474);
}
);
layerId = "2D8F7115-C311-411E-929D-56333CF7FFB2";
shapes = (
{
closed = 1;
nodes = (
(1018,-16,o),
(1192,102,o),
(1294,308,c),
(1160,308,l),
(1160,0,l),
(1990,0,l),
(1990,328,l),
(1486,328,l),
(1486,586,l),
(1904,586,l),
(1904,902,l),
(1486,902,l),
(1486,1146,l),
(1990,1146,l),
(1990,1474,l),
(1160,1474,l),
(1160,1168,l),
(1294,1168,l),
(1196,1374,o),
(1042,1490,o),
(790,1490,cs),
(374,1490,o),
(32,1176,o),
(32,740,cs),
(32,300,o),
(380,-16,o),
(776,-16,cs)
);
},
{
closed = 1;
nodes = (
(572,308,o),
(400,486,o),
(400,738,cs),
(400,992,o),
(574,1166,o),
(798,1166,cs),
(1022,1166,o),
(1192,994,o),
(1192,738,cs),
(1192,484,o),
(1024,308,o),
(798,308,cs)
);
}
);
width = 2072;
},
{
anchors = (
{
name = bottom;
pos = (1142,0);
},
{
name = top;
pos = (1142,1474);
}
);
layerId = "FD1CEFBD-BAB1-4C2A-A598-30E93F9A29F6";
shapes = (
{
closed = 1;
nodes = (
(1074,-16,o),
(1290,140,o),
(1384,402,c),
(1314,402,l),
(1314,0,l),
(2102,0,l),
(2102,164,l),
(1478,164,l),
(1478,668,l),
(2008,668,l),
(2008,832,l),
(1478,832,l),
(1478,1310,l),
(2102,1310,l),
(2102,1474,l),
(1314,1474,l),
(1314,1078,l),
(1384,1078,l),
(1290,1340,o),
(1086,1490,o),
(798,1490,cs),
(410,1490,o),
(90,1176,o),
(90,738,cs),
(90,304,o),
(410,-16,o),
(798,-16,cs)
);
},
{
closed = 1;
nodes = (
(504,144,o),
(270,394,o),
(270,738,cs),
(270,1086,o),
(504,1330,o),
(812,1330,cs),
(1122,1330,o),
(1332,1086,o),
(1332,738,cs),
(1332,394,o),
(1122,144,o),
(812,144,cs)
);
}
);
width = 2220;
}
);
metricLeft = O;
metricRight = E;
unicode = 338;
},
{
color = 6;
glyphname = P;
kernLeft = LAT_H_UC;
kernRight = LAT_P_UC;
lastChange = "2023-11-23 10:10:50 +0000";
layers = (
{
anchors = (
{
name = bottom;
pos = (236,0);
},
{
name = top;
pos = (634,1474);
}
);
layerId = "AB099EFE-E788-4EFC-8633-CF147CB782A6";
shapes = (
{
closed = 1;
nodes = (
(580,666,ls),
(834,666,o),
(998,854,o),
(998,1078,cs),
(998,1320,o),
(814,1474,o),
(568,1474,cs),
(236,1474,l),
(236,1414,l),
(560,1414,ls),
(782,1414,o),
(934,1286,o),
(934,1078,cs),
(934,868,o),
(784,726,o),
(568,726,cs),
(236,726,l),
(236,666,l)
);
},
{
closed = 1;
nodes = (
(268,0,l),
(268,1474,l),
(204,1474,l),
(204,0,l)
);
}
);
width = 1108;
},
{
anchors = (
{
name = bottom;
pos = (310,0);
},
{
name = top;
pos = (666,1474);
}
);
layerId = "2D8F7115-C311-411E-929D-56333CF7FFB2";
shapes = (
{
closed = 1;
nodes = (
(656,450,ls),
(984,450,o),
(1208,660,o),
(1208,974,cs),
(1208,1278,o),
(1000,1474,o),
(648,1474,cs),
(422,1474,l),
(422,1146,l),
(626,1146,ls),
(762,1146,o),
(848,1074,o),
(848,962,cs),
(848,856,o),
(766,774,o),
(638,774,cs),
(422,774,l),
(422,450,l)
);
},
{
closed = 1;
nodes = (
(492,0,l),
(492,1474,l),
(124,1474,l),
(124,0,l)
);
}
);
width = 1240;
},
{
anchors = (
{
name = bottom;
pos = (262,0);
},
{
name = top;
pos = (644,1474);
}
);
layerId = "FD1CEFBD-BAB1-4C2A-A598-30E93F9A29F6";
shapes = (
{
closed = 1;
nodes = (
(606,586,ls),
(890,586,o),
(1070,778,o),
(1070,1040,cs),
(1070,1304,o),
(882,1474,o),
(594,1474,cs),
(304,1474,l),
(304,1310,l),
(582,1310,ls),
(770,1310,o),
(890,1208,o),
(890,1036,cs),
(890,864,o),
(774,750,o),
(594,750,cs),
(304,750,l),
(304,586,l)
);
},
{
closed = 1;
nodes = (
(352,0,l),
(352,1474,l),
(172,1474,l),
(172,0,l)
);
}
);
width = 1160;
}
);
metricLeft = H;
unicode = 80;
},
{
color = 6;
glyphname = Thorn;
kernLeft = LAT_H_UC;
kernRight = LAT_THORN_UC;
lastChange = "2023-11-23 10:09:18 +0000";
layers = (
{
layerId = "AB099EFE-E788-4EFC-8633-CF147CB782A6";
shapes = (
{
closed = 1;
nodes = (
(648,328,ls),
(892,328,o),
(1054,500,o),
(1054,742,cs),
(1054,984,o),
(892,1138,o),
(648,1138,cs),
(248,1138,l),
(248,1078,l),
(656,1078,ls),
(856,1078,o),
(990,950,o),
(990,742,cs),
(990,532,o),
(856,388,o),
(656,388,cs),
(248,388,l),
(248,328,l)
);
},
{
closed = 1;
nodes = (
(268,0,l),
(268,1474,l),
(204,1474,l),
(204,0,l)
);
}
);
width = 1162;
},
{
layerId = "2D8F7115-C311-411E-929D-56333CF7FFB2";
shapes = (
{
closed = 1;
nodes = (
(668,230,ls),
(988,230,o),
(1200,442,o),
(1200,752,cs),
(1200,1060,o),
(990,1250,o),
(660,1250,cs),
(414,1250,l),
(414,930,l),
(638,930,ls),
(766,930,o),
(848,856,o),
(848,742,cs),
(848,632,o),
(770,550,o),
(652,550,cs),
(414,550,l),
(414,230,l)
);
},
{
closed = 1;
nodes = (
(492,0,l),
(492,1474,l),
(124,1474,l),
(124,0,l)
);
}
);
width = 1248;
},
{
layerId = "FD1CEFBD-BAB1-4C2A-A598-30E93F9A29F6";
shapes = (
{
closed = 1;
nodes = (
(656,290,ls),
(934,290,o),
(1118,480,o),
(1118,746,cs),
(1118,1016,o),
(930,1180,o),
(652,1180,cs),
(304,1180,l),
(304,1016,l),
(652,1016,ls),
(832,1016,o),
(938,918,o),
(938,742,cs),
(938,570,o),
(832,454,o),
(656,454,cs),
(304,454,l),
(304,290,l)
);
},
{
closed = 1;
nodes = (
(352,0,l),
(352,1474,l),
(172,1474,l),
(172,0,l)
);
}
);
width = 1208;
}
);
metricLeft = H;
unicode = 222;
},
{
color = 3;
glyphname = Q;
kernLeft = LAT_O_UC;
kernRight = LAT_Q_UC;
lastChange = "2023-11-23 10:10:50 +0000";
layers = (
{
anchors = (
{
name = bottom;
pos = (824,0);
},
{
name = top;
pos = (816,1474);
}
);
layerId = "AB099EFE-E788-4EFC-8633-CF147CB782A6";
shapes = (
{
closed = 1;
nodes = (
(1382,0,l),
(1260,170,l),
(1248,186,l),
(992,548,l),
(920,548,l),
(1202,150,l),
(1212,136,l),
(1310,0,l)
);
},
{
ref = O;
}
);
width = 1656;
},
{
anchors = (
{
name = bottom;
pos = (798,0);
},
{
name = top;
pos = (798,1474);
}
);
layerId = "2D8F7115-C311-411E-929D-56333CF7FFB2";
shapes = (
{
closed = 1;
nodes = (
(1642,0,l),
(1392,300,l),
(1192,450,l),
(1032,630,l),
(634,630,l),
(938,320,l),
(1110,200,l),
(1274,0,l)
);
},
{
ref = O;
}
);
width = 1692;
},
{
anchors = (
{
name = bottom;
pos = (816,0);
},
{
name = top;
pos = (816,1474);
}
);
layerId = "FD1CEFBD-BAB1-4C2A-A598-30E93F9A29F6";
shapes = (
{
closed = 1;
nodes = (
(1486,0,l),
(1318,226,l),
(1254,294,l),
(1032,598,l),
(840,598,l),
(1122,218,l),
(1180,160,l),
(1294,0,l)
);
},
{
alignment = -1;
ref = O;
}
);
width = 1654;
}
);
metricLeft = O;
unicode = 81;
},
{
color = 6;
glyphname = R;
kernLeft = LAT_H_UC;
kernRight = LAT_R_UC;
lastChange = "2023-11-23 10:10:50 +0000";
layers = (
{
anchors = (
{
name = bottom;
pos = (644,0);
},
{
name = top;
pos = (572,1474);
}
);
layerId = "AB099EFE-E788-4EFC-8633-CF147CB782A6";
shapes = (
{
closed = 1;
nodes = (
(582,666,ls),
(834,666,o),
(998,854,o),
(998,1078,cs),
(998,1320,o),
(814,1474,o),
(568,1474,cs),
(236,1474,l),
(236,1414,l),
(560,1414,ls),
(782,1414,o),
(934,1286,o),
(934,1078,cs),
(934,868,o),
(784,726,o),
(568,726,cs),
(236,726,l),
(236,666,l)
);
},
{
closed = 1;
nodes = (
(268,0,l),
(268,1474,l),
(204,1474,l),
(204,0,l)
);
},
{
closed = 1;
nodes = (
(1096,0,l),
(616,716,l),
(574,672,l),
(1024,0,l)
);
}
);
width = 1196;
},
{
anchors = (
{
name = bottom;
pos = (694,0);
},
{
name = top;
pos = (632,1474);
}
);
layerId = "2D8F7115-C311-411E-929D-56333CF7FFB2";
shapes = (
{
closed = 1;
nodes = (
(584,484,ls),
(974,484,o),
(1206,714,o),
(1206,1012,cs),
(1206,1312,o),
(978,1474,o),
(682,1474,cs),
(388,1474,l),
(388,1146,l),
(624,1146,ls),
(756,1146,o),
(846,1074,o),
(846,962,cs),
(846,856,o),
(760,782,o),
(636,782,cs),
(388,782,l),
(388,484,l)
);
},
{
closed = 1;
nodes = (
(492,0,l),
(492,1474,l),
(124,1474,l),
(124,0,l)
);
},
{
closed = 1;
nodes = (
(1342,0,l),
(904,754,l),
(632,536,l),
(928,0,l)
);
}
);
width = 1378;
},
{
anchors = (
{
name = bottom;
pos = (660,0);
},
{
name = top;
pos = (602,1474);
}
);
hints = (
{
horizontal = 1;
origin = (0,0);
settings = {
deltaV = {
"{100, 88, 0, 0, 0, 0}" = {
"12" = 3;
};
};
};
type = TTDelta;
},
{
horizontal = 1;
origin = (0,17);
settings = {
deltaV = {
"{100, 88, 0, 0, 0, 0}" = {
"12" = 3;
};
};
};
type = TTDelta;
},
{
horizontal = 1;
origin = (0,16);
settings = {
deltaV = {
"{100, 88, 0, 0, 0, 0}" = {
"12" = 3;
};
};
};
type = TTDelta;
},
{
horizontal = 1;
origin = (0,15);
settings = {
deltaV = {
"{100, 88, 0, 0, 0, 0}" = {
"12" = 3;
};
};
};
type = TTDelta;
},
{
horizontal = 1;
origin = (1,0);
settings = {
deltaV = {
"{100, 88, 0, 0, 0, 0}" = {
"12" = 3;
};
};
};
type = TTDelta;
},
{
horizontal = 1;
origin = (0,10,1,0);
settings = {
deltaV = {
"{100, 88, 0, 0, 0, 0}" = {
"12" = 3;
};
};
};
type = TTDelta;
},
{
horizontal = 1;
origin = (0,13,2,1);
settings = {
deltaV = {
"{100, 88, 0, 0, 0, 0}" = {
"12" = 3;
};
};
};
type = TTDelta;
},
{
horizontal = 1;
origin = (0,13,2,3);
settings = {
deltaV = {
"{100, 88, 0, 0, 0, 0}" = {
"12" = 3;
};
};
};
type = TTDelta;
}
);
layerId = "FD1CEFBD-BAB1-4C2A-A598-30E93F9A29F6";
shapes = (
{
closed = 1;
nodes = (
(582,598,ls),
(886,598,o),
(1074,800,o),
(1074,1052,cs),
(1074,1316,o),
(874,1474,o),
(610,1474,cs),
(290,1474,l),
(290,1310,l),
(582,1310,ls),
(770,1310,o),
(894,1208,o),
(894,1036,cs),
(894,864,o),
(774,754,o),
(594,754,cs),
(290,754,l),
(290,598,l)
);
},
{
closed = 1;
nodes = (
(352,0,l),
(352,1474,l),
(172,1474,l),
(172,0,l)
);
},
{
closed = 1;
nodes = (
(1188,0,l),
(726,734,l),
(586,626,l),
(980,0,l)
);
}
);
width = 1264;
}
);
metricLeft = H;
unicode = 82;
},
{
color = 6;
glyphname = S;
kernLeft = LAT_S_UC;
kernRight = LAT_S_UC;
lastChange = "2023-11-23 10:10:50 +0000";
layers = (
{
anchors = (
{
name = bottom;
pos = (551,0);
},
{
name = cedilla;
pos = (539,0);
},
{
name = top;
pos = (545,1474);
}
);
layerId = "AB099EFE-E788-4EFC-8633-CF147CB782A6";
shapes = (
{
closed = 1;
nodes = (
(747,-16,o),
(958,123,o),
(958,373,cs),
(958,676,o),
(646,759,o),
(511,811,cs),
(381,861,o),
(224,951,o),
(224,1150,cs),
(224,1323,o),
(353,1427,o),
(526,1427,cs),
(694,1427,o),
(802,1332,o),
(854,1241,c),
(905,1261,l),
(851,1372,o),
(728,1490,o),
(525,1490,cs),
(304,1490,o),
(163,1353,o),
(163,1154,cs),
(163,925,o),
(346,803,o),
(541,731,cs),
(629,698,o),
(896,612,o),
(896,364,cs),
(896,172,o),
(735,44,o),
(553,44,cs),
(378,44,o),
(235,157,o),
(182,315,c),
(123,291,l),
(180,143,o),
(333,-16,o),
(549,-16,cs)
);
}
);
userData = {
RMXScaler = {
height = 139;
width = 140;
};
};
width = 1088;
},
{
anchors = (
{
name = bottom;
pos = (634,0);
},
{
name = cedilla;
pos = (660,0);
},
{
name = top;
pos = (602,1474);
}
);
layerId = "2D8F7115-C311-411E-929D-56333CF7FFB2";
shapes = (
{
closed = 1;
nodes = (
(922,-16,o),
(1140,198,o),
(1138,454,cs),
(1136,730,o),
(886,828,o),
(772,860,cs),
(696,882,o),
(470,934,o),
(470,1054,cs),
(470,1116,o),
(530,1164,o),
(600,1164,cs),
(684,1164,o),
(746,1094,o),
(766,1036,c),
(1106,1176,l),
(1034,1356,o),
(860,1490,o),
(598,1490,cs),
(294,1490,o),
(102,1312,o),
(102,1062,cs),
(102,812,o),
(292,688,o),
(488,626,cs),
(592,592,o),
(770,558,o),
(770,444,cs),
(770,376,o),
(704,320,o),
(622,320,cs),
(512,320,o),
(434,414,o),
(402,504,c),
(50,356,l),
(116,148,o),
(360,-16,o),
(618,-16,cs)
);
}
);
userData = {
RMXScaler = {
height = 137;
weight = 160;
width = 140;
};
};
width = 1204;
},
{
anchors = (
{
name = bottom;
pos = (578,0);
},
{
name = cedilla;
pos = (582,0);
},
{
name = top;
pos = (570,1474);
}
);
background = {
shapes = (
{
closed = 1;
nodes = (
(836,-16,o),
(1026,146,o),
(1026,402,cs),
(1026,894,o),
(324,764,o),
(324,1104,cs),
(324,1236,o),
(428,1326,o),
(560,1326,cs),
(662,1326,o),
(762,1264,o),
(818,1158,c),
(982,1228,l),
(918,1380,o),
(754,1490,o),
(560,1490,cs),
(320,1490,o),
(144,1330,o),
(144,1098,cs),
(144,632,o),
(846,760,o),
(846,390,cs),
(846,238,o),
(730,148,o),
(586,148,cs),
(450,148,o),
(330,242,o),
(278,390,c),
(110,320,l),
(176,122,o),
(362,-16,o),
(584,-16,cs)
);
}
);
};
layerId = "FD1CEFBD-BAB1-4C2A-A598-30E93F9A29F6";
shapes = (
{
closed = 1;
nodes = (
(816,-16,o),
(1028,150,o),
(1028,402,cs),
(1028,700,o),
(730,792,o),
(606,836,cs),
(494,876,o),
(324,946,o),
(324,1116,cs),
(324,1254,o),
(434,1326,o),
(558,1326,cs),
(696,1326,o),
(786,1234,o),
(824,1164,c),
(984,1228,l),
(922,1364,o),
(782,1490,o),
(556,1490,cs),
(312,1490,o),
(148,1344,o),
(148,1120,cs),
(148,884,o),
(330,760,o),
(524,692,cs),
(614,660,o),
(852,592,o),
(852,394,cs),
(852,250,o),
(724,148,o),
(580,148,cs),
(426,148,o),
(312,262,o),
(270,390,c),
(102,320,l),
(160,148,o),
(348,-16,o),
(582,-16,cs)
);
}
);
userData = {
RMXScaler = {
height = 139;
width = 140;
};
};
width = 1138;
},
{
anchors = (
{
name = bottom;
pos = (578,0);
},
{
name = cedilla;
pos = (573,0);
},
{
name = top;
pos = (562,1474);
}
);
associatedMasterId = "AB099EFE-E788-4EFC-8633-CF147CB782A6";
attr = {
coordinates = (
68
);
};
layerId = "B8550AE7-245E-4372-8DA6-549E486BC192";
name = "{68}";
shapes = (
{
closed = 1;
nodes = (
(802,-16,o),
(1009,142,o),
(1009,389,cs),
(1009,686,o),
(709,776,o),
(582,822,cs),
(463,867,o),
(290,945,o),
(290,1126,cs),
(290,1273,o),
(403,1363,o),
(550,1363,cs),
(703,1363,o),
(797,1265,o),
(837,1189,c),
(960,1239,l),
(902,1364,o),
(768,1490,o),
(549,1490,cs),
(313,1490,o),
(154,1345,o),
(154,1127,cs),
(154,896,o),
(331,781,o),
(535,706,cs),
(642,666,o),
(873,593,o),
(873,384,cs),
(873,221,o),
(733,111,o),
(574,111,cs),
(416,111,o),
(288,218,o),
(240,354,c),
(109,299,l),
(169,141,o),
(339,-16,o),
(571,-16,cs)
);
}
);
width = 1130;
},
{
anchors = (
{
name = bottom;
pos = (612,0);
},
{
name = cedilla;
pos = (628,0);
},
{
name = top;
pos = (594,1474);
}
);
associatedMasterId = "FD1CEFBD-BAB1-4C2A-A598-30E93F9A29F6";
attr = {
coordinates = (
140
);
};
background = {
shapes = (
{
closed = 1;
nodes = (
(836,-16,o),
(1026,146,o),
(1026,402,cs),
(1026,894,o),
(324,764,o),
(324,1104,cs),
(324,1236,o),
(428,1326,o),
(560,1326,cs),
(662,1326,o),
(762,1264,o),
(818,1158,c),
(982,1228,l),
(918,1380,o),
(754,1490,o),
(560,1490,cs),
(320,1490,o),
(144,1330,o),
(144,1098,cs),
(144,632,o),
(846,760,o),
(846,390,cs),
(846,238,o),
(730,148,o),
(586,148,cs),
(450,148,o),
(330,242,o),
(278,390,c),
(110,320,l),
(176,122,o),
(362,-16,o),
(584,-16,cs)
);
}
);
};
layerId = "080ADB30-137F-4FB8-B806-FF68806DF3AA";
name = "22. Nov 23 at 12:02";
shapes = (
{
closed = 1;
nodes = (
(890,-16,o),
(1099,177,o),
(1099,426,cs),
(1099,717,o),
(816,819,o),
(704,855,cs),
(608,886,o),
(418,939,o),
(418,1083,cs),
(418,1184,o),
(507,1233,o),
(591,1233,cs),
(705,1233,o),
(776,1139,o),
(798,1090,c),
(1061,1196,l),
(993,1354,o),
(837,1490,o),
(589,1490,cs),
(323,1490,o),
(135,1333,o),
(135,1084,cs),
(135,843,o),
(311,725,o),
(513,656,cs),
(622,618,o),
(816,567,o),
(816,422,cs),
(816,321,o),
(719,245,o),
(609,245,cs),
(478,245,o),
(387,353,o),
(353,451,c),
(82,337,l),
(143,148,o),
(359,-16,o),
(614,-16,cs)
);
}
);
userData = {
RMXScaler = {
height = 139;
width = 140;
};
};
width = 1194;
}
);
unicode = 83;
userData = {
RMXScaler = {
source = s;
};
};
},
{
color = 6;
glyphname = Germandbls;
kernLeft = LAT_GERMANDBLS_UC;
kernRight = LAT_GERMANDBLS_UC;
lastChange = "2023-11-23 10:10:50 +0000";
layers = (
{
layerId = "AB099EFE-E788-4EFC-8633-CF147CB782A6";
shapes = (
{
closed = 1;
nodes = (
(974,-16,o),
(1182,190,o),
(1182,458,cs),
(1182,712,o),
(994,906,o),
(672,892,c),
(704,860,l),
(946,1414,l),
(946,1430,l),
(830,1476,o),
(696,1490,o),
(598,1490,cs),
(184,1490,o),
(188,1242,o),
(188,1126,cs),
(188,0,l),
(252,0,l),
(252,1132,ls),
(252,1230,o),
(250,1430,o),
(580,1430,cs),
(686,1430,o),
(822,1412,o),
(888,1386,c),
(884,1420,l),
(642,864,l),
(642,836,l),
(682,836,ls),
(956,836,o),
(1118,688,o),
(1118,460,cs),
(1118,208,o),
(920,44,o),
(702,44,cs),
(636,44,o),
(556,60,o),
(502,80,c),
(502,16,l),
(548,-4,o),
(628,-16,o),
(694,-16,cs)
);
}
);
width = 1316;
},
{
layerId = "2D8F7115-C311-411E-929D-56333CF7FFB2";
shapes = (
{
closed = 1;
nodes = (
(1188,-16,o),
(1410,180,o),
(1410,480,cs),
(1410,714,o),
(1278,902,o),
(1032,934,c),
(1044,766,l),
(1290,1340,l),
(1290,1376,l),
(1180,1438,o),
(942,1490,o),
(734,1490,cs),
(366,1490,o),
(114,1324,o),
(114,1020,cs),
(114,0,l),
(482,0,l),
(482,974,ls),
(482,1036,o),
(508,1170,o),
(750,1170,cs),
(840,1170,o),
(902,1152,o),
(918,1126,c),
(898,1216,l),
(720,738,l),
(720,676,l),
(828,676,ls),
(984,676,o),
(1052,586,o),
(1050,484,cs),
(1048,370,o),
(968,312,o),
(818,312,cs),
(790,312,o),
(768,314,o),
(700,324,c),
(700,-12,l),
(746,-12,o),
(780,-16,o),
(832,-16,cs)
);
}
);
width = 1454;
},
{
layerId = "FD1CEFBD-BAB1-4C2A-A598-30E93F9A29F6";
shapes = (
{
closed = 1;
nodes = (
(1050,-16,o),
(1270,176,o),
(1270,466,cs),
(1270,714,o),
(1106,902,o),
(812,910,c),
(844,828,l),
(1086,1384,l),
(1086,1410,l),
(964,1462,o),
(792,1490,o),
(648,1490,cs),
(336,1490,o),
(164,1352,o),
(164,1086,cs),
(164,0,l),
(344,0,l),
(344,1074,ls),
(344,1238,o),
(446,1326,o),
(656,1326,cs),
(758,1326,o),
(864,1304,o),
(902,1282,c),
(890,1344,l),
(674,820,l),
(674,774,l),
(742,774,ls),
(964,774,o),
(1090,656,o),
(1090,472,cs),
(1090,284,o),
(954,148,o),
(750,148,cs),
(714,148,o),
(668,152,o),
(582,176,c),
(582,8,l),
(624,-8,o),
(692,-16,o),
(754,-16,cs)
);
}
);
width = 1378;
}
);
metricRight = B;
unicode = 7838;
},
{
color = 6;
glyphname = T;
kernLeft = LAT_T_UC;
kernRight = LAT_T_UC;
lastChange = "2023-11-23 10:10:50 +0000";
layers = (
{
anchors = (
{
name = bottom;
pos = (526,0);
},
{
name = cedilla;
pos = (526,0);
},
{
name = center;
pos = (526,738);
},
{
name = top;
pos = (526,1474);
}
);
layerId = "AB099EFE-E788-4EFC-8633-CF147CB782A6";
shapes = (
{
closed = 1;
nodes = (
(558,0,l),
(558,1432,l),
(494,1432,l),
(494,0,l)
);
},
{
closed = 1;
nodes = (
(976,1414,l),
(976,1474,l),
(74,1474,l),
(74,1414,l)
);
}
);
width = 1050;
},
{
anchors = (
{
name = bottom;
pos = (564,0);
},
{
name = cedilla;
pos = (564,0);
},
{
name = center;
pos = (564,672);
},
{
name = top;
pos = (564,1474);
}
);
layerId = "2D8F7115-C311-411E-929D-56333CF7FFB2";
shapes = (
{
closed = 1;
nodes = (
(748,0,l),
(748,1196,l),
(380,1196,l),
(380,0,l)
);
},
{
closed = 1;
nodes = (
(1096,1146,l),
(1096,1474,l),
(32,1474,l),
(32,1146,l)
);
}
);
width = 1128;
},
{
anchors = (
{
name = bottom;
pos = (546,0);
},
{
name = cedilla;
pos = (546,0);
},
{
name = center;
pos = (546,712);
},
{
name = top;
pos = (546,1474);
}
);
layerId = "FD1CEFBD-BAB1-4C2A-A598-30E93F9A29F6";
shapes = (
{
closed = 1;
nodes = (
(636,0,l),
(636,1344,l),
(456,1344,l),
(456,0,l)
);
},
{
closed = 1;
nodes = (
(1028,1310,l),
(1028,1474,l),
(62,1474,l),
(62,1310,l)
);
}
);
width = 1090;
}
);
unicode = 84;
},
{
color = 6;
glyphname = U;
kernLeft = LAT_U_UC;
kernRight = LAT_U_UC;
lastChange = "2023-11-23 10:10:50 +0000";
layers = (
{
anchors = (
{
name = bottom;
pos = (688,0);
},
{
name = horn;
pos = (1136,1474);
},
{
name = ogonek;
pos = (820,0);
},
{
name = top;
pos = (688,1474);
}
);
layerId = "AB099EFE-E788-4EFC-8633-CF147CB782A6";
shapes = (
{
closed = 1;
nodes = (
(982,-16,o),
(1170,176,o),
(1170,476,cs),
(1170,1474,l),
(1106,1474,l),
(1106,492,ls),
(1106,218,o),
(942,44,o),
(688,44,cs),
(436,44,o),
(268,218,o),
(268,492,cs),
(268,1474,l),
(204,1474,l),
(204,476,ls),
(204,176,o),
(398,-16,o),
(688,-16,cs)
);
}
);
width = 1374;
},
{
anchors = (
{
name = bottom;
pos = (722,0);
},
{
name = horn;
pos = (1230,1474);
},
{
name = ogonek;
pos = (862,0);
},
{
name = top;
pos = (722,1474);
}
);
layerId = "2D8F7115-C311-411E-929D-56333CF7FFB2";
shapes = (
{
closed = 1;
nodes = (
(1088,-16,o),
(1320,222,o),
(1320,586,cs),
(1320,1474,l),
(952,1474,l),
(952,552,ls),
(952,406,o),
(862,312,o),
(722,312,cs),
(588,312,o),
(492,402,o),
(492,552,cs),
(492,1474,l),
(124,1474,l),
(124,586,ls),
(124,222,o),
(358,-16,o),
(722,-16,cs)
);
}
);
width = 1444;
},
{
anchors = (
{
name = bottom;
pos = (700,0);
},
{
name = horn;
pos = (1172,1474);
},
{
name = ogonek;
pos = (836,0);
},
{
name = top;
pos = (700,1474);
}
);
layerId = "FD1CEFBD-BAB1-4C2A-A598-30E93F9A29F6";
shapes = (
{
closed = 1;
nodes = (
(1024,-16,o),
(1228,194,o),
(1228,516,cs),
(1228,1474,l),
(1048,1474,l),
(1048,516,ls),
(1048,296,o),
(914,148,o),
(700,148,cs),
(492,148,o),
(352,296,o),
(352,516,cs),
(352,1474,l),
(172,1474,l),
(172,516,ls),
(172,194,o),
(382,-16,o),
(700,-16,cs)
);
}
);
width = 1400;
}
);
metricLeft = H;
metricRight = H;
unicode = 85;
},
{
color = 6;
glyphname = V;
kernLeft = LAT_V_UC;
kernRight = LAT_V_UC;
lastChange = "2023-11-23 10:10:50 +0000";
layers = (
{
anchors = (
{
name = bottom;
pos = (702,0);
},
{
name = top;
pos = (694,1474);
}
);
layerId = "AB099EFE-E788-4EFC-8633-CF147CB782A6";
shapes = (
{
closed = 1;
nodes = (
(726,0,l),
(1332,1474,l),
(1260,1474,l),
(908,600,l),
(702,78,l),
(694,78,l),
(488,600,l),
(136,1474,l),
(64,1474,l),
(670,0,l)
);
}
);
width = 1396;
},
{
anchors = (
{
name = bottom;
pos = (746,0);
},
{
name = top;
pos = (742,1474);
}
);
layerId = "2D8F7115-C311-411E-929D-56333CF7FFB2";
shapes = (
{
closed = 1;
nodes = (
(902,0,l),
(1500,1474,l),
(1094,1474,l),
(880,898,l),
(746,496,l),
(738,496,l),
(598,898,l),
(386,1474,l),
(-16,1474,l),
(590,0,l)
);
}
);
width = 1484;
},
{
anchors = (
{
name = bottom;
pos = (708,0);
},
{
name = top;
pos = (708,1474);
}
);
layerId = "FD1CEFBD-BAB1-4C2A-A598-30E93F9A29F6";
shapes = (
{
closed = 1;
nodes = (
(782,0,l),
(1392,1474,l),
(1196,1474,l),
(898,712,l),
(712,258,l),
(704,258,l),
(520,712,l),
(222,1474,l),
(24,1474,l),
(634,0,l)
);
}
);
width = 1416;
},
{
anchors = (
{
name = bottom;
pos = (706,0);
},
{
name = top;
pos = (703,1474);
}
);
associatedMasterId = "AB099EFE-E788-4EFC-8633-CF147CB782A6";
attr = {
coordinates = (
68
);
};
layerId = "99D641AA-166D-4B39-81E8-E73A1976AA93";
name = "{68}";
shapes = (
{
closed = 1;
nodes = (
(762,0,l),
(1371,1474,l),
(1219,1474,l),
(902,672,l),
(708,194,l),
(700,194,l),
(509,672,l),
(191,1474,l),
(38,1474,l),
(647,0,l)
);
}
);
width = 1408;
},
{
anchors = (
{
name = bottom;
pos = (729,0);
},
{
name = top;
pos = (727,1474);
}
);
associatedMasterId = "FD1CEFBD-BAB1-4C2A-A598-30E93F9A29F6";
attr = {
coordinates = (
140
);
};
layerId = "5E72835B-349C-49EE-8EA5-8CBD52B47BA8";
name = "22. Nov 23 at 12:02";
shapes = (
{
closed = 1;
nodes = (
(849,0,l),
(1452,1474,l),
(1137,1474,l),
(889,817,l),
(731,393,l),
(723,393,l),
(562,817,l),
(315,1474,l),
(1,1474,l),
(608,0,l)
);
}
);
width = 1454;
}
);
unicode = 86;
},
{
color = 6;
glyphname = W;
kernLeft = LAT_W_UC;
kernRight = LAT_W_UC;
lastChange = "2023-11-23 10:10:50 +0000";
layers = (
{
anchors = (
{
name = bottom;
pos = (920,0);
},
{
name = top;
pos = (920,1474);
}
);
layerId = "AB099EFE-E788-4EFC-8633-CF147CB782A6";
shapes = (
{
closed = 1;
nodes = (
(546,0,l),
(916,1248,l),
(924,1248,l),
(1294,0,l),
(1374,0,l),
(1774,1474,l),
(1706,1474,l),
(1382,268,l),
(1338,70,l),
(1330,70,l),
(942,1376,l),
(898,1376,l),
(510,70,l),
(502,70,l),
(458,268,l),
(134,1474,l),
(66,1474,l),
(466,0,l)
);
}
);
width = 1840;
},
{
anchors = (
{
name = bottom;
pos = (1020,0);
},
{
name = top;
pos = (1020,1474);
}
);
layerId = "2D8F7115-C311-411E-929D-56333CF7FFB2";
shapes = (
{
closed = 1;
nodes = (
(720,0,l),
(1016,638,l),
(1024,638,l),
(1318,0,l),
(1618,0,l),
(2048,1474,l),
(1668,1474,l),
(1504,880,l),
(1418,512,l),
(1410,512,l),
(1094,1306,l),
(946,1306,l),
(630,512,l),
(622,512,l),
(536,880,l),
(376,1474,l),
(-8,1474,l),
(426,0,l)
);
}
);
width = 2040;
},
{
anchors = (
{
name = bottom;
pos = (950,0);
},
{
name = top;
pos = (950,1474);
}
);
layerId = "FD1CEFBD-BAB1-4C2A-A598-30E93F9A29F6";
shapes = (
{
closed = 1;
nodes = (
(626,0,l),
(946,918,l),
(954,918,l),
(1274,0,l),
(1438,0,l),
(1868,1474,l),
(1684,1474,l),
(1446,614,l),
(1352,250,l),
(1344,250,l),
(988,1324,l),
(914,1324,l),
(558,250,l),
(548,250,l),
(454,614,l),
(218,1474,l),
(32,1474,l),
(462,0,l)
);
}
);
width = 1900;
}
);
unicode = 87;
},
{
color = 6;
glyphname = W.ss03;
kernLeft = LAT_W_UC;
kernRight = LAT_W_UC;
lastChange = "2023-11-23 10:10:50 +0000";
layers = (
{
anchors = (
{
name = bottom;
pos = (926,0);
},
{
name = top;
pos = (926,1474);
}
);
layerId = "AB099EFE-E788-4EFC-8633-CF147CB782A6";
shapes = (
{
closed = 1;
nodes = (
(550,0,l),
(714,600,l),
(922,1352,l),
(930,1352,l),
(1134,600,l),
(1302,0,l),
(1382,0,l),
(1784,1474,l),
(1716,1474,l),
(1482,592,l),
(1348,78,l),
(1340,78,l),
(1198,592,l),
(952,1474,l),
(898,1474,l),
(652,592,l),
(512,78,l),
(504,78,l),
(366,592,l),
(134,1474,l),
(66,1474,l),
(466,0,l)
);
}
);
width = 1850;
},
{
anchors = (
{
name = bottom;
pos = (1002,0);
},
{
name = top;
pos = (1000,1474);
}
);
layerId = "2D8F7115-C311-411E-929D-56333CF7FFB2";
shapes = (
{
closed = 1;
nodes = (
(716,0,l),
(884,484,l),
(1000,812,l),
(1008,812,l),
(1118,484,l),
(1290,0,l),
(1642,0,l),
(1986,1474,l),
(1610,1474,l),
(1500,884,l),
(1438,492,l),
(1426,492,l),
(1328,812,l),
(1106,1474,l),
(898,1474,l),
(680,816,l),
(578,492,l),
(570,492,l),
(504,884,l),
(398,1474,l),
(16,1474,l),
(360,0,l)
);
}
);
width = 2002;
},
{
anchors = (
{
name = bottom;
pos = (950,0);
},
{
name = top;
pos = (950,1474);
}
);
layerId = "FD1CEFBD-BAB1-4C2A-A598-30E93F9A29F6";
shapes = (
{
closed = 1;
nodes = (
(622,0,l),
(766,480,l),
(946,1094,l),
(954,1094,l),
(1134,480,l),
(1278,0,l),
(1450,0,l),
(1860,1474,l),
(1680,1474,l),
(1466,688,l),
(1368,274,l),
(1360,274,l),
(1232,708,l),
(1004,1474,l),
(898,1474,l),
(668,708,l),
(540,274,l),
(532,274,l),
(434,688,l),
(226,1474,l),
(40,1474,l),
(450,0,l)
);
}
);
width = 1900;
}
);
},
{
color = 6;
glyphname = X;
kernLeft = LAT_X_UC;
kernRight = LAT_X_UC;
lastChange = "2023-11-23 10:10:50 +0000";
layers = (
{
anchors = (
{
name = bottom;
pos = (638,0);
},
{
name = top;
pos = (638,1474);
}
);
layerId = "AB099EFE-E788-4EFC-8633-CF147CB782A6";
shapes = (
{
closed = 1;
nodes = (
(1178,0,l),
(678,734,l),
(678,742,l),
(646,784,l),
(634,784,l),
(170,1474,l),
(98,1474,l),
(598,738,l),
(598,730,l),
(630,690,l),
(642,690,l),
(1102,0,l)
);
},
{
closed = 1;
nodes = (
(174,0,l),
(634,690,l),
(646,690,l),
(678,730,l),
(678,738,l),
(1178,1474,l),
(1106,1474,l),
(642,784,l),
(630,784,l),
(598,742,l),
(598,734,l),
(98,0,l)
);
}
);
width = 1276;
},
{
anchors = (
{
name = bottom;
pos = (746,0);
},
{
name = top;
pos = (746,1474);
}
);
layerId = "2D8F7115-C311-411E-929D-56333CF7FFB2";
shapes = (
{
closed = 1;
nodes = (
(1474,0,l),
(1000,734,l),
(1000,738,l),
(750,974,l),
(742,974,l),
(450,1474,l),
(24,1474,l),
(492,742,l),
(492,738,l),
(738,462,l),
(746,462,l),
(1036,0,l)
);
},
{
closed = 1;
nodes = (
(450,0,l),
(742,462,l),
(750,462,l),
(1000,738,l),
(1000,742,l),
(1466,1474,l),
(1036,1474,l),
(746,974,l),
(738,974,l),
(492,738,l),
(492,734,l),
(16,0,l)
);
}
);
width = 1490;
},
{
anchors = (
{
name = bottom;
pos = (680,0);
},
{
name = top;
pos = (680,1474);
}
);
layerId = "FD1CEFBD-BAB1-4C2A-A598-30E93F9A29F6";
shapes = (
{
closed = 1;
nodes = (
(1294,0,l),
(798,734,l),
(798,742,l),
(688,860,l),
(676,860,l),
(278,1474,l),
(74,1474,l),
(562,742,l),
(562,734,l),
(672,602,l),
(684,602,l),
(1078,0,l)
);
},
{
closed = 1;
nodes = (
(282,0,l),
(676,602,l),
(688,602,l),
(798,734,l),
(798,742,l),
(1286,1474,l),
(1082,1474,l),
(684,860,l),
(672,860,l),
(562,742,l),
(562,734,l),
(66,0,l)
);
}
);
width = 1360;
}
);
unicode = 88;
},
{
color = 6;
glyphname = Y;
kernLeft = LAT_Y_UC;
kernRight = LAT_Y_UC;
lastChange = "2023-12-23 02:21:20 +0000";
layers = (
{
anchors = (
{
name = bottom;
pos = (610,0);
},
{
name = top;
pos = (610,1474);
}
);
layerId = "AB099EFE-E788-4EFC-8633-CF147CB782A6";
shapes = (
{
closed = 1;
nodes = (
(642,0,l),
(642,680,l),
(1154,1474,l),
(1082,1474,l),
(808,1042,l),
(614,748,l),
(606,748,l),
(412,1042,l),
(138,1474,l),
(66,1474,l),
(578,680,l),
(578,0,l)
);
}
);
width = 1220;
},
{
anchors = (
{
name = bottom;
pos = (676,0);
},
{
name = top;
pos = (676,1474);
}
);
layerId = "2D8F7115-C311-411E-929D-56333CF7FFB2";
shapes = (
{
closed = 1;
nodes = (
(860,0,l),
(860,552,l),
(1368,1474,l),
(946,1474,l),
(816,1208,l),
(680,906,l),
(672,906,l),
(536,1208,l),
(406,1474,l),
(-16,1474,l),
(492,552,l),
(492,0,l)
);
}
);
width = 1352;
},
{
anchors = (
{
name = bottom;
pos = (638,0);
},
{
name = top;
pos = (638,1474);
}
);
layerId = "FD1CEFBD-BAB1-4C2A-A598-30E93F9A29F6";
shapes = (
{
closed = 1;
nodes = (
(728,0,l),
(728,634,l),
(1242,1474,l),
(1036,1474,l),
(816,1106,l),
(644,812,l),
(634,812,l),
(462,1106,l),
(242,1474,l),
(36,1474,l),
(548,634,l),
(548,0,l)
);
}
);
width = 1278;
}
);
unicode = 89;
},
{
color = 6;
glyphname = Z;
kernLeft = LAT_Z_UC;
kernRight = LAT_Z_UC;
lastChange = "2023-11-23 10:10:50 +0000";
layers = (
{
anchors = (
{
name = bottom;
pos = (652,0);
},
{
name = top;
pos = (644,1474);
}
);
layerId = "AB099EFE-E788-4EFC-8633-CF147CB782A6";
shapes = (
{
closed = 1;
nodes = (
(1100,0,l),
(1100,60,l),
(228,60,l),
(228,64,l),
(1080,1438,l),
(1080,1474,l),
(192,1474,l),
(192,1414,l),
(992,1414,l),
(992,1410,l),
(140,36,l),
(140,0,l)
);
}
);
width = 1240;
},
{
anchors = (
{
name = bottom;
pos = (618,0);
},
{
name = top;
pos = (618,1474);
}
);
layerId = "2D8F7115-C311-411E-929D-56333CF7FFB2";
shapes = (
{
closed = 1;
nodes = (
(1188,0,l),
(1188,324,l),
(590,324,l),
(590,328,l),
(1172,1422,l),
(1172,1474,l),
(78,1474,l),
(78,1150,l),
(634,1150,l),
(634,1146,l),
(50,50,l),
(50,0,l)
);
}
);
width = 1236;
},
{
anchors = (
{
name = bottom;
pos = (638,0);
},
{
name = top;
pos = (634,1474);
}
);
layerId = "FD1CEFBD-BAB1-4C2A-A598-30E93F9A29F6";
shapes = (
{
closed = 1;
nodes = (
(1134,0,l),
(1134,164,l),
(380,164,l),
(380,168,l),
(1122,1434,l),
(1122,1474,l),
(152,1474,l),
(152,1310,l),
(848,1310,l),
(848,1306,l),
(106,40,l),
(106,0,l)
);
}
);
width = 1242;
}
);
unicode = 90;
},
{
color = 6;
glyphname = a;
kernLeft = LAT_ASS02_LC;
kernRight = LAT_A_LC;
lastChange = "2023-11-23 10:10:50 +0000";
layers = (
{
anchors = (
{
name = bottom;
pos = (508,0);
},
{
name = ogonek;
pos = (930,-16);
},
{
name = top;
pos = (524,1048);
}
);
layerId = "AB099EFE-E788-4EFC-8633-CF147CB782A6";
shapes = (
{
closed = 1;
nodes = (
(604,-16,o),
(734,78,o),
(798,188,c),
(782,180,l),
(806,180,l),
(798,188,l),
(812,94,o),
(839,30,o),
(906,-4,cs),
(930,-16,l),
(952,38,l),
(944,42,ls),
(896,66,o),
(858,130,o),
(858,232,cs),
(858,684,ls),
(858,896,o),
(796,1064,o),
(524,1064,cs),
(422,1064,o),
(264,1014,o),
(184,950,c),
(212,900,l),
(290,960,o),
(432,1008,o),
(520,1008,cs),
(746,1008,o),
(798,880,o),
(798,692,cs),
(798,562,l),
(798,552,l),
(798,360,ls),
(798,194,o),
(618,40,o),
(442,40,cs),
(294,40,o),
(174,148,o),
(174,282,cs),
(174,438,o),
(328,550,o),
(622,550,cs),
(820,550,l),
(820,606,l),
(622,606,ls),
(294,606,o),
(114,476,o),
(114,282,cs),
(114,112,o),
(258,-16,o),
(442,-16,cs)
);
}
);
width = 1058;
},
{
anchors = (
{
name = bottom;
pos = (544,0);
},
{
name = ogonek;
pos = (984,-16);
},
{
name = top;
pos = (570,1080);
}
);
layerId = "2D8F7115-C311-411E-929D-56333CF7FFB2";
shapes = (
{
closed = 1;
nodes = (
(578,-16,o),
(718,58,o),
(758,140,c),
(652,118,l),
(812,118,l),
(724,180,l),
(738,112,o),
(811,33,o),
(942,-4,cs),
(984,-16,l),
(1106,278,l),
(1082,286,ls),
(1039,300,o),
(1020,332,o),
(1020,398,cs),
(1020,712,ls),
(1020,878,o),
(968,1098,o),
(552,1098,cs),
(344,1098,o),
(184,1040,o),
(106,996,c),
(226,734,l),
(304,782,o),
(430,816,o),
(520,816,cs),
(606,816,o),
(684,782,o),
(684,708,cs),
(684,552,l),
(696,512,l),
(696,372,ls),
(696,274,o),
(574,246,o),
(508,246,cs),
(438,246,o),
(386,284,o),
(386,340,cs),
(386,406,o),
(434,438,o),
(536,438,cs),
(738,438,l),
(738,652,l),
(462,652,ls),
(206,652,o),
(40,508,o),
(40,312,cs),
(40,132,o),
(188,-16,o),
(410,-16,cs)
);
}
);
width = 1146;
},
{
anchors = (
{
name = bottom;
pos = (534,0);
},
{
name = ogonek;
pos = (940,-16);
},
{
name = top;
pos = (542,1060);
}
);
layerId = "FD1CEFBD-BAB1-4C2A-A598-30E93F9A29F6";
shapes = (
{
closed = 1;
nodes = (
(604,-16,o),
(736,70,o),
(788,176,c),
(744,148,l),
(810,148,l),
(776,160,l),
(776,98,o),
(837,28,o),
(912,-4,cs),
(940,-16,l),
(1006,140,l),
(986,148,ls),
(936,168,o),
(920,218,o),
(920,308,cs),
(920,680,ls),
(920,890,o),
(838,1078,o),
(550,1078,cs),
(416,1078,o),
(264,1036,o),
(158,974,c),
(224,820,l),
(306,878,o),
(436,918,o),
(534,918,cs),
(756,918,o),
(756,746,o),
(756,676,cs),
(756,558,l),
(760,496,l),
(760,386,ls),
(760,222,o),
(588,132,o),
(456,132,cs),
(346,132,o),
(256,194,o),
(256,300,cs),
(256,422,o),
(375,492,o),
(584,492,cs),
(792,492,l),
(792,630,l),
(572,630,ls),
(264,630,o),
(88,510,o),
(88,300,cs),
(88,102,o),
(240,-16,o),
(436,-16,cs)
);
}
);
width = 1082;
},
{
anchors = (
{
name = bottom;
pos = (525,0);
},
{
name = ogonek;
pos = (936,-16);
},
{
name = top;
pos = (536,1056);
}
);
associatedMasterId = "AB099EFE-E788-4EFC-8633-CF147CB782A6";
attr = {
coordinates = (
68
);
};
layerId = "F272CEB0-8CA7-4D87-B7A2-F9B1A9804AFB";
name = "{68}";
shapes = (
{
closed = 1;
nodes = (
(604,-16,o),
(735,73,o),
(792,180,c),
(758,159,l),
(809,159,l),
(784,170,l),
(789,97,o),
(838,29,o),
(910,-4,cs),
(936,-16,l),
(987,104,l),
(971,110,ls),
(922,132,o),
(898,187,o),
(898,281,cs),
(898,681,ls),
(898,892,o),
(823,1073,o),
(541,1073,cs),
(418,1073,o),
(264,1028,o),
(167,965,c),
(220,849,l),
(300,907,o),
(435,950,o),
(529,950,cs),
(752,950,o),
(771,794,o),
(771,682,cs),
(771,559,l),
(774,516,l),
(774,377,ls),
(774,212,o),
(599,99,o),
(451,99,cs),
(327,99,o),
(227,178,o),
(227,294,cs),
(227,428,o),
(358,513,o),
(598,513,cs),
(802,513,l),
(802,621,l),
(590,621,ls),
(275,621,o),
(97,498,o),
(97,294,cs),
(97,106,o),
(246,-16,o),
(438,-16,cs)
);
}
);
width = 1074;
},
{
anchors = (
{
name = bottom;
pos = (543,0);
},
{
name = ogonek;
pos = (962,-16);
},
{
name = top;
pos = (558,1074);
}
);
associatedMasterId = "FD1CEFBD-BAB1-4C2A-A598-30E93F9A29F6";
attr = {
coordinates = (
140
);
};
layerId = "C1689013-F0E0-4062-AD55-EBDA9284880D";
name = "22. Nov 23 at 12:02";
shapes = (
{
closed = 1;
nodes = (
(593,-16,o),
(735,65,o),
(780,156,c),
(720,128,l),
(808,128,l),
(756,162,l),
(764,103,o),
(812,40,o),
(930,-4,cs),
(962,-16,l),
(1062,218,l),
(1038,226,ls),
(988,242,o),
(976,279,o),
(976,360,cs),
(976,694,ls),
(976,840,o),
(951,1086,o),
(560,1086,cs),
(380,1086,o),
(214,1036,o),
(132,988,c),
(222,774,l),
(293,820,o),
(420,856,o),
(522,856,cs),
(661,856,o),
(712,783,o),
(712,690,cs),
(712,552,l),
(730,498,l),
(730,388,ls),
(730,250,o),
(574,196,o),
(488,196,cs),
(393,196,o),
(326,242,o),
(326,324,cs),
(326,414,o),
(402,456,o),
(530,456,cs),
(766,456,l),
(766,638,l),
(528,638,ls),
(221,638,o),
(62,503,o),
(62,312,cs),
(62,126,o),
(209,-16,o),
(426,-16,cs)
);
}
);
width = 1118;
}
);
metricRight = u;
unicode = 97;
},
{
color = 3;
glyphname = a.ss01;
kernLeft = LAT_O_LC;
kernRight = LAT_ASS01_LC;
lastChange = "2023-11-23 10:10:50 +0000";
layers = (
{
anchors = (
{
name = bottom;
pos = (612,0);
},
{
name = center;
pos = (636,524);
},
{
name = ogonek;
pos = (1104,0);
},
{
name = top;
pos = (636,1048);
},
{
name = topright;
pos = (1252,1048);
}
);
layerId = "AB099EFE-E788-4EFC-8633-CF147CB782A6";
shapes = (
{
closed = 1;
nodes = (
(1104,0,l),
(1104,1048,l),
(1044,1048,l),
(1044,810,l),
(1024,810,l),
(1048,760,l),
(1048,288,l),
(1020,240,l),
(1044,240,l),
(1044,0,l)
);
},
{
alignment = -1;
pos = (1280,0);
ref = _part.bowl.ss01;
scale = (-1,1);
}
);
width = 1264;
},
{
anchors = (
{
name = bottom;
pos = (664,0);
},
{
name = center;
pos = (660,540);
},
{
name = ogonek;
pos = (1188,0);
},
{
name = top;
pos = (676,1080);
},
{
name = topright;
pos = (1278,1080);
}
);
layerId = "2D8F7115-C311-411E-929D-56333CF7FFB2";
shapes = (
{
closed = 1;
nodes = (
(1188,0,l),
(1188,1080,l),
(852,1080,l),
(852,966,l),
(812,966,l),
(856,860,l),
(856,180,l),
(820,122,l),
(852,122,l),
(852,0,l)
);
},
{
alignment = -1;
pos = (1310,0);
ref = _part.bowl.ss01;
scale = (-1,1);
}
);
width = 1282;
},
{
anchors = (
{
name = bottom;
pos = (628,0);
},
{
name = center;
pos = (642,536);
},
{
name = ogonek;
pos = (1132,0);
},
{
name = top;
pos = (650,1060);
},
{
name = topright;
pos = (1244,1060);
}
);
layerId = "FD1CEFBD-BAB1-4C2A-A598-30E93F9A29F6";
shapes = (
{
closed = 1;
nodes = (
(1132,0,l),
(1132,1060,l),
(960,1060,l),
(960,910,l),
(932,910,l),
(976,852,l),
(976,208,l),
(932,152,l),
(960,152,l),
(960,0,l)
);
},
{
alignment = -1;
pos = (1284,0);
ref = _part.bowl.ss01;
scale = (-1,1);
}
);
width = 1270;
}
);
metricLeft = o;
},
{
color = 3;
glyphname = a.ss02;
kernLeft = LAT_O_LC;
kernRight = LAT_A_LC;
lastChange = "2023-11-23 10:10:50 +0000";
layers = (
{
anchors = (
{
name = bottom;
pos = (592,0);
},
{
name = ogonek;
pos = (1104,-16);
},
{
name = top;
pos = (592,1048);
},
{
name = topright;
pos = (1162,1048);
}
);
layerId = "AB099EFE-E788-4EFC-8633-CF147CB782A6";
shapes = (
{
closed = 1;
nodes = (
(1128,38,l),
(1060,72,o),
(1034,116,o),
(1034,220,cs),
(1034,1048,l),
(974,1048,l),
(974,834,l),
(950,834,l),
(978,748,l),
(978,294,l),
(954,222,l),
(980,222,l),
(974,234,l),
(976,90,o),
(1010,40,o),
(1104,-16,c)
);
},
{
pos = (1206,0);
ref = _part.bowl;
scale = (-1,1);
}
);
width = 1234;
},
{
anchors = (
{
name = bottom;
pos = (616,0);
},
{
name = ogonek;
pos = (1116,-16);
},
{
name = top;
pos = (616,1080);
},
{
name = topright;
pos = (1226,1080);
}
);
layerId = "2D8F7115-C311-411E-929D-56333CF7FFB2";
shapes = (
{
closed = 1;
nodes = (
(1240,278,l),
(1170,304,o),
(1154,318,o),
(1154,418,cs),
(1154,1080,l),
(818,1080,l),
(818,982,l),
(768,982,l),
(818,886,l),
(818,274,l),
(776,144,l),
(866,144,l),
(846,160,l),
(878,74,o),
(982,18,o),
(1116,-16,c)
);
},
{
pos = (1248,0);
ref = _part.bowl;
scale = (-1,1);
}
);
width = 1280;
},
{
anchors = (
{
name = bottom;
pos = (608,0);
},
{
name = ogonek;
pos = (1088,-16);
},
{
name = top;
pos = (620,1060);
},
{
name = topright;
pos = (1186,1060);
}
);
layerId = "FD1CEFBD-BAB1-4C2A-A598-30E93F9A29F6";
shapes = (
{
closed = 1;
nodes = (
(1154,140,l),
(1084,168,o),
(1068,206,o),
(1068,300,cs),
(1068,1060,l),
(896,1060,l),
(896,928,l),
(838,928,l),
(924,824,l),
(924,290,l),
(870,164,l),
(968,164,l),
(916,196,l),
(924,86,o),
(986,34,o),
(1088,-16,c)
);
},
{
alignment = -1;
pos = (1208,0);
ref = _part.bowl;
scale = (-1,1);
}
);
width = 1230;
}
);
metricLeft = o;
metricRight = u;
},
{
color = 6;
glyphname = ae;
kernLeft = LAT_ASS02_LC;
kernRight = LAT_E_LC;
lastChange = "2023-11-23 10:10:50 +0000";
layers = (
{
anchors = (
{
name = bottom;
pos = (840,0);
},
{
name = top;
pos = (822,1048);
}
);
layerId = "AB099EFE-E788-4EFC-8633-CF147CB782A6";
shapes = (
{
closed = 1;
nodes = (
(644,-16,o),
(786,122,o),
(830,294,c),
(820,294,l),
(884,102,o),
(1026,-16,o),
(1228,-16,cs),
(1370,-16,o),
(1496,46,o),
(1576,118,c),
(1552,174,l),
(1472,104,o),
(1360,40,o),
(1230,40,cs),
(1006,40,o),
(842,232,o),
(842,538,cs),
(842,836,o),
(998,1008,o),
(1214,1008,cs),
(1440,1008,o),
(1574,824,o),
(1568,570,c),
(830,570,l),
(830,514,l),
(1630,514,l),
(1632,530,o),
(1634,555,o),
(1634,572,cs),
(1634,872,o),
(1462,1064,o),
(1210,1064,cs),
(1034,1064,o),
(892,968,o),
(824,780,c),
(838,780,l),
(818,952,o),
(730,1064,o),
(528,1064,cs),
(396,1064,o),
(256,1016,o),
(172,950,c),
(200,900,l),
(282,964,o),
(410,1008,o),
(524,1008,cs),
(782,1008,o),
(782,786,o),
(782,694,cs),
(782,398,ls),
(782,158,o),
(594,40,o),
(432,40,cs),
(284,40,o),
(174,138,o),
(174,274,cs),
(174,426,o),
(312,514,o),
(598,514,cs),
(798,514,l),
(798,570,l),
(606,570,ls),
(290,570,o),
(114,472,o),
(114,274,cs),
(114,98,o),
(250,-16,o),
(438,-16,cs)
);
}
);
width = 1744;
},
{
anchors = (
{
name = bottom;
pos = (856,0);
},
{
name = top;
pos = (864,1080);
}
);
background = {
shapes = (
{
ref = a;
scale = (0.9978,1);
},
{
pos = (678,0);
ref = e;
scale = (0.9497,1);
}
);
};
layerId = "2D8F7115-C311-411E-929D-56333CF7FFB2";
shapes = (
{
closed = 1;
nodes = (
(690,-16,o),
(858,136,o),
(872,226,c),
(786,226,l),
(868,82,o),
(1014,-16,o),
(1226,-16,cs),
(1354,-16,o),
(1500,20,o),
(1568,70,c),
(1462,328,l),
(1394,280,o),
(1320,254,o),
(1236,254,cs),
(1152,254,o),
(954,284,o),
(954,552,cs),
(954,774,o),
(1090,836,o),
(1184,836,cs),
(1294,836,o),
(1372,750,o),
(1372,644,c),
(918,644,l),
(934,442,l),
(1658,442,l),
(1668,484,o),
(1672,524,o),
(1672,574,cs),
(1672,964,o),
(1414,1096,o),
(1204,1096,cs),
(1054,1096,o),
(856,1024,o),
(820,902,c),
(926,902,l),
(882,1008,o),
(774,1096,o),
(528,1096,cs),
(332,1096,o),
(180,1040,o),
(106,996,c),
(218,734,l),
(280,778,o),
(398,824,o),
(522,824,cs),
(722,824,o),
(696,704,o),
(696,622,cs),
(696,418,ls),
(696,308,o),
(624,238,o),
(512,238,cs),
(430,238,o),
(380,276,o),
(380,336,cs),
(380,404,o),
(438,442,o),
(532,442,cs),
(734,442,l),
(734,644,l),
(458,644,ls),
(206,644,o),
(40,516,o),
(40,326,cs),
(40,148,o),
(184,-16,o),
(442,-16,cs)
);
}
);
width = 1712;
},
{
anchors = (
{
name = bottom;
pos = (862,0);
},
{
name = top;
pos = (858,1060);
}
);
layerId = "FD1CEFBD-BAB1-4C2A-A598-30E93F9A29F6";
shapes = (
{
closed = 1;
nodes = (
(686,-16,o),
(826,120,o),
(874,246,c),
(830,246,l),
(912,86,o),
(1038,-16,o),
(1244,-16,cs),
(1378,-16,o),
(1510,34,o),
(1588,102,c),
(1526,250,l),
(1452,180,o),
(1350,140,o),
(1240,140,cs),
(1052,140,o),
(916,276,o),
(916,536,cs),
(916,792,o),
(1048,920,o),
(1214,920,cs),
(1396,920,o),
(1498,786,o),
(1494,610,c),
(890,610,l),
(890,470,l),
(1648,470,l),
(1654,495,o),
(1656,525,o),
(1656,568,cs),
(1656,892,o),
(1474,1076,o),
(1222,1076,cs),
(1068,1076,o),
(924,1002,o),
(842,864,c),
(886,864,l),
(850,990,o),
(752,1076,o),
(538,1076,cs),
(392,1076,o),
(232,1032,o),
(154,974,c),
(216,828,l),
(278,882,o),
(420,920,o),
(534,920,cs),
(760,920,o),
(764,774,o),
(764,614,cs),
(764,390,ls),
(764,238,o),
(616,140,o),
(470,140,cs),
(350,140,o),
(260,198,o),
(260,304,cs),
(260,410,o),
(350,470,o),
(548,470,cs),
(792,470,l),
(792,610,l),
(548,610,ls),
(264,610,o),
(88,500,o),
(88,300,cs),
(88,106,o),
(248,-16,o),
(460,-16,cs)
);
}
);
width = 1744;
}
);
metricLeft = a;
metricRight = e;
unicode = 230;
},
{
color = 3;
glyphname = b;
kernLeft = LAT_H_UC;
kernRight = LAT_O_LC;
lastChange = "2023-11-23 10:10:50 +0000";
layers = (
{
anchors = (
{
name = bottom;
pos = (606,0);
},
{
name = center;
pos = (198,1262);
},
{
name = top;
pos = (654,1156);
}
);
layerId = "AB099EFE-E788-4EFC-8633-CF147CB782A6";
shapes = (
{
closed = 1;
nodes = (
(232,0,l),
(232,224,l),
(264,224,l),
(220,312,l),
(220,728,l),
(252,834,l),
(232,834,l),
(232,1540,l),
(172,1540,l),
(172,0,l)
);
},
{
ref = _part.bowl;
}
);
width = 1206;
},
{
anchors = (
{
name = bottom;
pos = (630,0);
},
{
name = center;
pos = (266,1298);
},
{
name = top;
pos = (782,1164);
}
);
layerId = "2D8F7115-C311-411E-929D-56333CF7FFB2";
shapes = (
{
closed = 1;
nodes = (
(426,0,l),
(426,114,l),
(472,114,l),
(426,226,l),
(426,816,l),
(472,1000,l),
(446,1000,l),
(446,1540,l),
(90,1540,l),
(90,0,l)
);
},
{
ref = _part.bowl;
}
);
width = 1248;
},
{
anchors = (
{
name = bottom;
pos = (612,0);
},
{
name = center;
pos = (224,1278);
},
{
name = top;
pos = (698,1160);
}
);
layerId = "FD1CEFBD-BAB1-4C2A-A598-30E93F9A29F6";
shapes = (
{
closed = 1;
nodes = (
(310,0,l),
(310,144,l),
(342,144,l),
(284,246,l),
(284,816,l),
(326,926,l),
(310,926,l),
(310,1540,l),
(138,1540,l),
(138,0,l)
);
},
{
alignment = -1;
ref = _part.bowl;
}
);
width = 1208;
}
);
metricLeft = h;
metricRight = o;
unicode = 98;
},
{
color = 3;
glyphname = b.ss01;
kernLeft = LAT_L_LC;
kernRight = LAT_O_LC;
lastChange = "2023-11-23 10:10:50 +0000";
layers = (
{
anchors = (
{
name = bottom;
pos = (610,0);
},
{
name = center;
pos = (202,1262);
},
{
name = top;
pos = (658,1156);
}
);
layerId = "AB099EFE-E788-4EFC-8633-CF147CB782A6";
shapes = (
{
closed = 1;
nodes = (
(232,0,l),
(232,240,l),
(252,240,l),
(228,272,l),
(228,744,l),
(244,804,l),
(232,804,l),
(232,1540,l),
(172,1540,l),
(172,0,l)
);
},
{
pos = (-4,0);
ref = _part.bowl.ss01;
}
);
width = 1276;
},
{
anchors = (
{
name = bottom;
pos = (630,0);
},
{
name = center;
pos = (266,1298);
},
{
name = top;
pos = (782,1164);
}
);
layerId = "2D8F7115-C311-411E-929D-56333CF7FFB2";
shapes = (
{
closed = 1;
nodes = (
(426,0,l),
(426,122,l),
(472,122,l),
(418,226,l),
(418,816,l),
(472,992,l),
(446,992,l),
(446,1540,l),
(90,1540,l),
(90,0,l)
);
},
{
pos = (-36,0);
ref = _part.bowl.ss01;
}
);
width = 1274;
},
{
anchors = (
{
name = bottom;
pos = (616,0);
},
{
name = center;
pos = (224,1278);
},
{
name = top;
pos = (698,1160);
}
);
layerId = "FD1CEFBD-BAB1-4C2A-A598-30E93F9A29F6";
shapes = (
{
closed = 1;
nodes = (
(310,0,l),
(310,156,l),
(334,156,l),
(306,212,l),
(306,806,l),
(330,910,l),
(310,910,l),
(310,1540,l),
(138,1540,l),
(138,0,l)
);
},
{
alignment = -1;
pos = (-10,0);
ref = _part.bowl.ss01;
}
);
width = 1274;
}
);
metricLeft = h;
metricRight = o;
},
{
color = 6;
glyphname = c;
kernLeft = LAT_O_LC;
kernRight = LAT_C_LC;
lastChange = "2023-11-23 10:10:50 +0000";
layers = (
{
anchors = (
{
name = base;
pos = (830,0);
},
{
name = bottom;
pos = (592,0);
},
{
name = cedilla;
pos = (608,0);
},
{
name = top;
pos = (592,1048);
}
);
layerId = "AB099EFE-E788-4EFC-8633-CF147CB782A6";
shapes = (
{
closed = 1;
nodes = (
(734,-12,o),
(854,30,o),
(944,106,c),
(916,166,l),
(858,100,o),
(742,44,o),
(616,44,cs),
(378,44,o),
(176,254,o),
(176,528,cs),
(176,808,o),
(390,1008,o),
(620,1008,cs),
(706,1008,o),
(842,974,o),
(912,900,c),
(940,958,l),
(854,1024,o),
(728,1064,o),
(620,1064,cs),
(358,1064,o),
(116,842,o),
(116,528,cs),
(116,218,o),
(346,-12,o),
(612,-12,cs)
);
}
);
userData = {
RMXScaler = {
height = 71.5;
weight = 20;
width = 77;
};
};
width = 1034;
},
{
anchors = (
{
name = base;
pos = (852,0);
},
{
name = bottom;
pos = (618,0);
},
{
name = cedilla;
pos = (630,0);
},
{
name = top;
pos = (630,1080);
}
);
layerId = "2D8F7115-C311-411E-929D-56333CF7FFB2";
shapes = (
{
closed = 1;
nodes = (
(762,-12,o),
(878,26,o),
(954,70,c),
(828,360,l),
(794,328,o),
(708,292,o),
(626,292,cs),
(482,292,o),
(376,406,o),
(376,546,cs),
(376,672,o),
(464,792,o),
(630,792,cs),
(710,792,o),
(770,764,o),
(824,714,c),
(954,998,l),
(860,1060,o),
(742,1096,o),
(620,1096,cs),
(300,1096,o),
(40,850,o),
(40,544,cs),
(40,230,o),
(308,-12,o),
(634,-12,cs)
);
}
);
userData = {
RMXScaler = {
height = 73.5;
weight = -50;
width = 73;
};
};
width = 970;
},
{
anchors = (
{
name = base;
pos = (830,0);
},
{
name = bottom;
pos = (592,0);
},
{
name = cedilla;
pos = (608,0);
},
{
name = top;
pos = (596,1060);
}
);
layerId = "FD1CEFBD-BAB1-4C2A-A598-30E93F9A29F6";
shapes = (
{
closed = 1;
nodes = (
(744,-12,o),
(862,34,o),
(940,94,c),
(874,242,l),
(818,188,o),
(720,148,o),
(612,148,cs),
(404,148,o),
(256,312,o),
(256,532,cs),
(256,766,o),
(416,918,o),
(608,918,cs),
(698,918,o),
(810,882,o),
(870,828,c),
(936,974,l),
(850,1036,o),
(728,1078,o),
(604,1078,cs),
(322,1078,o),
(80,856,o),
(80,536,cs),
(80,226,o),
(310,-12,o),
(608,-12,cs)
);
}
);
userData = {
RMXScaler = {
height = 71.5;
weight = 20;
width = 77;
};
};
width = 996;
}
);
metricLeft = o;
unicode = 99;
userData = {
RMXScaler = {
source = C;
};
};
},
{
color = 3;
glyphname = d;
kernLeft = LAT_O_LC;
kernRight = LAT_D_LC;
lastChange = "2023-11-23 10:10:50 +0000";
layers = (
{
anchors = (
{
name = bottom;
pos = (616,0);
},
{
name = center;
pos = (1002,1262);
},
{
name = leghookretroflex;
pos = (1002,0);
},
{
name = top;
pos = (998,1540);
},
{
name = topright;
pos = (1028,1540);
}
);
layerId = "AB099EFE-E788-4EFC-8633-CF147CB782A6";
shapes = (
{
closed = 1;
nodes = (
(1124,38,l),
(1050,76,o),
(1030,116,o),
(1030,232,cs),
(1030,1540,l),
(970,1540,l),
(970,834,l),
(946,834,l),
(982,756,l),
(982,294,l),
(950,222,l),
(978,222,l),
(970,234,l),
(976,78,o),
(1012,34,o),
(1096,-16,c)
);
},
{
pos = (1206,0);
ref = _part.bowl;
scale = (-1,1);
}
);
width = 1228;
},
{
anchors = (
{
name = bottom;
pos = (616,0);
},
{
name = center;
pos = (972,1298);
},
{
name = leghookretroflex;
pos = (976,0);
},
{
name = top;
pos = (976,1540);
},
{
name = topright;
pos = (1154,1540);
}
);
layerId = "2D8F7115-C311-411E-929D-56333CF7FFB2";
shapes = (
{
closed = 1;
nodes = (
(1240,278,l),
(1180,298,o),
(1154,318,o),
(1154,394,cs),
(1154,1540,l),
(798,1540,l),
(798,1004,l),
(768,1004,l),
(818,892,l),
(818,274,l),
(776,144,l),
(866,144,l),
(846,160,l),
(872,86,o),
(962,26,o),
(1116,-16,c)
);
},
{
pos = (1248,0);
ref = _part.bowl;
scale = (-1,1);
}
);
width = 1284;
},
{
anchors = (
{
name = bottom;
pos = (596,0);
},
{
name = center;
pos = (982,1274);
},
{
name = leghookretroflex;
pos = (982,0);
},
{
name = top;
pos = (982,1540);
},
{
name = topright;
pos = (1190,1540);
}
);
layerId = "FD1CEFBD-BAB1-4C2A-A598-30E93F9A29F6";
shapes = (
{
closed = 1;
nodes = (
(1154,140,l),
(1084,172,o),
(1068,206,o),
(1068,294,cs),
(1068,1540,l),
(896,1540,l),
(896,930,l),
(874,930,l),
(924,824,l),
(924,290,l),
(870,172,l),
(968,172,l),
(920,196,l),
(920,102,o),
(966,42,o),
(1088,-16,c)
);
},
{
alignment = -1;
pos = (1208,0);
ref = _part.bowl;
scale = (-1,1);
}
);
width = 1238;
}
);
metricLeft = o;
unicode = 100;
},
{
color = 6;
glyphname = eth;
kernLeft = LAT_ETH_LC;
kernRight = LAT_ETH_LC;
lastChange = "2023-11-23 10:10:50 +0000";
layers = (
{
layerId = "AB099EFE-E788-4EFC-8633-CF147CB782A6";
shapes = (
{
closed = 1;
nodes = (
(908,-16,o),
(1100,218,o),
(1100,596,cs),
(1100,1126,o),
(720,1450,o),
(352,1558,c),
(332,1508,l),
(586,1430,o),
(910,1224,o),
(1024,818,c),
(1036,834,l),
(1006,834,l),
(1042,796,l),
(964,946,o),
(792,1024,o),
(622,1024,cs),
(334,1024,o),
(122,796,o),
(122,504,cs),
(122,210,o),
(336,-16,o),
(618,-16,cs)
);
},
{
closed = 1;
nodes = (
(392,40,o),
(182,224,o),
(182,506,cs),
(182,772,o),
(370,968,o),
(630,968,cs),
(830,968,o),
(1042,850,o),
(1042,546,cs),
(1042,274,o),
(872,40,o),
(618,40,cs)
);
},
{
closed = 1;
nodes = (
(948,1512,l),
(930,1554,l),
(320,1220,l),
(344,1172,l)
);
}
);
width = 1222;
},
{
layerId = "2D8F7115-C311-411E-929D-56333CF7FFB2";
shapes = (
{
closed = 1;
nodes = (
(934,-16,o),
(1172,254,o),
(1172,652,cs),
(1172,1090,o),
(882,1454,o),
(340,1700,c),
(204,1426,l),
(512,1316,o),
(738,1126,o),
(832,898,c),
(876,946,l),
(786,946,l),
(848,876,l),
(816,992,o),
(660,1028,o),
(546,1028,cs),
(256,1028,o),
(32,796,o),
(32,514,cs),
(32,210,o),
(284,-16,o),
(594,-16,cs)
);
},
{
closed = 1;
nodes = (
(468,294,o),
(372,398,o),
(372,532,cs),
(372,664,o),
(468,754,o),
(602,754,cs),
(738,754,o),
(832,664,o),
(832,532,cs),
(832,398,o),
(738,294,o),
(602,294,cs)
);
},
{
closed = 1;
nodes = (
(1040,1512,l),
(918,1692,l),
(208,1212,l),
(300,1082,l)
);
}
);
width = 1204;
},
{
layerId = "FD1CEFBD-BAB1-4C2A-A598-30E93F9A29F6";
shapes = (
{
closed = 1;
nodes = (
(916,-16,o),
(1128,222,o),
(1128,622,cs),
(1128,1136,o),
(772,1446,o),
(354,1614,c),
(288,1474,l),
(552,1376,o),
(846,1184,o),
(948,872,c),
(972,902,l),
(924,902,l),
(956,864,l),
(912,954,o),
(768,1032,o),
(600,1032,cs),
(318,1032,o),
(96,820,o),
(96,512,cs),
(96,202,o),
(326,-16,o),
(616,-16,cs)
);
},
{
closed = 1;
nodes = (
(428,144,o),
(268,296,o),
(268,516,cs),
(268,730,o),
(416,872,o),
(616,872,cs),
(806,872,o),
(960,746,o),
(960,528,cs),
(960,308,o),
(810,144,o),
(620,144,cs)
);
},
{
closed = 1;
nodes = (
(998,1520,l),
(936,1618,l),
(284,1236,l),
(346,1138,l)
);
}
);
width = 1220;
}
);
unicode = 240;
},
{
color = 6;
glyphname = e;
kernLeft = LAT_O_LC;
kernRight = LAT_E_LC;
lastChange = "2023-11-23 10:10:50 +0000";
layers = (
{
anchors = (
{
name = bottom;
pos = (584,0);
},
{
name = cedilla;
pos = (584,0);
},
{
name = ogonek;
pos = (896,78);
},
{
name = top;
pos = (588,1048);
}
);
layerId = "AB099EFE-E788-4EFC-8633-CF147CB782A6";
shapes = (
{
closed = 1;
nodes = (
(744,-16,o),
(868,46,o),
(948,118,c),
(924,174,l),
(834,96,o),
(726,40,o),
(592,40,cs),
(340,40,o),
(176,234,o),
(176,520,cs),
(176,826,o),
(362,1008,o),
(588,1008,cs),
(820,1008,o),
(974,814,o),
(964,562,c),
(164,562,l),
(164,506,l),
(1024,506,l),
(1026,534,o),
(1026,558,o),
(1026,582,cs),
(1026,860,o),
(848,1064,o),
(586,1064,cs),
(306,1064,o),
(116,832,o),
(116,524,cs),
(116,206,o),
(314,-16,o),
(596,-16,cs)
);
}
);
width = 1136;
},
{
anchors = (
{
name = bottom;
pos = (592,0);
},
{
name = cedilla;
pos = (620,0);
},
{
name = ogonek;
pos = (976,70);
},
{
name = top;
pos = (584,1080);
}
);
layerId = "2D8F7115-C311-411E-929D-56333CF7FFB2";
shapes = (
{
closed = 1;
nodes = (
(768,-16,o),
(900,20,o),
(976,70,c),
(870,324,l),
(834,296,o),
(716,262,o),
(624,262,cs),
(466,262,o),
(342,374,o),
(342,548,cs),
(342,694,o),
(426,826,o),
(580,826,cs),
(686,826,o),
(764,762,o),
(764,638,c),
(318,638,l),
(318,426,l),
(1076,426,l),
(1084,456,o),
(1092,524,o),
(1092,586,cs),
(1092,882,o),
(880,1096,o),
(588,1096,cs),
(292,1096,o),
(40,878,o),
(40,536,cs),
(40,212,o),
(264,-16,o),
(624,-16,cs)
);
}
);
width = 1132;
},
{
anchors = (
{
name = bottom;
pos = (572,0);
},
{
name = cedilla;
pos = (580,0);
},
{
name = ogonek;
pos = (944,94);
},
{
name = top;
pos = (568,1060);
}
);
layerId = "FD1CEFBD-BAB1-4C2A-A598-30E93F9A29F6";
shapes = (
{
closed = 1;
nodes = (
(736,-16,o),
(862,34,o),
(944,94,c),
(878,250,l),
(822,202,o),
(728,144,o),
(600,144,cs),
(384,144,o),
(248,300,o),
(248,532,cs),
(248,762,o),
(380,916,o),
(568,916,cs),
(752,916,o),
(866,774,o),
(866,602,c),
(210,602,l),
(210,462,l),
(1022,462,l),
(1026,484,o),
(1034,532,o),
(1034,590,cs),
(1034,872,o),
(842,1076,o),
(568,1076,cs),
(290,1076,o),
(80,864,o),
(80,532,cs),
(80,198,o),
(294,-16,o),
(592,-16,cs)
);
}
);
width = 1122;
},
{
anchors = (
{
name = bottom;
pos = (572,0);
},
{
name = cedilla;
pos = (580,0);
},
{
name = ogonek;
pos = (944,102);
},
{
name = top;
pos = (572,1056);
}
);
associatedMasterId = "AB099EFE-E788-4EFC-8633-CF147CB782A6";
attr = {
coordinates = (
68
);
};
layerId = "41F45E62-B5B9-4AF1-80A2-E47D8156008E";
name = "{68}";
shapes = (
{
closed = 1;
nodes = (
(734,-16,o),
(860,36,o),
(944,102,c),
(890,226,l),
(834,172,o),
(726,108,o),
(588,108,cs),
(370,108,o),
(220,272,o),
(220,530,cs),
(220,788,o),
(370,948,o),
(572,948,cs),
(772,948,o),
(900,790,o),
(900,592,c),
(194,592,l),
(194,480,l),
(1022,480,l),
(1026,500,o),
(1030,550,o),
(1030,590,cs),
(1030,852,o),
(852,1072,o),
(570,1072,cs),
(294,1072,o),
(92,860,o),
(92,528,cs),
(92,198,o),
(294,-16,o),
(588,-16,cs)
);
}
);
width = 1120;
},
{
anchors = (
{
name = bottom;
pos = (584,0);
},
{
name = cedilla;
pos = (604,0);
},
{
name = ogonek;
pos = (966,82);
},
{
name = top;
pos = (576,1072);
}
);
associatedMasterId = "FD1CEFBD-BAB1-4C2A-A598-30E93F9A29F6";
attr = {
coordinates = (
140
);
};
layerId = "6DE4F0C9-C139-4262-9D5C-438571D9A54B";
name = "22. Nov 23 at 12:02";
shapes = (
{
closed = 1;
nodes = (
(754,-16,o),
(881,23,o),
(966,82,c),
(876,300,l),
(813,249,o),
(711,208,o),
(606,208,cs),
(417,208,o),
(300,344,o),
(300,542,cs),
(300,732,o),
(406,862,o),
(574,862,cs),
(712,862,o),
(807,767,o),
(808,630,c),
(264,630,l),
(264,446,l),
(1046,446,l),
(1057,503,o),
(1062,541,o),
(1062,588,cs),
(1062,891,o),
(839,1086,o),
(574,1086,cs),
(294,1086,o),
(58,871,o),
(58,534,cs),
(58,213,o),
(275,-16,o),
(614,-16,cs)
);
}
);
width = 1124;
}
);
metricLeft = o;
unicode = 101;
},
{
color = 3;
glyphname = f;
kernLeft = LAT_F_LC;
kernRight = LAT_F_LC;
lastChange = "2023-11-23 10:10:50 +0000";
layers = (
{
anchors = (
{
name = bottom;
pos = (310,0);
},
{
name = top;
pos = (498,1540);
}
);
layerId = "AB099EFE-E788-4EFC-8633-CF147CB782A6";
shapes = (
{
closed = 1;
nodes = (
(608,992,l),
(608,1048,l),
(98,1048,l),
(98,992,l)
);
},
{
ref = "_part.f-stem";
}
);
width = 704;
},
{
anchors = (
{
name = bottom;
pos = (402,0);
},
{
name = top;
pos = (548,1540);
}
);
layerId = "2D8F7115-C311-411E-929D-56333CF7FFB2";
shapes = (
{
closed = 1;
nodes = (
(824,780,l),
(824,1080,l),
(8,1080,l),
(8,780,l)
);
},
{
pos = (-24,0);
ref = "_part.f-stem";
}
);
width = 872;
},
{
anchors = (
{
name = bottom;
pos = (346,0);
},
{
name = top;
pos = (530,1540);
}
);
layerId = "FD1CEFBD-BAB1-4C2A-A598-30E93F9A29F6";
shapes = (
{
closed = 1;
nodes = (
(686,904,l),
(686,1060,l),
(66,1060,l),
(66,904,l)
);
},
{
pos = (-2,0);
ref = "_part.f-stem";
}
);
width = 762;
},
{
anchors = (
{
name = bottom;
pos = (333,0);
},
{
name = top;
pos = (519,1540);
}
);
associatedMasterId = "AB099EFE-E788-4EFC-8633-CF147CB782A6";
attr = {
coordinates = (
68
);
};
layerId = "DBBB3619-68BA-4C02-92BF-EADE96346C93";
name = "{68}";
shapes = (
{
closed = 1;
nodes = (
(658,935,l),
(658,1056,l),
(77,1056,l),
(77,935,l)
);
},
{
alignment = -1;
pos = (-1,0);
ref = "_part.f-stem";
}
);
width = 742;
},
{
anchors = (
{
name = bottom;
pos = (374,0);
},
{
name = top;
pos = (540,1540);
}
);
associatedMasterId = "FD1CEFBD-BAB1-4C2A-A598-30E93F9A29F6";
attr = {
coordinates = (
140
);
};
layerId = "49C51F10-9FD4-46BA-B1C3-909122F791BC";
name = "22. Nov 23 at 11:57";
shapes = (
{
closed = 1;
nodes = (
(756,848,l),
(756,1072,l),
(34,1072,l),
(34,848,l)
);
},
{
alignment = -1;
pos = (-22,0);
ref = "_part.f-stem";
}
);
width = 822;
}
);
unicode = 102;
},
{
color = 6;
glyphname = g;
kernLeft = LAT_G_LC;
kernRight = LAT_G_LC;
lastChange = "2023-11-23 10:10:50 +0000";
layers = (
{
anchors = (
{
name = bottom;
pos = (598,-420);
},
{
name = top;
pos = (594,1048);
}
);
layerId = "AB099EFE-E788-4EFC-8633-CF147CB782A6";
shapes = (
{
closed = 1;
nodes = (
(772,-436,o),
(1030,-318,o),
(1030,8,cs),
(1030,1048,l),
(970,1048,l),
(970,834,l),
(964,834,l),
(974,772,l),
(974,282,l),
(962,224,l),
(972,224,l),
(972,4,ls),
(972,-244,o),
(800,-380,o),
(578,-380,cs),
(456,-380,o),
(336,-336,o),
(254,-266,c),
(230,-326,l),
(308,-388,o),
(458,-436,o),
(582,-436,cs)
);
},
{
closed = 1;
nodes = (
(822,-16,o),
(1032,158,o),
(1032,528,cs),
(1032,896,o),
(828,1064,o),
(578,1064,cs),
(296,1064,o),
(118,860,o),
(118,528,cs),
(118,188,o),
(304,-16,o),
(578,-16,cs)
);
},
{
closed = 1;
nodes = (
(348,40,o),
(178,228,o),
(178,528,cs),
(178,816,o),
(330,1008,o),
(574,1008,cs),
(812,1008,o),
(974,826,o),
(974,538,cs),
(974,248,o),
(812,40,o),
(574,40,cs)
);
}
);
width = 1204;
},
{
anchors = (
{
name = bottom;
pos = (610,-420);
},
{
name = top;
pos = (590,1080);
}
);
layerId = "2D8F7115-C311-411E-929D-56333CF7FFB2";
shapes = (
{
closed = 1;
nodes = (
(914,-436,o),
(1146,-256,o),
(1146,70,cs),
(1146,1082,l),
(828,1082,l),
(828,982,l),
(746,982,l),
(832,860,l),
(832,250,l),
(782,148,l),
(814,148,l),
(814,50,ls),
(814,-84,o),
(644,-142,o),
(516,-142,cs),
(418,-142,o),
(324,-110,o),
(242,-64,c),
(126,-338,l),
(214,-384,o),
(374,-436,o),
(558,-436,cs)
);
},
{
closed = 1;
nodes = (
(782,28,o),
(988,284,o),
(988,578,cs),
(988,860,o),
(800,1098,o),
(520,1098,cs),
(284,1098,o),
(40,926,o),
(40,558,cs),
(40,184,o),
(288,28,o),
(508,28,cs)
);
},
{
closed = 1;
nodes = (
(476,312,o),
(386,414,o),
(386,570,cs),
(386,726,o),
(480,816,o),
(610,816,cs),
(738,816,o),
(828,726,o),
(828,570,cs),
(828,414,o),
(734,312,o),
(602,312,cs)
);
}
);
width = 1236;
},
{
anchors = (
{
name = bottom;
pos = (596,-420);
},
{
name = top;
pos = (588,1060);
}
);
layerId = "FD1CEFBD-BAB1-4C2A-A598-30E93F9A29F6";
shapes = (
{
closed = 1;
nodes = (
(818,-436,o),
(1072,-298,o),
(1072,32,cs),
(1072,1060,l),
(900,1060,l),
(900,926,l),
(862,926,l),
(912,828,l),
(912,258,l),
(874,164,l),
(904,164,l),
(904,24,ls),
(904,-196,o),
(720,-280,o),
(564,-280,cs),
(440,-280,o),
(314,-232,o),
(248,-182,c),
(182,-334,l),
(264,-388,o),
(416,-436,o),
(568,-436,cs)
);
},
{
closed = 1;
nodes = (
(822,-4,o),
(1022,226,o),
(1022,544,cs),
(1022,860,o),
(830,1076,o),
(564,1076,cs),
(306,1076,o),
(80,878,o),
(80,540,cs),
(80,206,o),
(302,-4,o),
(556,-4,cs)
);
},
{
closed = 1;
nodes = (
(392,156,o),
(256,316,o),
(256,540,cs),
(256,762,o),
(388,916,o),
(584,916,cs),
(772,916,o),
(908,770,o),
(908,544,cs),
(908,316,o),
(772,156,o),
(584,156,cs)
);
}
);
width = 1208;
},
{
anchors = (
{
name = bottom;
pos = (597,-420);
},
{
name = top;
pos = (590,1056);
}
);
associatedMasterId = "AB099EFE-E788-4EFC-8633-CF147CB782A6";
attr = {
coordinates = (
68
);
};
layerId = "9ECE8D5B-4B09-4283-8362-A98CF48F57BB";
name = "{68}";
shapes = (
{
closed = 1;
nodes = (
(802,-436,o),
(1057,-305,o),
(1057,23,cs),
(1057,1056,l),
(925,1056,l),
(925,893,l),
(898,893,l),
(934,808,l),
(934,267,l),
(905,185,l),
(928,185,l),
(928,17,ls),
(928,-213,o),
(749,-316,o),
(569,-316,cs),
(446,-316,o),
(322,-269,o),
(250,-212,c),
(199,-331,l),
(280,-388,o),
(431,-436,o),
(573,-436,cs)
);
},
{
closed = 1;
nodes = (
(822,-8,o),
(1026,202,o),
(1026,538,cs),
(1026,873,o),
(829,1072,o),
(569,1072,cs),
(302,1072,o),
(94,872,o),
(94,536,cs),
(94,200,o),
(303,-8,o),
(564,-8,cs)
);
},
{
closed = 1;
nodes = (
(376,115,o),
(228,285,o),
(228,536,cs),
(228,781,o),
(367,949,o),
(580,949,cs),
(786,949,o),
(932,790,o),
(932,542,cs),
(932,292,o),
(786,115,o),
(580,115,cs)
);
}
);
width = 1206;
},
{
anchors = (
{
name = bottom;
pos = (606,-420);
},
{
name = top;
pos = (590,1071);
}
);
associatedMasterId = "FD1CEFBD-BAB1-4C2A-A598-30E93F9A29F6";
attr = {
coordinates = (
140
);
};
layerId = "E35C2E2E-A60A-457F-8E64-1A48FB35AA93";
name = "22. Nov 23 at 12:02";
shapes = (
{
closed = 1;
nodes = (
(874,-436,o),
(1116,-275,o),
(1116,54,cs),
(1116,1072,l),
(859,1072,l),
(859,963,l),
(795,963,l),
(864,851,l),
(864,250,l),
(820,148,l),
(853,148,l),
(853,38,ls),
(853,-136,o),
(670,-201,o),
(535,-201,cs),
(427,-201,o),
(313,-160,o),
(246,-114,c),
(153,-337,l),
(237,-383,o),
(391,-436,o),
(564,-436,cs)
);
},
{
closed = 1;
nodes = (
(808,13,o),
(1005,261,o),
(1005,563,cs),
(1005,854,o),
(822,1088,o),
(546,1088,cs),
(300,1088,o),
(59,899,o),
(59,549,cs),
(59,199,o),
(299,13,o),
(536,13,cs)
);
},
{
closed = 1;
nodes = (
(442,243,o),
(332,376,o),
(332,556,cs),
(332,737,o),
(444,859,o),
(601,859,cs),
(753,859,o),
(863,741,o),
(863,556,cs),
(863,372,o),
(751,243,o),
(598,243,cs)
);
}
);
width = 1226;
}
);
unicode = 103;
},
{
color = 3;
glyphname = g.ss01;
kernLeft = LAT_G_LC;
kernRight = LAT_G_LC;
lastChange = "2023-11-23 10:10:50 +0000";
layers = (
{
anchors = (
{
name = bottom;
pos = (644,-420);
},
{
name = top;
pos = (638,1048);
}
);
layerId = "AB099EFE-E788-4EFC-8633-CF147CB782A6";
shapes = (
{
closed = 1;
nodes = (
(832,-436,o),
(1106,-318,o),
(1106,8,cs),
(1106,1048,l),
(1046,1048,l),
(1046,810,l),
(1030,810,l),
(1050,740,l),
(1050,318,l),
(1034,248,l),
(1046,248,l),
(1046,4,ls),
(1046,-274,o),
(812,-382,o),
(628,-380,cs),
(500,-378,o),
(348,-334,o),
(272,-266,c),
(248,-326,l),
(326,-388,o),
(498,-436,o),
(628,-436,cs)
);
},
{
pos = (1282,0);
ref = _part.bowl.ss01;
scale = (-1,1);
}
);
width = 1278;
},
{
anchors = (
{
name = bottom;
pos = (648,-420);
},
{
name = top;
pos = (626,1080);
}
);
layerId = "2D8F7115-C311-411E-929D-56333CF7FFB2";
shapes = (
{
closed = 1;
nodes = (
(942,-436,o),
(1184,-256,o),
(1184,70,cs),
(1184,1080,l),
(848,1080,l),
(848,976,l),
(802,976,l),
(848,854,l),
(848,212,l),
(790,160,l),
(848,160,l),
(848,50,ls),
(848,-92,o),
(668,-142,o),
(544,-142,cs),
(442,-142,o),
(332,-110,o),
(250,-64,c),
(136,-338,l),
(222,-384,o),
(374,-436,o),
(574,-436,cs)
);
},
{
pos = (1310,46);
ref = _part.bowl.ss01;
scale = (-1,0.9597);
}
);
width = 1274;
},
{
anchors = (
{
name = bottom;
pos = (650,-420);
},
{
name = top;
pos = (636,1060);
}
);
layerId = "FD1CEFBD-BAB1-4C2A-A598-30E93F9A29F6";
shapes = (
{
closed = 1;
nodes = (
(884,-434,o),
(1132,-284,o),
(1132,32,cs),
(1132,1060,l),
(960,1060,l),
(960,914,l),
(936,914,l),
(972,828,l),
(972,262,l),
(940,168,l),
(960,168,l),
(960,24,ls),
(960,-202,o),
(756,-278,o),
(596,-278,cs),
(466,-278,o),
(342,-234,o),
(256,-168,c),
(190,-320,l),
(282,-386,o),
(444,-434,o),
(600,-434,cs)
);
},
{
alignment = -1;
pos = (1284,20);
ref = _part.bowl.ss01;
scale = (-1,0.9848);
}
);
width = 1268;
}
);
metricLeft = g;
metricRight = g;
},
{
color = 6;
glyphname = g.ss03;
kernLeft = LAT_GSS03_LC;
kernRight = LAT_GSS03_LC;
lastChange = "2023-11-23 10:10:50 +0000";
layers = (
{
anchors = (
{
name = bottom;
pos = (570,-438);
},
{
name = top;
pos = (544,1048);
}
);
layerId = "AB099EFE-E788-4EFC-8633-CF147CB782A6";
shapes = (
{
closed = 1;
nodes = (
(832,-438,o),
(1048,-298,o),
(1048,-106,cs),
(1048,34,o),
(930,126,o),
(734,126,cs),
(452,126,ls),
(316,126,o),
(216,200,o),
(216,312,cs),
(216,374,o),
(248,414,o),
(276,438,c),
(236,484,l),
(202,452,o),
(160,392,o),
(160,316,cs),
(160,198,o),
(254,70,o),
(452,70,cs),
(750,70,ls),
(902,70,o),
(988,0,o),
(988,-106,cs),
(988,-258,o),
(816,-382,o),
(558,-382,cs),
(326,-382,o),
(174,-284,o),
(174,-140,cs),
(174,-34,o),
(260,74,o),
(342,106,c),
(290,144,l),
(194,90,o),
(114,-20,o),
(114,-140,cs),
(114,-316,o),
(292,-438,o),
(552,-438,cs)
);
},
{
closed = 1;
nodes = (
(780,332,o),
(952,480,o),
(952,702,cs),
(952,918,o),
(788,1064,o),
(546,1064,cs),
(308,1064,o),
(140,922,o),
(140,704,cs),
(140,484,o),
(312,332,o),
(548,332,cs)
);
},
{
closed = 1;
nodes = (
(348,388,o),
(200,520,o),
(200,700,cs),
(200,876,o),
(338,1008,o),
(544,1008,cs),
(744,1008,o),
(892,886,o),
(892,700,cs),
(892,504,o),
(728,388,o),
(544,388,cs)
);
},
{
closed = 1;
nodes = (
(916,964,o),
(978,996,o),
(1068,1036,c),
(1036,1094,l),
(954,1056,o),
(894,1016,o),
(828,966,c),
(854,914,l)
);
}
);
width = 1148;
},
{
anchors = (
{
name = bottom;
pos = (566,-438);
},
{
name = top;
pos = (552,1080);
}
);
background = {
shapes = (
{
closed = 1;
nodes = (
(995,-455,o),
(1200,-303,o),
(1200,-82,cs),
(1200,98,o),
(1061,209,o),
(836,208,cs),
(586,208,ls),
(471,209,o),
(381,246,o),
(380,316,cs),
(381,356,o),
(406,385,o),
(434,398,c),
(316,504,l),
(193,446,o),
(147,315,o),
(148,242,cs),
(147,82,o),
(336,-4,o),
(610,-4,cs),
(734,-4,ls),
(819,-4,o),
(872,-37,o),
(872,-82,cs),
(872,-147,o),
(766,-180,o),
(626,-180,cs),
(479,-180,o),
(324,-143,o),
(324,-58,cs),
(324,-8,o),
(369,41,o),
(426,58,c),
(230,126,l),
(131,102,o),
(41,-20,o),
(40,-140,cs),
(41,-319,o),
(246,-455,o),
(610,-454,cs)
);
}
);
};
layerId = "2D8F7115-C311-411E-929D-56333CF7FFB2";
shapes = (
{
closed = 1;
nodes = (
(1008,-438,o),
(1168,-284,o),
(1168,-82,cs),
(1168,120,o),
(1012,234,o),
(786,234,cs),
(536,234,ls),
(426,234,o),
(336,234,o),
(336,300,cs),
(336,344,o),
(374,374,o),
(402,386,c),
(200,472,l),
(160,456,o),
(74,394,o),
(74,282,cs),
(74,124,o),
(222,-4,o),
(496,-4,cs),
(720,-4,ls),
(762,-4,o),
(840,-4,o),
(840,-70,cs),
(840,-152,o),
(728,-164,o),
(592,-164,cs),
(452,-164,o),
(290,-150,o),
(290,-54,cs),
(290,0,o),
(340,52,o),
(394,66,c),
(196,126,l),
(98,102,o),
(8,-20,o),
(8,-148,cs),
(8,-328,o),
(194,-438,o),
(566,-438,cs)
);
},
{
closed = 1;
nodes = (
(828,308,o),
(1024,476,o),
(1024,704,cs),
(1024,938,o),
(820,1098,o),
(550,1098,cs),
(284,1098,o),
(86,942,o),
(86,716,cs),
(86,484,o),
(292,308,o),
(562,308,cs)
);
},
{
closed = 1;
nodes = (
(462,544,o),
(390,614,o),
(390,698,cs),
(390,782,o),
(462,852,o),
(556,852,cs),
(646,852,o),
(720,790,o),
(720,696,cs),
(720,602,o),
(648,544,o),
(560,544,cs)
);
},
{
closed = 1;
nodes = (
(1016,926,o),
(1050,938,o),
(1180,938,c),
(1114,1192,l),
(1012,1164,o),
(926,1130,o),
(766,1008,c),
(914,888,l)
);
}
);
width = 1172;
},
{
anchors = (
{
name = bottom;
pos = (564,-438);
},
{
name = top;
pos = (550,1060);
}
);
layerId = "FD1CEFBD-BAB1-4C2A-A598-30E93F9A29F6";
shapes = (
{
closed = 1;
nodes = (
(892,-438,o),
(1088,-274,o),
(1088,-94,cs),
(1088,58,o),
(966,168,o),
(764,168,cs),
(514,168,ls),
(428,168,o),
(314,194,o),
(314,300,cs),
(314,344,o),
(334,366,o),
(374,394,c),
(260,488,l),
(204,438,o),
(162,374,o),
(162,294,cs),
(162,172,o),
(272,20,o),
(534,20,cs),
(710,20,ls),
(826,20,o),
(916,-8,o),
(916,-96,cs),
(916,-206,o),
(778,-282,o),
(564,-282,cs),
(392,-282,o),
(244,-230,o),
(244,-106,cs),
(244,-16,o),
(322,46,o),
(388,66,c),
(252,140,l),
(150,86,o),
(80,-12,o),
(80,-122,cs),
(80,-312,o),
(278,-438,o),
(564,-438,cs)
);
},
{
closed = 1;
nodes = (
(802,328,o),
(972,488,o),
(972,704,cs),
(972,926,o),
(798,1076,o),
(556,1076,cs),
(314,1076,o),
(134,926,o),
(134,704,cs),
(134,480,o),
(314,328,o),
(556,328,cs)
);
},
{
closed = 1;
nodes = (
(416,476,o),
(306,570,o),
(306,700,cs),
(306,832,o),
(412,928,o),
(558,928,cs),
(686,928,o),
(800,854,o),
(800,704,cs),
(800,570,o),
(704,476,o),
(560,476,cs)
);
},
{
closed = 1;
nodes = (
(948,938,o),
(1006,972,o),
(1104,992,c),
(1030,1142,l),
(944,1106,o),
(862,1062,o),
(768,996,c),
(870,898,l)
);
}
);
width = 1152;
},
{
anchors = (
{
name = bottom;
pos = (566,-438);
},
{
name = top;
pos = (548,1056);
}
);
associatedMasterId = "AB099EFE-E788-4EFC-8633-CF147CB782A6";
attr = {
coordinates = (
68
);
};
layerId = "1D644FD9-DF72-4FDE-AB56-726733E38286";
name = "{68}";
shapes = (
{
closed = 1;
nodes = (
(871,-438,o),
(1074,-283,o),
(1074,-98,cs),
(1074,49,o),
(953,153,o),
(753,153,cs),
(492,153,ls),
(388,153,o),
(279,196,o),
(279,304,cs),
(279,355,o),
(303,383,o),
(339,410,c),
(251,487,l),
(203,443,o),
(161,380,o),
(161,302,cs),
(161,181,o),
(266,38,o),
(505,38,cs),
(724,38,ls),
(853,38,o),
(942,-5,o),
(942,-100,cs),
(942,-225,o),
(792,-318,o),
(562,-318,cs),
(368,-318,o),
(219,-249,o),
(219,-118,cs),
(219,-22,o),
(300,56,o),
(372,80,c),
(266,141,l),
(166,87,o),
(92,-15,o),
(92,-128,cs),
(92,-313,o),
(283,-438,o),
(560,-438,cs)
);
},
{
closed = 1;
nodes = (
(794,329,o),
(965,485,o),
(965,703,cs),
(965,923,o),
(794,1072,o),
(552,1072,cs),
(312,1072,o),
(136,925,o),
(136,704,cs),
(136,481,o),
(313,329,o),
(553,329,cs)
);
},
{
closed = 1;
nodes = (
(392,445,o),
(268,552,o),
(268,700,cs),
(268,848,o),
(386,957,o),
(553,957,cs),
(707,957,o),
(833,865,o),
(833,703,cs),
(833,546,o),
(713,445,o),
(554,445,cs)
);
},
{
closed = 1;
nodes = (
(937,947,o),
(996,981,o),
(1091,1008,c),
(1032,1125,l),
(948,1088,o),
(873,1046,o),
(789,985,c),
(864,904,l)
);
}
);
width = 1150;
},
{
anchors = (
{
name = bottom;
pos = (588,-438);
},
{
name = top;
pos = (557,1072);
}
);
associatedMasterId = "FD1CEFBD-BAB1-4C2A-A598-30E93F9A29F6";
attr = {
coordinates = (
140
);
};
layerId = "4643C376-7A3A-45CB-ADF7-0ACCEEB34FDB";
name = "22. Nov 23 at 12:02";
shapes = (
{
closed = 1;
nodes = (
(948,-438,o),
(1142,-296,o),
(1142,-80,cs),
(1142,122,o),
(972,216,o),
(726,216,cs),
(570,216,ls),
(472,216,o),
(394,214,o),
(394,296,cs),
(394,336,o),
(412,366,o),
(458,394,c),
(264,494,l),
(212,464,o),
(146,394,o),
(146,284,cs),
(146,140,o),
(262,2,o),
(532,2,cs),
(660,2,ls),
(740,2,o),
(878,2,o),
(878,-80,cs),
(878,-158,o),
(758,-210,o),
(590,-210,cs),
(402,-210,o),
(298,-144,o),
(298,-68,cs),
(298,-12,o),
(358,44,o),
(404,50,c),
(226,170,l),
(120,112,o),
(40,4,o),
(40,-116,cs),
(40,-306,o),
(244,-438,o),
(590,-438,cs)
);
},
{
closed = 1;
nodes = (
(856,324,o),
(1040,472,o),
(1040,696,cs),
(1040,924,o),
(846,1088,o),
(572,1088,cs),
(304,1088,o),
(114,930,o),
(114,700,cs),
(114,468,o),
(306,324,o),
(580,324,cs)
);
},
{
closed = 1;
nodes = (
(460,530,o),
(378,598,o),
(378,698,cs),
(378,796,o),
(458,866,o),
(576,866,cs),
(694,866,o),
(776,798,o),
(776,700,cs),
(776,602,o),
(696,530,o),
(576,530,cs)
);
},
{
closed = 1;
nodes = (
(988,928,o),
(1024,950,o),
(1158,960,c),
(1088,1176,l),
(952,1128,o),
(860,1092,o),
(760,1004,c),
(902,892,l)
);
}
);
width = 1178;
}
);
},
{
color = 6;
glyphname = h;
kernLeft = LAT_H_UC;
kernRight = LAT_N_LC;
lastChange = "2023-11-23 10:10:50 +0000";
layers = (
{
anchors = (
{
name = bottom;
pos = (562,0);
},
{
name = center;
pos = (202,1262);
},
{
name = top;
pos = (202,1474);
}
);
layerId = "AB099EFE-E788-4EFC-8633-CF147CB782A6";
shapes = (
{
closed = 1;
nodes = (
(232,0,l),
(232,668,ls),
(232,844,o),
(392,1008,o),
(594,1008,cs),
(766,1008,o),
(892,890,o),
(892,660,cs),
(892,0,l),
(952,0,l),
(952,676,ls),
(952,934,o),
(798,1064,o),
(596,1064,cs),
(418,1064,o),
(268,958,o),
(220,824,c),
(260,858,l),
(232,858,l),
(232,1540,l),
(172,1540,l),
(172,0,l)
);
}
);
width = 1116;
},
{
anchors = (
{
name = bottom;
pos = (600,0);
},
{
name = center;
pos = (266,1298);
},
{
name = top;
pos = (266,1540);
}
);
layerId = "2D8F7115-C311-411E-929D-56333CF7FFB2";
shapes = (
{
closed = 1;
nodes = (
(446,0,l),
(446,630,ls),
(446,746,o),
(516,806,o),
(606,806,cs),
(696,806,o),
(754,750,o),
(754,634,cs),
(754,0,l),
(1110,0,l),
(1110,712,ls),
(1110,950,o),
(976,1096,o),
(750,1096,cs),
(590,1096,o),
(426,1024,o),
(394,868,c),
(508,988,l),
(446,988,l),
(446,1540,l),
(90,1540,l),
(90,0,l)
);
}
);
width = 1192;
},
{
anchors = (
{
name = bottom;
pos = (574,0);
},
{
name = center;
pos = (228,1274);
},
{
name = top;
pos = (224,1516);
}
);
layerId = "FD1CEFBD-BAB1-4C2A-A598-30E93F9A29F6";
shapes = (
{
closed = 1;
nodes = (
(310,0,l),
(310,644,ls),
(310,824,o),
(432,916,o),
(584,916,cs),
(736,916,o),
(838,824,o),
(838,644,cs),
(838,0,l),
(1010,0,l),
(1010,680,ls),
(1010,868,o),
(908,1076,o),
(632,1076,cs),
(462,1076,o),
(322,996,o),
(272,860,c),
(350,938,l),
(310,938,l),
(310,1540,l),
(138,1540,l),
(138,0,l)
);
}
);
width = 1142;
}
);
metricRight = n;
unicode = 104;
},
{
color = 6;
glyphname = idotless;
lastChange = "2023-11-23 10:10:50 +0000";
layers = (
{
anchors = (
{
name = bottom;
pos = (210,0);
},
{
name = ogonek;
pos = (240,0);
},
{
name = top;
pos = (210,1048);
}
);
layerId = "AB099EFE-E788-4EFC-8633-CF147CB782A6";
shapes = (
{
closed = 1;
nodes = (
(240,0,l),
(240,1048,l),
(180,1048,l),
(180,0,l)
);
}
);
width = 416;
},
{
anchors = (
{
name = bottom;
pos = (274,0);
},
{
name = ogonek;
pos = (450,0);
},
{
name = top;
pos = (272,1080);
}
);
layerId = "2D8F7115-C311-411E-929D-56333CF7FFB2";
shapes = (
{
closed = 1;
nodes = (
(450,0,l),
(450,1080,l),
(94,1080,l),
(94,0,l)
);
}
);
width = 544;
},
{
anchors = (
{
name = bottom;
pos = (232,0);
},
{
name = ogonek;
pos = (318,0);
},
{
name = top;
pos = (232,1060);
}
);
layerId = "FD1CEFBD-BAB1-4C2A-A598-30E93F9A29F6";
shapes = (
{
closed = 1;
nodes = (
(318,0,l),
(318,1060,l),
(146,1060,l),
(146,0,l)
);
}
);
width = 462;
}
);
unicode = 305;
},
{
color = 6;
glyphname = idotless.ss02;
kernRight = LAT_A_LC;
lastChange = "2023-11-23 10:10:50 +0000";
layers = (
{
anchors = (
{
name = bottom;
pos = (300,0);
},
{
name = center;
pos = (216,570);
},
{
name = ogonek;
pos = (338,-16);
},
{
name = top;
pos = (216,1048);
}
);
background = {
anchors = (
{
name = bottom;
pos = (300,0);
},
{
name = center;
pos = (218,570);
},
{
name = ogonek;
pos = (438,12);
},
{
name = top;
pos = (218,1048);
}
);
shapes = (
{
closed = 1;
nodes = (
(375,-8,o),
(418,0,o),
(438,12,c),
(438,74,l),
(410,59,o),
(371,49,o),
(336,50,cs),
(248,49,o),
(246,119,o),
(246,208,cs),
(246,1048,l),
(184,1048,l),
(184,222,ls),
(184,111,o),
(184,-8,o),
(340,-8,cs)
);
}
);
};
layerId = "AB099EFE-E788-4EFC-8633-CF147CB782A6";
shapes = (
{
closed = 1;
nodes = (
(362,38,l),
(294,68,o),
(244,112,o),
(244,198,cs),
(244,1048,l),
(184,1048,l),
(184,236,ls),
(184,116,o),
(218,38,o),
(338,-16,c)
);
}
);
width = 494;
},
{
anchors = (
{
name = bottom;
pos = (328,0);
},
{
name = center;
pos = (304,570);
},
{
name = ogonek;
pos = (492,-16);
},
{
name = top;
pos = (304,1080);
}
);
background = {
anchors = (
{
name = bottom;
pos = (336,0);
},
{
name = center;
pos = (312,570);
},
{
name = ogonek;
pos = (598,8);
},
{
name = top;
pos = (312,1080);
}
);
shapes = (
{
closed = 1;
nodes = (
(483,-16,o),
(551,-10,o),
(598,8,c),
(598,286,l),
(571,281,o),
(559,279,o),
(544,278,cs),
(487,279,o),
(483,319,o),
(484,376,cs),
(484,1082,l),
(126,1082,l),
(126,278,ls),
(127,111,o),
(238,-16,o),
(430,-16,cs)
);
}
);
};
layerId = "2D8F7115-C311-411E-929D-56333CF7FFB2";
shapes = (
{
closed = 1;
nodes = (
(614,278,l),
(530,298,o),
(476,348,o),
(476,462,cs),
(476,1082,l),
(118,1082,l),
(118,446,ls),
(118,172,o),
(228,-4,o),
(492,-16,c)
);
}
);
width = 660;
},
{
anchors = (
{
name = bottom;
pos = (328,0);
},
{
name = center;
pos = (254,570);
},
{
name = ogonek;
pos = (414,-16);
},
{
name = top;
pos = (254,1060);
}
);
layerId = "FD1CEFBD-BAB1-4C2A-A598-30E93F9A29F6";
shapes = (
{
closed = 1;
nodes = (
(442,144,l),
(390,156,o),
(332,194,o),
(332,278,cs),
(332,1060,l),
(156,1060,l),
(156,312,ls),
(156,132,o),
(226,8,o),
(414,-16,c)
);
}
);
width = 566;
}
);
},
{
color = 6;
glyphname = jdotless;
kernLeft = LAT_J_LC;
kernRight = LAT_J_LC;
lastChange = "2023-11-23 10:10:50 +0000";
layers = (
{
anchors = (
{
name = center;
pos = (256,570);
},
{
name = top;
pos = (256,1048);
}
);
layerId = "AB099EFE-E788-4EFC-8633-CF147CB782A6";
shapes = (
{
closed = 1;
nodes = (
(208,-436,o),
(286,-306,o),
(286,-138,cs),
(286,1048,l),
(226,1048,l),
(226,-154,ls),
(226,-272,o),
(168,-380,o),
(28,-380,cs),
(6,-380,o),
(-20,-378,o),
(-46,-368,c),
(-46,-428,l),
(-18,-434,o),
(8,-436,o),
(32,-436,cs)
);
}
);
width = 460;
},
{
anchors = (
{
name = center;
pos = (312,570);
},
{
name = top;
pos = (308,1080);
}
);
layerId = "2D8F7115-C311-411E-929D-56333CF7FFB2";
shapes = (
{
closed = 1;
nodes = (
(356,-444,o),
(488,-260,o),
(488,-10,cs),
(488,1080,l),
(132,1080,l),
(132,-34,ls),
(132,-88,o),
(102,-130,o),
(20,-130,cs),
(-8,-130,o),
(-48,-126,o),
(-78,-112,c),
(-78,-428,l),
(-30,-438,o),
(30,-444,o),
(78,-444,cs)
);
}
);
width = 582;
},
{
anchors = (
{
name = center;
pos = (280,570);
},
{
name = top;
pos = (280,1060);
}
);
layerId = "FD1CEFBD-BAB1-4C2A-A598-30E93F9A29F6";
shapes = (
{
closed = 1;
nodes = (
(272,-436,o),
(366,-302,o),
(366,-124,cs),
(366,1060,l),
(194,1060,l),
(194,-108,ls),
(194,-216,o),
(142,-272,o),
(44,-272,cs),
(18,-272,o),
(-18,-268,o),
(-48,-260,c),
(-48,-424,l),
(-14,-432,o),
(18,-436,o),
(56,-436,cs)
);
}
);
width = 516;
}
);
unicode = 567;
},
{
color = 6;
glyphname = k;
kernLeft = LAT_H_UC;
kernRight = LAT_K_LC;
lastChange = "2023-11-23 10:10:50 +0000";
layers = (
{
anchors = (
{
name = bottom;
pos = (522,0);
},
{
name = top;
pos = (198,1540);
}
);
layerId = "AB099EFE-E788-4EFC-8633-CF147CB782A6";
shapes = (
{
closed = 1;
nodes = (
(232,0,l),
(232,504,l),
(318,504,l),
(268,528,l),
(824,0,l),
(912,0,l),
(328,552,l),
(328,516,l),
(872,1048,l),
(786,1048,l),
(268,540,l),
(318,566,l),
(232,566,l),
(232,1540,l),
(172,1540,l),
(172,0,l)
);
}
);
width = 976;
},
{
anchors = (
{
name = bottom;
pos = (614,0);
},
{
name = top;
pos = (270,1540);
}
);
layerId = "2D8F7115-C311-411E-929D-56333CF7FFB2";
shapes = (
{
closed = 1;
nodes = (
(446,0,l),
(446,454,l),
(532,454,l),
(422,508,l),
(806,0,l),
(1220,0,l),
(684,668,l),
(684,462,l),
(1200,1082,l),
(786,1082,l),
(426,606,l),
(532,660,l),
(446,660,l),
(446,1540,l),
(90,1540,l),
(90,0,l)
);
}
);
width = 1204;
},
{
anchors = (
{
name = bottom;
pos = (550,0);
},
{
name = top;
pos = (224,1516);
}
);
layerId = "FD1CEFBD-BAB1-4C2A-A598-30E93F9A29F6";
shapes = (
{
closed = 1;
nodes = (
(310,0,l),
(310,480,l),
(396,480,l),
(318,528,l),
(810,0,l),
(1034,0,l),
(474,602,l),
(474,508,l),
(1002,1060,l),
(776,1060,l),
(318,582,l),
(396,626,l),
(310,626,l),
(310,1540,l),
(138,1540,l),
(138,0,l)
);
}
);
width = 1066;
}
);
metricLeft = h;
unicode = 107;
},
{
color = 6;
glyphname = kgreenlandic;
kernLeft = LAT_N_LC;
kernRight = LAT_K_LC;
lastChange = "2023-11-23 10:10:50 +0000";
layers = (
{
anchors = (
{
name = bottom;
pos = (494,0);
},
{
name = top;
pos = (494,1048);
}
);
layerId = "AB099EFE-E788-4EFC-8633-CF147CB782A6";
shapes = (
{
closed = 1;
nodes = (
(232,0,l),
(232,504,l),
(314,504,l),
(264,528,l),
(820,0,l),
(908,0,l),
(324,552,l),
(324,516,l),
(868,1048,l),
(782,1048,l),
(264,540,l),
(314,566,l),
(232,566,l),
(232,1048,l),
(172,1048,l),
(172,0,l)
);
}
);
width = 972;
},
{
anchors = (
{
name = bottom;
pos = (594,0);
},
{
name = top;
pos = (594,1080);
}
);
layerId = "2D8F7115-C311-411E-929D-56333CF7FFB2";
shapes = (
{
closed = 1;
nodes = (
(446,0,l),
(446,454,l),
(520,454,l),
(410,508,l),
(794,0,l),
(1208,0,l),
(672,668,l),
(672,462,l),
(1188,1080,l),
(766,1080,l),
(410,606,l),
(520,660,l),
(446,660,l),
(446,1080,l),
(90,1080,l),
(90,0,l)
);
}
);
width = 1192;
},
{
anchors = (
{
name = bottom;
pos = (526,0);
},
{
name = top;
pos = (526,1060);
}
);
layerId = "FD1CEFBD-BAB1-4C2A-A598-30E93F9A29F6";
shapes = (
{
closed = 1;
nodes = (
(310,0,l),
(310,458,l),
(396,458,l),
(318,508,l),
(810,0,l),
(1034,0,l),
(474,582,l),
(474,488,l),
(1002,1060,l),
(776,1060,l),
(318,562,l),
(396,606,l),
(310,606,l),
(310,1060,l),
(138,1060,l),
(138,0,l)
);
}
);
width = 1066;
}
);
metricLeft = n;
metricRight = k;
unicode = 312;
},
{
color = 6;
glyphname = l;
kernLeft = LAT_L_LC;
kernRight = LAT_L_LC;
lastChange = "2023-11-23 10:10:50 +0000";
layers = (
{
anchors = (
{
name = bottom;
pos = (278,0);
},
{
name = center;
pos = (206,738);
},
{
name = dot;
pos = (478,738);
},
{
name = top;
pos = (206,1540);
},
{
name = topright;
pos = (240,1540);
}
);
layerId = "AB099EFE-E788-4EFC-8633-CF147CB782A6";
shapes = (
{
closed = 1;
nodes = (
(334,-8,o),
(364,-4,o),
(384,4,c),
(384,64,l),
(372,56,o),
(342,48,o),
(314,48,cs),
(236,48,o),
(236,112,o),
(236,174,cs),
(236,1540,l),
(176,1540,l),
(176,174,ls),
(176,50,o),
(210,-8,o),
(310,-8,cs)
);
}
);
width = 448;
},
{
anchors = (
{
name = bottom;
pos = (328,0);
},
{
name = center;
pos = (270,786);
},
{
name = dot;
pos = (790,754);
},
{
name = top;
pos = (270,1540);
},
{
name = topright;
pos = (450,1540);
}
);
layerId = "2D8F7115-C311-411E-929D-56333CF7FFB2";
shapes = (
{
closed = 1;
nodes = (
(456,-16,o),
(516,-4,o),
(562,12,c),
(562,286,l),
(554,283,o),
(540,278,o),
(518,278,cs),
(472,278,o),
(450,302,o),
(450,356,cs),
(450,1540,l),
(94,1540,l),
(94,294,ls),
(94,132,o),
(198,-16,o),
(398,-16,cs)
);
}
);
width = 594;
},
{
anchors = (
{
name = bottom;
pos = (294,0);
},
{
name = center;
pos = (236,774);
},
{
name = dot;
pos = (596,746);
},
{
name = top;
pos = (232,1540);
},
{
name = topright;
pos = (318,1540);
}
);
layerId = "FD1CEFBD-BAB1-4C2A-A598-30E93F9A29F6";
shapes = (
{
closed = 1;
nodes = (
(388,-16,o),
(420,-12,o),
(440,-4,c),
(440,152,l),
(424,148,o),
(408,144,o),
(392,144,cs),
(314,144,o),
(314,210,o),
(314,250,cs),
(314,1540,l),
(142,1540,l),
(142,254,ls),
(142,82,o),
(208,-16,o),
(358,-16,cs)
);
}
);
width = 504;
}
);
metricLeft = "=h+4";
unicode = 108;
},
{
color = 6;
glyphname = l.ss01;
kernLeft = LAT_H_UC;
kernRight = LAT_H_UC;
lastChange = "2023-11-23 10:10:50 +0000";
layers = (
{
anchors = (
{
name = bottom;
pos = (224,0);
},
{
name = center;
pos = (220,738);
},
{
name = dot;
pos = (474,738);
},
{
name = top;
pos = (220,1540);
},
{
name = topright;
pos = (252,1540);
}
);
layerId = "AB099EFE-E788-4EFC-8633-CF147CB782A6";
shapes = (
{
closed = 1;
nodes = (
(252,0,l),
(252,1540,l),
(192,1540,l),
(192,0,l)
);
}
);
width = 444;
},
{
anchors = (
{
name = bottom;
pos = (290,0);
},
{
name = center;
pos = (290,786);
},
{
name = dot;
pos = (786,754);
},
{
name = top;
pos = (290,1540);
},
{
name = topright;
pos = (466,1540);
}
);
layerId = "2D8F7115-C311-411E-929D-56333CF7FFB2";
shapes = (
{
closed = 1;
nodes = (
(466,0,l),
(466,1540,l),
(110,1540,l),
(110,0,l)
);
}
);
width = 578;
},
{
anchors = (
{
name = bottom;
pos = (240,0);
},
{
name = center;
pos = (240,758);
},
{
name = dot;
pos = (584,746);
},
{
name = top;
pos = (240,1540);
},
{
name = topright;
pos = (326,1540);
}
);
layerId = "FD1CEFBD-BAB1-4C2A-A598-30E93F9A29F6";
shapes = (
{
closed = 1;
nodes = (
(326,0,l),
(326,1540,l),
(154,1540,l),
(154,0,l)
);
}
);
width = 480;
}
);
},
{
color = 6;
glyphname = m;
kernLeft = LAT_N_LC;
kernRight = LAT_N_LC;
lastChange = "2023-11-23 10:10:50 +0000";
layers = (
{
anchors = (
{
name = bottom;
pos = (834,0);
},
{
name = leghookleft;
pos = (1470,0);
},
{
name = top;
pos = (838,1048);
}
);
background = {
shapes = (
{
closed = 1;
nodes = (
(234,0,l),
(234,652,ls),
(233,815,o),
(360,1008,o),
(558,1008,cs),
(680,1008,o),
(811,930,o),
(812,680,cs),
(812,0,l),
(872,0,l),
(872,676,ls),
(872,819,o),
(995,1008,o),
(1192,1008,cs),
(1323,1008,o),
(1442,930,o),
(1442,668,cs),
(1442,0,l),
(1504,0,l),
(1504,688,ls),
(1503,954,o),
(1360,1065,o),
(1188,1064,cs),
(999,1065,o),
(889,934,o),
(852,828,c),
(876,840,l),
(832,840,l),
(860,820,l),
(823,971,o),
(700,1065,o),
(552,1064,cs),
(393,1065,o),
(283,958,o),
(222,824,c),
(246,856,l),
(234,856,l),
(234,1048,l),
(172,1048,l),
(172,0,l)
);
}
);
};
layerId = "AB099EFE-E788-4EFC-8633-CF147CB782A6";
shapes = (
{
closed = 1;
nodes = (
(232,0,l),
(232,684,ls),
(232,882,o),
(360,1008,o),
(526,1008,cs),
(680,1008,o),
(806,902,o),
(806,720,cs),
(806,0,l),
(866,0,l),
(866,720,ls),
(866,902,o),
(1006,1008,o),
(1164,1008,cs),
(1320,1008,o),
(1442,902,o),
(1442,720,cs),
(1442,0,l),
(1502,0,l),
(1502,720,ls),
(1502,926,o),
(1362,1064,o),
(1164,1064,cs),
(1016,1064,o),
(870,984,o),
(822,836,c),
(858,872,l),
(810,872,l),
(846,836,l),
(802,984,o),
(680,1064,o),
(526,1064,cs),
(400,1064,o),
(280,1002,o),
(220,860,c),
(248,898,l),
(232,898,l),
(232,1048,l),
(172,1048,l),
(172,0,l)
);
}
);
width = 1666;
},
{
anchors = (
{
name = bottom;
pos = (892,0);
},
{
name = leghookleft;
pos = (1496,0);
},
{
name = top;
pos = (888,1080);
}
);
layerId = "2D8F7115-C311-411E-929D-56333CF7FFB2";
shapes = (
{
closed = 1;
nodes = (
(446,0,l),
(446,644,ls),
(446,750,o),
(500,806,o),
(582,806,cs),
(664,806,o),
(704,746,o),
(704,644,cs),
(704,0,l),
(1060,0,l),
(1060,644,ls),
(1060,750,o),
(1114,806,o),
(1196,806,cs),
(1278,806,o),
(1318,746,o),
(1318,644,cs),
(1318,0,l),
(1676,0,l),
(1676,684,ls),
(1676,854,o),
(1620,1096,o),
(1324,1096,cs),
(1176,1096,o),
(1044,1034,o),
(962,912,c),
(1008,946,l),
(966,946,l),
(1000,912,l),
(946,1036,o),
(856,1096,o),
(726,1096,cs),
(560,1096,o),
(440,1000,o),
(364,816,c),
(472,940,l),
(426,940,l),
(426,1080,l),
(90,1080,l),
(90,0,l)
);
}
);
width = 1758;
},
{
anchors = (
{
name = bottom;
pos = (854,0);
},
{
name = leghookleft;
pos = (1476,0);
},
{
name = top;
pos = (882,1060);
}
);
layerId = "FD1CEFBD-BAB1-4C2A-A598-30E93F9A29F6";
shapes = (
{
closed = 1;
nodes = (
(310,0,l),
(310,648,ls),
(310,828,o),
(420,916,o),
(546,916,cs),
(678,916,o),
(768,828,o),
(768,656,cs),
(768,0,l),
(940,0,l),
(940,656,ls),
(940,832,o),
(1052,916,o),
(1178,916,cs),
(1310,916,o),
(1398,828,o),
(1398,656,cs),
(1398,0,l),
(1570,0,l),
(1570,692,ls),
(1570,906,o),
(1444,1076,o),
(1206,1076,cs),
(1052,1076,o),
(908,1004,o),
(850,856,c),
(944,926,l),
(834,926,l),
(912,856,l),
(876,984,o),
(760,1076,o),
(600,1076,cs),
(444,1076,o),
(318,988,o),
(268,840,c),
(342,934,l),
(310,934,l),
(310,1060,l),
(138,1060,l),
(138,0,l)
);
}
);
width = 1702;
}
);
metricLeft = n;
metricRight = n;
unicode = 109;
},
{
color = 6;
glyphname = n;
kernLeft = LAT_N_LC;
kernRight = LAT_N_LC;
lastChange = "2023-11-23 10:10:50 +0000";
layers = (
{
anchors = (
{
name = bottom;
pos = (586,0);
},
{
name = leghookleft;
pos = (202,0);
},
{
name = leghookretroflex;
pos = (926,0);
},
{
name = top;
pos = (590,1048);
}
);
layerId = "AB099EFE-E788-4EFC-8633-CF147CB782A6";
shapes = (
{
closed = 1;
nodes = (
(232,0,l),
(232,668,ls),
(232,848,o),
(384,1008,o),
(594,1008,cs),
(776,1008,o),
(892,892,o),
(892,660,cs),
(892,0,l),
(952,0,l),
(952,676,ls),
(952,932,o),
(812,1064,o),
(592,1064,cs),
(402,1064,o),
(268,958,o),
(216,824,c),
(260,868,l),
(232,868,l),
(232,1048,l),
(172,1048,l),
(172,0,l)
);
}
);
width = 1116;
},
{
anchors = (
{
name = bottom;
pos = (594,0);
},
{
name = leghookleft;
pos = (266,0);
},
{
name = leghookretroflex;
pos = (930,0);
},
{
name = top;
pos = (630,1080);
}
);
layerId = "2D8F7115-C311-411E-929D-56333CF7FFB2";
shapes = (
{
closed = 1;
nodes = (
(446,0,l),
(446,628,ls),
(446,744,o),
(516,804,o),
(606,804,cs),
(696,804,o),
(754,748,o),
(754,632,cs),
(754,0,l),
(1110,0,l),
(1110,710,ls),
(1110,948,o),
(972,1096,o),
(770,1096,cs),
(590,1096,o),
(426,998,o),
(390,814,c),
(484,936,l),
(434,936,l),
(434,1080,l),
(90,1080,l),
(90,0,l)
);
}
);
width = 1192;
},
{
anchors = (
{
name = bottom;
pos = (580,0);
},
{
name = leghookleft;
pos = (224,0);
},
{
name = leghookretroflex;
pos = (920,0);
},
{
name = top;
pos = (608,1060);
}
);
layerId = "FD1CEFBD-BAB1-4C2A-A598-30E93F9A29F6";
shapes = (
{
closed = 1;
nodes = (
(310,0,l),
(310,644,ls),
(310,820,o),
(432,916,o),
(588,916,cs),
(744,916,o),
(838,824,o),
(838,644,cs),
(838,0,l),
(1010,0,l),
(1010,680,ls),
(1010,872,o),
(904,1076,o),
(636,1076,cs),
(470,1076,o),
(330,1000,o),
(276,856,c),
(350,930,l),
(310,930,l),
(310,1060,l),
(138,1060,l),
(138,0,l)
);
}
);
width = 1142;
},
{
anchors = (
{
name = bottom;
pos = (582,0);
},
{
name = leghookleft;
pos = (216,0);
},
{
name = leghookretroflex;
pos = (922,0);
},
{
name = top;
pos = (602,1056);
}
);
associatedMasterId = "AB099EFE-E788-4EFC-8633-CF147CB782A6";
attr = {
coordinates = (
68
);
};
layerId = "2A26B15B-8E93-40C6-9200-4FBF3FEEC381";
name = "{68}";
shapes = (
{
closed = 1;
nodes = (
(282,0,l),
(282,653,ls),
(282,830,o),
(415,949,o),
(590,949,cs),
(755,949,o),
(857,848,o),
(857,650,cs),
(857,0,l),
(989,0,l),
(989,679,ls),
(989,893,o),
(871,1072,o),
(620,1072,cs),
(446,1072,o),
(308,985,o),
(255,845,c),
(318,908,l),
(282,908,l),
(282,1056,l),
(150,1056,l),
(150,0,l)
);
}
);
width = 1132;
},
{
anchors = (
{
name = bottom;
pos = (588,0);
},
{
name = leghookleft;
pos = (248,0);
},
{
name = leghookretroflex;
pos = (926,0);
},
{
name = top;
pos = (620,1071);
}
);
associatedMasterId = "FD1CEFBD-BAB1-4C2A-A598-30E93F9A29F6";
attr = {
coordinates = (
140
);
};
layerId = "E8D5D6AE-030A-49B2-A89D-326A83E77298";
name = "22. Nov 23 at 12:02";
shapes = (
{
closed = 1;
nodes = (
(388,0,l),
(388,636,ls),
(388,777,o),
(479,854,o),
(598,854,cs),
(717,854,o),
(792,781,o),
(792,638,cs),
(792,0,l),
(1068,0,l),
(1068,698,ls),
(1068,915,o),
(942,1088,o),
(712,1088,cs),
(538,1088,o),
(384,999,o),
(340,832,c),
(426,934,l),
(380,934,l),
(380,1072,l),
(112,1072,l),
(112,0,l)
);
}
);
width = 1170;
}
);
unicode = 110;
},
{
color = 6;
glyphname = o;
kernLeft = LAT_O_LC;
kernRight = LAT_O_LC;
lastChange = "2023-11-23 10:10:50 +0000";
layers = (
{
anchors = (
{
name = bottom;
pos = (624,0);
},
{
name = center;
pos = (624,524);
},
{
name = horn;
pos = (854,1012);
},
{
name = ogonek;
pos = (756,0);
},
{
name = top;
pos = (624,1048);
},
{
name = topright;
pos = (1214,1048);
}
);
layerId = "AB099EFE-E788-4EFC-8633-CF147CB782A6";
shapes = (
{
closed = 1;
nodes = (
(922,-16,o),
(1132,218,o),
(1132,524,cs),
(1132,840,o),
(922,1064,o),
(624,1064,cs),
(326,1064,o),
(116,840,o),
(116,524,cs),
(116,218,o),
(326,-16,o),
(624,-16,cs)
);
},
{
closed = 1;
nodes = (
(370,40,o),
(176,242,o),
(176,524,cs),
(176,812,o),
(370,1008,o),
(624,1008,cs),
(888,1008,o),
(1072,812,o),
(1072,524,cs),
(1072,242,o),
(888,40,o),
(624,40,cs)
);
}
);
width = 1248;
},
{
anchors = (
{
name = bottom;
pos = (614,0);
},
{
name = center;
pos = (614,540);
},
{
name = horn;
pos = (922,1016);
},
{
name = ogonek;
pos = (758,0);
},
{
name = top;
pos = (614,1080);
},
{
name = topright;
pos = (1192,1080);
}
);
layerId = "2D8F7115-C311-411E-929D-56333CF7FFB2";
shapes = (
{
closed = 1;
nodes = (
(934,-16,o),
(1188,214,o),
(1188,540,cs),
(1188,868,o),
(934,1096,o),
(614,1096,cs),
(300,1096,o),
(40,868,o),
(40,540,cs),
(40,214,o),
(300,-16,o),
(614,-16,cs)
);
},
{
closed = 1;
nodes = (
(482,284,o),
(376,388,o),
(376,540,cs),
(376,690,o),
(480,796,o),
(616,796,cs),
(756,796,o),
(852,686,o),
(852,540,cs),
(852,388,o),
(748,284,o),
(614,284,cs)
);
}
);
width = 1228;
},
{
anchors = (
{
name = bottom;
pos = (596,0);
},
{
name = center;
pos = (596,530);
},
{
name = horn;
pos = (846,1016);
},
{
name = ogonek;
pos = (732,0);
},
{
name = top;
pos = (596,1060);
},
{
name = topright;
pos = (1166,1060);
}
);
layerId = "FD1CEFBD-BAB1-4C2A-A598-30E93F9A29F6";
shapes = (
{
closed = 1;
nodes = (
(892,-16,o),
(1112,210,o),
(1112,536,cs),
(1112,856,o),
(896,1076,o),
(596,1076,cs),
(298,1076,o),
(80,856,o),
(80,536,cs),
(80,210,o),
(298,-16,o),
(596,-16,cs)
);
},
{
closed = 1;
nodes = (
(396,144,o),
(256,300,o),
(256,536,cs),
(256,766,o),
(400,916,o),
(596,916,cs),
(794,916,o),
(936,766,o),
(936,536,cs),
(936,300,o),
(794,144,o),
(596,144,cs)
);
}
);
width = 1192;
}
);
unicode = 111;
},
{
color = 6;
glyphname = o.ss01;
kernLeft = LAT_O_LC;
kernRight = LAT_O_LC;
lastChange = "2023-11-23 10:10:50 +0000";
layers = (
{
anchors = (
{
name = bottom;
pos = (626,0);
},
{
name = center;
pos = (626,524);
},
{
name = horn;
pos = (854,1012);
},
{
name = ogonek;
pos = (734,0);
},
{
name = top;
pos = (626,1048);
},
{
name = topright;
pos = (1232,1048);
}
);
layerId = "AB099EFE-E788-4EFC-8633-CF147CB782A6";
shapes = (
{
closed = 1;
nodes = (
(916,-16,o),
(1156,226,o),
(1156,528,cs),
(1156,828,o),
(916,1064,o),
(626,1064,cs),
(336,1064,o),
(98,826,o),
(98,528,cs),
(98,226,o),
(336,-16,o),
(626,-16,cs)
);
},
{
closed = 1;
nodes = (
(368,38,o),
(158,262,o),
(158,528,cs),
(158,796,o),
(368,1008,o),
(626,1008,cs),
(886,1008,o),
(1096,796,o),
(1096,528,cs),
(1096,258,o),
(886,38,o),
(626,38,cs)
);
}
);
width = 1254;
},
{
anchors = (
{
name = bottom;
pos = (598,0);
},
{
name = center;
pos = (598,540);
},
{
name = horn;
pos = (896,1016);
},
{
name = ogonek;
pos = (720,0);
},
{
name = top;
pos = (602,1080);
},
{
name = topright;
pos = (1204,1080);
}
);
layerId = "2D8F7115-C311-411E-929D-56333CF7FFB2";
shapes = (
{
closed = 1;
nodes = (
(918,-16,o),
(1172,230,o),
(1172,540,cs),
(1172,850,o),
(918,1096,o),
(598,1096,cs),
(280,1096,o),
(24,850,o),
(24,540,cs),
(24,230,o),
(280,-16,o),
(598,-16,cs)
);
},
{
closed = 1;
nodes = (
(466,284,o),
(360,400,o),
(360,542,cs),
(360,682,o),
(466,796,o),
(598,796,cs),
(730,796,o),
(836,682,o),
(836,540,cs),
(836,402,o),
(734,284,o),
(598,284,cs)
);
}
);
width = 1196;
},
{
anchors = (
{
name = bottom;
pos = (614,0);
},
{
name = center;
pos = (614,532);
},
{
name = horn;
pos = (864,1016);
},
{
name = ogonek;
pos = (726,0);
},
{
name = top;
pos = (614,1060);
},
{
name = topright;
pos = (1220,1060);
}
);
layerId = "FD1CEFBD-BAB1-4C2A-A598-30E93F9A29F6";
shapes = (
{
closed = 1;
nodes = (
(914,-16,o),
(1160,230,o),
(1160,536,cs),
(1160,840,o),
(914,1076,o),
(614,1076,cs),
(308,1076,o),
(70,840,o),
(70,536,cs),
(70,230,o),
(308,-16,o),
(614,-16,cs)
);
},
{
closed = 1;
nodes = (
(402,144,o),
(242,320,o),
(242,536,cs),
(242,750,o),
(402,916,o),
(614,916,cs),
(820,916,o),
(988,754,o),
(988,540,cs),
(988,320,o),
(820,144,o),
(614,144,cs)
);
}
);
width = 1230;
}
);
},
{
color = 6;
glyphname = oe;
kernLeft = LAT_O_LC;
kernRight = LAT_E_LC;
lastChange = "2023-11-23 10:10:50 +0000";
layers = (
{
anchors = (
{
name = top;
pos = (1016,1048);
}
);
layerId = "AB099EFE-E788-4EFC-8633-CF147CB782A6";
shapes = (
{
closed = 1;
nodes = (
(856,-16,o),
(1046,218,o),
(1046,526,cs),
(1046,828,o),
(862,1064,o),
(590,1064,cs),
(312,1064,o),
(116,822,o),
(116,524,cs),
(116,218,o),
(322,-16,o),
(592,-16,cs)
);
},
{
closed = 1;
nodes = (
(356,40,o),
(176,246,o),
(176,524,cs),
(176,810,o),
(366,1008,o),
(592,1008,cs),
(824,1008,o),
(986,802,o),
(986,526,cs),
(986,250,o),
(822,40,o),
(588,40,cs)
);
},
{
closed = 1;
nodes = (
(1580,-16,o),
(1694,38,o),
(1780,118,c),
(1756,182,l),
(1682,100,o),
(1558,40,o),
(1436,40,cs),
(1230,40,o),
(1046,214,o),
(1050,528,cs),
(1054,788,o),
(1194,1008,o),
(1428,1008,cs),
(1636,1008,o),
(1782,824,o),
(1778,562,c),
(1034,562,l),
(1034,506,l),
(1838,506,l),
(1842,548,o),
(1842,534,o),
(1842,548,cs),
(1842,858,o),
(1678,1064,o),
(1428,1064,cs),
(1156,1064,o),
(990,824,o),
(990,522,cs),
(990,202,o),
(1174,-16,o),
(1444,-16,cs)
);
}
);
width = 1952;
},
{
anchors = (
{
name = top;
pos = (950,1080);
}
);
layerId = "2D8F7115-C311-411E-929D-56333CF7FFB2";
shapes = (
{
closed = 1;
nodes = (
(886,-16,o),
(1094,262,o),
(1094,540,cs),
(1094,816,o),
(886,1096,o),
(570,1096,cs),
(276,1096,o),
(40,852,o),
(40,544,cs),
(40,226,o),
(284,-16,o),
(574,-16,cs)
);
},
{
closed = 1;
nodes = (
(456,274,o),
(368,382,o),
(368,540,cs),
(368,700,o),
(456,802,o),
(588,802,cs),
(714,802,o),
(798,706,o),
(798,542,cs),
(798,378,o),
(714,274,o),
(586,274,cs)
);
},
{
closed = 1;
nodes = (
(1480,-16,o),
(1626,16,o),
(1696,66,c),
(1594,324,l),
(1524,274,o),
(1450,254,o),
(1372,254,cs),
(1258,254,o),
(1078,300,o),
(1078,560,cs),
(1078,782,o),
(1210,848,o),
(1308,848,cs),
(1424,848,o),
(1504,758,o),
(1504,638,c),
(1048,638,l),
(1048,434,l),
(1790,434,l),
(1798,476,o),
(1802,528,o),
(1802,576,cs),
(1802,964,o),
(1538,1096,o),
(1330,1096,cs),
(1054,1096,o),
(816,864,o),
(816,530,cs),
(816,214,o),
(1028,-16,o),
(1358,-16,cs)
);
}
);
width = 1842;
},
{
anchors = (
{
name = top;
pos = (980,1060);
}
);
layerId = "FD1CEFBD-BAB1-4C2A-A598-30E93F9A29F6";
shapes = (
{
closed = 1;
nodes = (
(854,-16,o),
(1054,214,o),
(1054,528,cs),
(1054,856,o),
(836,1076,o),
(568,1076,cs),
(288,1076,o),
(80,840,o),
(80,540,cs),
(80,236,o),
(294,-16,o),
(580,-16,cs)
);
},
{
closed = 1;
nodes = (
(384,144,o),
(248,300,o),
(248,532,cs),
(248,762,o),
(384,916,o),
(576,916,cs),
(764,916,o),
(904,762,o),
(904,524,cs),
(904,296,o),
(776,144,o),
(580,144,cs)
);
},
{
closed = 1;
nodes = (
(1538,-16,o),
(1670,30,o),
(1746,102,c),
(1682,258,l),
(1608,184,o),
(1518,144,o),
(1408,144,cs),
(1194,144,o),
(1062,296,o),
(1062,532,cs),
(1062,766,o),
(1190,916,o),
(1374,916,cs),
(1546,916,o),
(1648,778,o),
(1646,602,c),
(1026,602,l),
(1026,462,l),
(1800,462,l),
(1804,488,o),
(1808,542,o),
(1808,584,cs),
(1808,874,o),
(1624,1076,o),
(1370,1076,cs),
(1112,1076,o),
(916,864,o),
(916,536,cs),
(916,226,o),
(1096,-16,o),
(1402,-16,cs)
);
}
);
width = 1896;
}
);
metricLeft = o;
metricRight = e;
unicode = 339;
},
{
color = 3;
glyphname = p;
kernLeft = LAT_P_LC;
kernRight = LAT_O_LC;
lastChange = "2023-11-23 10:10:50 +0000";
layers = (
{
anchors = (
{
name = bottom;
pos = (202,-420);
},
{
name = top;
pos = (614,1048);
}
);
layerId = "AB099EFE-E788-4EFC-8633-CF147CB782A6";
shapes = (
{
closed = 1;
nodes = (
(232,-420,l),
(232,224,l),
(256,224,l),
(224,330,l),
(224,748,l),
(264,834,l),
(232,834,l),
(232,1048,l),
(172,1048,l),
(172,-420,l)
);
},
{
ref = _part.bowl;
}
);
width = 1206;
},
{
anchors = (
{
name = bottom;
pos = (270,-420);
},
{
name = top;
pos = (638,1080);
}
);
layerId = "2D8F7115-C311-411E-929D-56333CF7FFB2";
shapes = (
{
closed = 1;
nodes = (
(450,-420,l),
(450,90,l),
(504,90,l),
(426,212,l),
(426,862,l),
(476,982,l),
(430,982,l),
(430,1080,l),
(94,1080,l),
(94,-420,l)
);
},
{
ref = _part.bowl;
}
);
width = 1248;
},
{
anchors = (
{
name = bottom;
pos = (232,-420);
},
{
name = top;
pos = (628,1060);
}
);
layerId = "FD1CEFBD-BAB1-4C2A-A598-30E93F9A29F6";
shapes = (
{
closed = 1;
nodes = (
(310,-420,l),
(310,144,l),
(342,144,l),
(280,266,l),
(280,824,l),
(334,922,l),
(310,922,l),
(310,1060,l),
(138,1060,l),
(138,-420,l)
);
},
{
alignment = -1;
ref = _part.bowl;
}
);
width = 1208;
}
);
metricRight = o;
unicode = 112;
},
{
color = 3;
glyphname = p.ss01;
kernLeft = LAT_P_LC;
kernRight = LAT_O_LC;
lastChange = "2023-11-22 11:34:34 +0000";
layers = (
{
anchors = (
{
name = bottom;
pos = (202,-420);
},
{
name = top;
pos = (614,1048);
}
);
layerId = "AB099EFE-E788-4EFC-8633-CF147CB782A6";
shapes = (
{
closed = 1;
nodes = (
(232,-420,l),
(232,244,l),
(244,244,l),
(228,304,l),
(228,778,l),
(252,810,l),
(232,810,l),
(232,1048,l),
(172,1048,l),
(172,-420,l)
);
},
{
pos = (-4,0);
ref = _part.bowl.ss01;
}
);
width = 1276;
},
{
anchors = (
{
name = bottom;
pos = (270,-420);
},
{
name = top;
pos = (638,1080);
}
);
layerId = "2D8F7115-C311-411E-929D-56333CF7FFB2";
shapes = (
{
closed = 1;
nodes = (
(450,-420,l),
(450,106,l),
(476,106,l),
(430,212,l),
(430,866,l),
(476,960,l),
(430,960,l),
(430,1080,l),
(94,1080,l),
(94,-420,l)
);
},
{
pos = (-24,0);
ref = _part.bowl.ss01;
}
);
width = 1286;
},
{
anchors = (
{
name = bottom;
pos = (232,-420);
},
{
name = top;
pos = (632,1060);
}
);
layerId = "FD1CEFBD-BAB1-4C2A-A598-30E93F9A29F6";
shapes = (
{
closed = 1;
nodes = (
(314,-420,l),
(314,148,l),
(338,148,l),
(302,274,l),
(302,836,l),
(330,908,l),
(310,908,l),
(310,1060,l),
(138,1060,l),
(138,-420,l)
);
},
{
alignment = -1;
pos = (-10,0);
ref = _part.bowl.ss01;
}
);
width = 1274;
}
);
metricRight = o;
},
{
color = 3;
glyphname = thorn;
kernLeft = LAT_L_LC;
kernRight = LAT_O_LC;
lastChange = "2023-11-23 10:10:50 +0000";
layers = (
{
anchors = (
{
name = bottom;
pos = (628,-4);
},
{
name = top;
pos = (202,1540);
}
);
layerId = "AB099EFE-E788-4EFC-8633-CF147CB782A6";
shapes = (
{
closed = 1;
nodes = (
(232,-420,l),
(232,224,l),
(260,224,l),
(224,330,l),
(224,750,l),
(256,834,l),
(232,834,l),
(232,1540,l),
(172,1540,l),
(172,-420,l)
);
},
{
ref = _part.bowl;
}
);
width = 1206;
},
{
anchors = (
{
name = bottom;
pos = (724,0);
},
{
name = top;
pos = (262,1540);
}
);
layerId = "2D8F7115-C311-411E-929D-56333CF7FFB2";
shapes = (
{
closed = 1;
nodes = (
(446,-420,l),
(446,96,l),
(500,96,l),
(422,212,l),
(422,868,l),
(472,998,l),
(446,998,l),
(446,1540,l),
(90,1540,l),
(90,-420,l)
);
},
{
ref = _part.bowl;
}
);
width = 1248;
},
{
anchors = (
{
name = bottom;
pos = (662,0);
},
{
name = top;
pos = (224,1516);
}
);
layerId = "FD1CEFBD-BAB1-4C2A-A598-30E93F9A29F6";
shapes = (
{
closed = 1;
nodes = (
(310,-420,l),
(310,144,l),
(338,144,l),
(280,266,l),
(280,782,l),
(334,922,l),
(310,922,l),
(310,1540,l),
(138,1540,l),
(138,-420,l)
);
},
{
alignment = -1;
ref = _part.bowl;
}
);
width = 1208;
}
);
metricLeft = h;
metricRight = p;
unicode = 254;
},
{
color = 3;
glyphname = thorn.ss01;
kernLeft = LAT_L_LC;
kernRight = LAT_O_LC;
lastChange = "2023-11-23 10:10:50 +0000";
layers = (
{
anchors = (
{
name = bottom;
pos = (666,0);
},
{
name = top;
pos = (202,1540);
}
);
layerId = "AB099EFE-E788-4EFC-8633-CF147CB782A6";
shapes = (
{
closed = 1;
nodes = (
(232,-420,l),
(232,244,l),
(244,244,l),
(228,310,l),
(228,764,l),
(244,804,l),
(232,804,l),
(232,1540,l),
(172,1540,l),
(172,-420,l)
);
},
{
pos = (-4,0);
ref = _part.bowl.ss01;
}
);
width = 1276;
},
{
anchors = (
{
name = bottom;
pos = (766,0);
},
{
name = top;
pos = (258,1540);
}
);
layerId = "2D8F7115-C311-411E-929D-56333CF7FFB2";
shapes = (
{
closed = 1;
nodes = (
(446,-420,l),
(446,108,l),
(500,108,l),
(422,224,l),
(422,852,l),
(472,982,l),
(446,982,l),
(446,1540,l),
(90,1540,l),
(90,-420,l)
);
},
{
pos = (-28,0);
ref = _part.bowl.ss01;
}
);
width = 1282;
},
{
anchors = (
{
name = bottom;
pos = (694,0);
},
{
name = top;
pos = (224,1516);
}
);
layerId = "FD1CEFBD-BAB1-4C2A-A598-30E93F9A29F6";
shapes = (
{
closed = 1;
nodes = (
(310,-420,l),
(310,154,l),
(338,154,l),
(288,236,l),
(288,818,l),
(334,908,l),
(310,908,l),
(310,1540,l),
(138,1540,l),
(138,-420,l)
);
},
{
alignment = -1;
pos = (-14,0);
ref = _part.bowl.ss01;
}
);
width = 1270;
}
);
metricLeft = h;
metricRight = p;
},
{
color = 3;
glyphname = q;
kernLeft = LAT_O_LC;
kernRight = LAT_Q_LC;
lastChange = "2023-11-23 10:10:50 +0000";
layers = (
{
anchors = (
{
name = bottom;
pos = (1002,-420);
},
{
name = top;
pos = (572,1048);
}
);
layerId = "AB099EFE-E788-4EFC-8633-CF147CB782A6";
shapes = (
{
closed = 1;
nodes = (
(1124,-382,l),
(1062,-350,o),
(1030,-284,o),
(1030,-190,cs),
(1030,1048,l),
(970,1048,l),
(970,834,l),
(946,834,l),
(978,782,l),
(978,296,l),
(954,224,l),
(970,224,l),
(970,-196,ls),
(970,-324,o),
(1006,-386,o),
(1100,-438,c)
);
},
{
pos = (1206,0);
ref = _part.bowl;
scale = (-1,1);
}
);
width = 1210;
},
{
anchors = (
{
name = bottom;
pos = (976,-420);
},
{
name = top;
pos = (534,1080);
}
);
layerId = "2D8F7115-C311-411E-929D-56333CF7FFB2";
shapes = (
{
closed = 1;
nodes = (
(1240,-148,l),
(1178,-128,o),
(1154,-104,o),
(1154,-28,cs),
(1154,1080,l),
(818,1080,l),
(818,984,l),
(784,984,l),
(818,856,l),
(818,172,l),
(748,92,l),
(796,92,l),
(796,-62,ls),
(796,-242,o),
(906,-360,o),
(1116,-438,c)
);
},
{
pos = (1248,0);
ref = _part.bowl;
scale = (-1,1);
}
);
width = 1256;
},
{
anchors = (
{
name = bottom;
pos = (1002,-420);
},
{
name = top;
pos = (560,1060);
}
);
layerId = "FD1CEFBD-BAB1-4C2A-A598-30E93F9A29F6";
shapes = (
{
closed = 1;
nodes = (
(1158,-286,l),
(1084,-254,o),
(1076,-222,o),
(1076,-98,cs),
(1076,1060,l),
(904,1060,l),
(904,918,l),
(862,918,l),
(924,816,l),
(924,234,l),
(874,144,l),
(904,144,l),
(904,-152,ls),
(904,-296,o),
(962,-382,o),
(1096,-438,c)
);
},
{
alignment = -1;
pos = (1208,0);
ref = _part.bowl;
scale = (-1,1);
}
);
width = 1220;
}
);
metricLeft = o;
unicode = 113;
},
{
color = 6;
glyphname = r;
kernLeft = LAT_N_LC;
kernRight = LAT_R_LC;
lastChange = "2023-11-23 10:10:50 +0000";
layers = (
{
anchors = (
{
name = bottom;
pos = (202,0);
},
{
name = top;
pos = (386,1048);
}
);
layerId = "AB099EFE-E788-4EFC-8633-CF147CB782A6";
shapes = (
{
closed = 1;
nodes = (
(232,0,l),
(232,644,ls),
(232,856,o),
(436,1008,o),
(576,1008,cs),
(600,1008,o),
(616,1004,o),
(642,996,c),
(666,1052,l),
(642,1062,o),
(610,1064,o),
(584,1064,cs),
(442,1064,o),
(294,964,o),
(216,812,c),
(256,852,l),
(232,852,l),
(232,1048,l),
(172,1048,l),
(172,0,l)
);
}
);
width = 698;
},
{
anchors = (
{
name = bottom;
pos = (270,0);
},
{
name = top;
pos = (434,1080);
}
);
layerId = "2D8F7115-C311-411E-929D-56333CF7FFB2";
shapes = (
{
closed = 1;
nodes = (
(446,0,l),
(446,538,ls),
(446,690,o),
(558,752,o),
(652,752,cs),
(696,752,o),
(734,740,o),
(750,732,c),
(892,1072,l),
(872,1084,o),
(824,1096,o),
(766,1096,cs),
(558,1096,o),
(434,944,o),
(390,854,c),
(466,932,l),
(434,932,l),
(434,1080,l),
(90,1080,l),
(90,0,l)
);
}
);
width = 868;
},
{
anchors = (
{
name = bottom;
pos = (224,0);
},
{
name = top;
pos = (400,1060);
}
);
layerId = "FD1CEFBD-BAB1-4C2A-A598-30E93F9A29F6";
shapes = (
{
closed = 1;
nodes = (
(310,0,l),
(310,606,ls),
(310,796,o),
(478,904,o),
(600,904,cs),
(634,904,o),
(666,900,o),
(674,896,c),
(744,1062,l),
(728,1068,o),
(682,1076,o),
(636,1076,cs),
(458,1076,o),
(338,964,o),
(280,832,c),
(338,898,l),
(310,898,l),
(310,1060,l),
(138,1060,l),
(138,0,l)
);
}
);
width = 750;
}
);
metricLeft = n;
unicode = 114;
},
{
color = 6;
glyphname = s;
kernLeft = LAT_S_LC;
kernRight = LAT_S_LC;
lastChange = "2023-11-22 11:34:34 +0000";
layers = (
{
anchors = (
{
name = bottom;
pos = (444,0);
},
{
name = cedilla;
pos = (452,0);
},
{
name = top;
pos = (440,1048);
}
);
layerId = "AB099EFE-E788-4EFC-8633-CF147CB782A6";
shapes = (
{
closed = 1;
nodes = (
(628,-16,o),
(770,96,o),
(770,272,cs),
(770,478,o),
(578,536,o),
(446,578,cs),
(352,608,o),
(210,662,o),
(206,804,cs),
(202,916,o),
(290,1008,o),
(428,1008,cs),
(542,1008,o),
(638,944,o),
(678,862,c),
(734,884,l),
(684,988,o),
(572,1064,o),
(432,1064,cs),
(268,1064,o),
(146,960,o),
(146,814,cs),
(146,638,o),
(326,554,o),
(438,522,cs),
(528,496,o),
(710,442,o),
(710,272,cs),
(710,138,o),
(598,40,o),
(456,40,cs),
(322,40,o),
(218,130,o),
(176,232,c),
(116,208,l),
(162,94,o),
(286,-16,o),
(456,-16,cs)
);
}
);
width = 890;
},
{
anchors = (
{
name = bottom;
pos = (462,0);
},
{
name = cedilla;
pos = (480,0);
},
{
name = top;
pos = (462,1080);
}
);
layerId = "2D8F7115-C311-411E-929D-56333CF7FFB2";
shapes = (
{
closed = 1;
nodes = (
(700,-16,o),
(888,126,o),
(888,334,cs),
(888,556,o),
(672,624,o),
(574,648,cs),
(496,668,o),
(368,692,o),
(368,758,cs),
(368,794,o),
(408,828,o),
(464,828,cs),
(528,828,o),
(574,786,o),
(602,742,c),
(868,860,l),
(804,1012,o),
(636,1096,o),
(452,1096,cs),
(218,1096,o),
(58,958,o),
(58,764,cs),
(58,582,o),
(196,486,o),
(356,438,cs),
(452,410,o),
(578,390,o),
(578,324,cs),
(578,288,o),
(538,254,o),
(476,254,cs),
(382,254,o),
(320,324,o),
(286,376,c),
(16,258,l),
(94,78,o),
(284,-16,o),
(472,-16,cs)
);
}
);
width = 914;
},
{
anchors = (
{
name = bottom;
pos = (436,0);
},
{
name = cedilla;
pos = (448,0);
},
{
name = top;
pos = (432,1060);
}
);
layerId = "FD1CEFBD-BAB1-4C2A-A598-30E93F9A29F6";
shapes = (
{
closed = 1;
nodes = (
(634,-16,o),
(800,116,o),
(800,300,cs),
(800,504,o),
(592,574,o),
(482,610,cs),
(392,640,o),
(268,676,o),
(268,786,cs),
(268,872,o),
(346,920,o),
(432,920,cs),
(526,920,o),
(580,860,o),
(612,798,c),
(768,864,l),
(720,972,o),
(604,1076,o),
(432,1076,cs),
(260,1076,o),
(100,972,o),
(100,786,cs),
(100,598,o),
(264,528,o),
(384,488,cs),
(478,456,o),
(632,414,o),
(632,294,cs),
(632,202,o),
(540,144,o),
(444,144,cs),
(342,144,o),
(256,214,o),
(228,294,c),
(72,230,l),
(114,106,o),
(256,-16,o),
(444,-16,cs)
);
}
);
width = 888;
},
{
anchors = (
{
name = bottom;
pos = (446,0);
},
{
name = cedilla;
pos = (454,0);
},
{
name = top;
pos = (430,1056);
}
);
associatedMasterId = "AB099EFE-E788-4EFC-8633-CF147CB782A6";
attr = {
coordinates = (
68
);
};
layerId = "8797D549-4952-4797-AAAC-1C35E597A21E";
name = "{68}";
shapes = (
{
closed = 1;
nodes = (
(636,-16,o),
(798,110,o),
(798,290,cs),
(798,488,o),
(598,558,o),
(484,594,cs),
(400,622,o),
(254,670,o),
(254,794,cs),
(254,890,o),
(342,948,o),
(436,948,cs),
(524,948,o),
(604,896,o),
(644,802,c),
(762,852,l),
(712,978,o),
(578,1072,o),
(432,1072,cs),
(270,1072,o),
(126,958,o),
(126,794,cs),
(126,622,o),
(288,538,o),
(406,500,cs),
(524,462,o),
(672,414,o),
(672,286,cs),
(672,174,o),
(558,106,o),
(458,106,cs),
(342,106,o),
(250,196,o),
(222,278,c),
(98,226,l),
(140,104,o),
(276,-16,o),
(454,-16,cs)
);
}
);
width = 898;
},
{
anchors = (
{
name = bottom;
pos = (461,0);
},
{
name = cedilla;
pos = (479,0);
},
{
name = top;
pos = (450,1072);
}
);
associatedMasterId = "FD1CEFBD-BAB1-4C2A-A598-30E93F9A29F6";
attr = {
coordinates = (
140
);
};
layerId = "8569C38E-18BB-41C2-AA50-6E652F1477E5";
name = "22. Nov 23 at 12:02";
shapes = (
{
closed = 1;
nodes = (
(684,-16,o),
(864,122,o),
(864,318,cs),
(864,524,o),
(664,592,o),
(550,628,cs),
(420,670,o),
(336,694,o),
(336,772,cs),
(336,832,o),
(388,870,o),
(458,870,cs),
(542,870,o),
(592,812,o),
(616,772,c),
(836,864,l),
(778,990,o),
(630,1088,o),
(448,1088,cs),
(242,1088,o),
(82,962,o),
(82,776,cs),
(82,596,o),
(230,506,o),
(374,462,cs),
(452,438,o),
(612,402,o),
(612,312,cs),
(612,258,o),
(552,206,o),
(472,206,cs),
(384,206,o),
(308,274,o),
(276,346,c),
(50,246,l),
(106,100,o),
(276,-16,o),
(472,-16,cs)
);
}
);
width = 920;
}
);
unicode = 115;
userData = {
com.typemytype.robofont.layerData = {
background = {
anchors = (
);
components = (
);
contours = (
{
points = (
{
segmentType = curve;
smooth = 1;
x = 213;
y = -12;
},
{
smooth = 0;
x = 318;
y = -12;
},
{
smooth = 0;
x = 376;
y = 50;
},
{
segmentType = curve;
smooth = 1;
x = 376;
y = 120;
},
{
smooth = 0;
x = 376;
y = 214;
},
{
smooth = 0;
x = 288;
y = 237;
},
{
segmentType = curve;
smooth = 1;
x = 208;
y = 266;
},
{
smooth = 0;
x = 147;
y = 288;
},
{
smooth = 0;
x = 85;
y = 310;
},
{
segmentType = curve;
smooth = 1;
x = 85;
y = 368;
},
{
smooth = 0;
x = 85;
y = 415;
},
{
smooth = 0;
x = 124;
y = 462;
},
{
segmentType = curve;
smooth = 1;
x = 208;
y = 462;
},
{
smooth = 0;
x = 253;
y = 462;
},
{
smooth = 0;
x = 284;
y = 448;
},
{
segmentType = curve;
smooth = 1;
x = 314;
y = 429;
},
{
smooth = 0;
x = 325;
y = 422;
},
{
smooth = 0;
x = 336;
y = 423;
},
{
segmentType = curve;
smooth = 1;
x = 343;
y = 434;
},
{
segmentType = line;
smooth = 1;
x = 346;
y = 439;
},
{
smooth = 0;
x = 347;
y = 441;
},
{
smooth = 0;
x = 347;
y = 443;
},
{
segmentType = curve;
smooth = 1;
x = 345;
y = 444;
},
{
smooth = 0;
x = 311;
y = 468;
},
{
smooth = 0;
x = 257;
y = 490;
},
{
segmentType = curve;
smooth = 1;
x = 211;
y = 490;
},
{
smooth = 0;
x = 108;
y = 490;
},
{
smooth = 0;
x = 54;
y = 432;
},
{
segmentType = curve;
smooth = 1;
x = 54;
y = 366;
},
{
smooth = 0;
x = 54;
y = 284;
},
{
smooth = 0;
x = 141;
y = 256;
},
{
segmentType = curve;
smooth = 1;
x = 218;
y = 230;
},
{
smooth = 0;
x = 277;
y = 210;
},
{
smooth = 0;
x = 344;
y = 182;
},
{
segmentType = curve;
smooth = 1;
x = 344;
y = 118;
},
{
smooth = 0;
x = 344;
y = 64;
},
{
smooth = 0;
x = 300;
y = 16;
},
{
segmentType = curve;
smooth = 1;
x = 215;
y = 16;
},
{
smooth = 0;
x = 148;
y = 16;
},
{
smooth = 0;
x = 105;
y = 37;
},
{
segmentType = curve;
smooth = 1;
x = 66;
y = 65;
},
{
smooth = 0;
x = 55;
y = 73;
},
{
smooth = 0;
x = 45;
y = 74;
},
{
segmentType = curve;
smooth = 1;
x = 37;
y = 63;
},
{
segmentType = line;
smooth = 1;
x = 33;
y = 57;
},
{
smooth = 0;
x = 32;
y = 55;
},
{
smooth = 0;
x = 32;
y = 53;
},
{
segmentType = curve;
smooth = 1;
x = 34;
y = 51;
},
{
smooth = 0;
x = 73;
y = 12;
},
{
smooth = 0;
x = 139;
y = -12;
}
);
}
);
lib = {
};
name = s;
unicodes = (
);
width = 439;
};
};
};
},
{
color = 6;
glyphname = germandbls;
kernLeft = LAT_L_LC;
kernRight = LAT_GERMANDBLS_LC;
lastChange = "2023-11-23 10:10:50 +0000";
layers = (
{
layerId = "AB099EFE-E788-4EFC-8633-CF147CB782A6";
shapes = (
{
closed = 1;
nodes = (
(850,-16,o),
(1022,196,o),
(1022,418,cs),
(1022,672,o),
(818,864,o),
(542,852,c),
(542,824,l),
(752,812,o),
(912,970,o),
(912,1188,cs),
(912,1410,o),
(752,1556,o),
(538,1556,cs),
(320,1556,o),
(172,1398,o),
(172,1178,cs),
(172,0,l),
(232,0,l),
(232,1190,ls),
(232,1366,o),
(370,1500,o),
(542,1500,cs),
(722,1500,o),
(852,1364,o),
(852,1184,cs),
(852,1004,o),
(716,870,o),
(530,870,cs),
(460,870,l),
(460,814,l),
(490,814,ls),
(758,814,o),
(962,654,o),
(962,418,cs),
(962,220,o),
(812,40,o),
(584,40,cs),
(512,40,o),
(444,56,o),
(404,68,c),
(404,8,l),
(454,-8,o),
(540,-16,o),
(592,-16,cs)
);
}
);
width = 1156;
},
{
layerId = "2D8F7115-C311-411E-929D-56333CF7FFB2";
shapes = (
{
closed = 1;
nodes = (
(1062,-16,o),
(1266,144,o),
(1266,402,cs),
(1266,652,o),
(1070,804,o),
(774,802,c),
(774,746,l),
(934,746,o),
(1138,882,o),
(1138,1126,cs),
(1138,1356,o),
(954,1556,o),
(626,1556,cs),
(312,1556,o),
(90,1372,o),
(90,1056,cs),
(90,0,l),
(446,0,l),
(446,1040,ls),
(446,1172,o),
(532,1262,o),
(648,1262,cs),
(746,1262,o),
(828,1196,o),
(828,1090,cs),
(828,996,o),
(750,926,o),
(644,926,cs),
(586,926,l),
(586,610,l),
(684,610,ls),
(824,610,o),
(914,546,o),
(914,434,cs),
(914,338,o),
(844,278,o),
(730,278,cs),
(694,278,o),
(622,284,o),
(578,294,c),
(578,-12,l),
(632,-16,o),
(710,-16,o),
(738,-16,cs)
);
}
);
width = 1310;
},
{
layerId = "FD1CEFBD-BAB1-4C2A-A598-30E93F9A29F6";
shapes = (
{
closed = 1;
nodes = (
(908,-16,o),
(1112,176,o),
(1112,422,cs),
(1112,676,o),
(892,848,o),
(646,836,c),
(646,786,l),
(842,778,o),
(1002,946,o),
(1002,1168,cs),
(1002,1398,o),
(830,1556,o),
(568,1556,cs),
(306,1556,o),
(138,1390,o),
(138,1114,cs),
(138,0,l),
(310,0,l),
(310,1098,ls),
(310,1262,o),
(400,1396,o),
(572,1396,cs),
(720,1396,o),
(830,1304,o),
(830,1150,cs),
(830,996,o),
(712,884,o),
(576,884,cs),
(510,884,l),
(510,730,l),
(560,730,ls),
(802,730,o),
(936,594,o),
(936,426,cs),
(936,250,o),
(810,144,o),
(604,144,cs),
(568,144,o),
(510,148,o),
(464,156,c),
(464,-4,l),
(510,-12,o),
(564,-16,o),
(608,-16,cs)
);
}
);
width = 1220;
}
);
metricLeft = h;
metricRight = B;
unicode = 223;
},
{
color = 6;
glyphname = t;
kernLeft = LAT_T_LC;
kernRight = LAT_T_LC;
lastChange = "2023-11-23 10:10:50 +0000";
layers = (
{
anchors = (
{
name = bottom;
pos = (464,0);
},
{
name = cedilla;
pos = (486,0);
},
{
name = center;
pos = (298,524);
},
{
name = top;
pos = (298,1414);
},
{
name = topright;
pos = (358,1582);
}
);
layerId = "AB099EFE-E788-4EFC-8633-CF147CB782A6";
shapes = (
{
closed = 1;
nodes = (
(554,-12,o),
(592,-8,o),
(628,8,c),
(604,60,l),
(576,48,o),
(542,44,o),
(514,44,cs),
(384,44,o),
(326,136,o),
(326,274,cs),
(326,1414,l),
(266,1414,l),
(266,286,ls),
(266,98,o),
(344,-12,o),
(518,-12,cs)
);
},
{
closed = 1;
nodes = (
(612,992,l),
(612,1048,l),
(98,1048,l),
(98,992,l)
);
}
);
width = 728;
},
{
anchors = (
{
name = bottom;
pos = (536,0);
},
{
name = cedilla;
pos = (562,0);
},
{
name = center;
pos = (376,540);
},
{
name = top;
pos = (372,1380);
},
{
name = topright;
pos = (548,1732);
}
);
layerId = "2D8F7115-C311-411E-929D-56333CF7FFB2";
shapes = (
{
closed = 1;
nodes = (
(696,-16,o),
(796,0,o),
(860,28,c),
(746,308,l),
(722,296,o),
(692,286,o),
(660,286,cs),
(594,286,o),
(548,324,o),
(548,410,cs),
(548,1380,l),
(192,1380,l),
(192,410,ls),
(192,160,o),
(324,-16,o),
(610,-16,cs)
);
},
{
closed = 1;
nodes = (
(794,780,l),
(794,1080,l),
(8,1080,l),
(8,780,l)
);
}
);
width = 864;
},
{
anchors = (
{
name = bottom;
pos = (494,0);
},
{
name = cedilla;
pos = (518,0);
},
{
name = center;
pos = (330,536);
},
{
name = top;
pos = (326,1400);
},
{
name = topright;
pos = (456,1630);
}
);
layerId = "FD1CEFBD-BAB1-4C2A-A598-30E93F9A29F6";
shapes = (
{
closed = 1;
nodes = (
(608,-16,o),
(658,0,o),
(698,16,c),
(632,168,l),
(608,156,o),
(580,144,o),
(546,144,cs),
(466,144,o),
(412,202,o),
(412,312,cs),
(412,1400,l),
(240,1400,l),
(240,294,ls),
(240,112,o),
(342,-16,o),
(542,-16,cs)
);
},
{
closed = 1;
nodes = (
(674,904,l),
(674,1060,l),
(64,1060,l),
(64,904,l)
);
}
);
width = 754;
},
{
anchors = (
{
name = bottom;
pos = (483,0);
},
{
name = cedilla;
pos = (507,0);
},
{
name = center;
pos = (319,532);
},
{
name = top;
pos = (316,1405);
},
{
name = topright;
pos = (421,1613);
}
);
associatedMasterId = "AB099EFE-E788-4EFC-8633-CF147CB782A6";
attr = {
coordinates = (
68
);
};
layerId = "FE01221B-4973-4BE1-B579-5A786FF2010B";
name = "{68}";
shapes = (
{
closed = 1;
nodes = (
(589,-15,o),
(634,-3,o),
(673,13,c),
(622,129,l),
(597,117,o),
(566,108,o),
(535,108,cs),
(437,108,o),
(381,178,o),
(381,298,cs),
(381,1405,l),
(249,1405,l),
(249,291,ls),
(249,107,o),
(343,-15,o),
(533,-15,cs)
);
},
{
closed = 1;
nodes = (
(652,935,l),
(652,1056,l),
(76,1056,l),
(76,935,l)
);
}
);
width = 744;
},
{
anchors = (
{
name = bottom;
pos = (516,0);
},
{
name = cedilla;
pos = (540,0);
},
{
name = center;
pos = (352,540);
},
{
name = top;
pos = (348,1392);
},
{
name = topright;
pos = (512,1686);
}
);
associatedMasterId = "FD1CEFBD-BAB1-4C2A-A598-30E93F9A29F6";
attr = {
coordinates = (
140
);
};
layerId = "8706C833-1819-47D5-9DBD-00C8E363827F";
name = "22. Nov 23 at 12:02";
shapes = (
{
closed = 1;
nodes = (
(652,-16,o),
(720,-2,o),
(776,28,c),
(686,246,l),
(664,234,o),
(634,226,o),
(604,226,cs),
(538,226,o),
(484,264,o),
(484,362,cs),
(484,1392,l),
(208,1392,l),
(208,346,ls),
(208,134,o),
(332,-16,o),
(576,-16,cs)
);
},
{
closed = 1;
nodes = (
(736,848,l),
(736,1072,l),
(32,1072,l),
(32,848,l)
);
}
);
width = 802;
}
);
unicode = 116;
},
{
color = 6;
glyphname = t.ss01;
kernLeft = LAT_T_LC;
kernRight = LAT_TSS01_LC;
lastChange = "2023-11-23 10:10:50 +0000";
layers = (
{
anchors = (
{
name = bottom;
pos = (350,0);
},
{
name = cedilla;
pos = (334,0);
},
{
name = center;
pos = (350,524);
},
{
name = top;
pos = (350,1414);
},
{
name = topright;
pos = (420,1540);
}
);
layerId = "AB099EFE-E788-4EFC-8633-CF147CB782A6";
shapes = (
{
closed = 1;
nodes = (
(380,0,l),
(380,1414,l),
(320,1414,l),
(320,0,l)
);
},
{
closed = 1;
nodes = (
(626,992,l),
(626,1048,l),
(74,1048,l),
(74,992,l)
);
}
);
width = 700;
},
{
anchors = (
{
name = bottom;
pos = (414,0);
},
{
name = cedilla;
pos = (442,0);
},
{
name = center;
pos = (414,540);
},
{
name = top;
pos = (414,1380);
},
{
name = topright;
pos = (562,1728);
}
);
layerId = "2D8F7115-C311-411E-929D-56333CF7FFB2";
shapes = (
{
closed = 1;
nodes = (
(592,0,l),
(592,1380,l),
(236,1380,l),
(236,0,l)
);
},
{
closed = 1;
nodes = (
(820,780,l),
(820,1080,l),
(8,1080,l),
(8,780,l)
);
}
);
width = 828;
},
{
anchors = (
{
name = bottom;
pos = (378,0);
},
{
name = cedilla;
pos = (384,0);
},
{
name = center;
pos = (384,532);
},
{
name = top;
pos = (384,1400);
},
{
name = topright;
pos = (482,1614);
}
);
layerId = "FD1CEFBD-BAB1-4C2A-A598-30E93F9A29F6";
shapes = (
{
closed = 1;
nodes = (
(470,0,l),
(470,1400,l),
(298,1400,l),
(298,0,l)
);
},
{
closed = 1;
nodes = (
(710,906,l),
(710,1060,l),
(58,1060,l),
(58,906,l)
);
}
);
width = 768;
}
);
},
{
color = 6;
glyphname = u;
kernLeft = LAT_U_LC;
kernRight = LAT_A_LC;
lastChange = "2023-11-23 10:10:50 +0000";
layers = (
{
anchors = (
{
name = bottom;
pos = (610,0);
},
{
name = horn;
pos = (914,1048);
},
{
name = ogonek;
pos = (1016,-16);
},
{
name = top;
pos = (570,1048);
}
);
layerId = "AB099EFE-E788-4EFC-8633-CF147CB782A6";
shapes = (
{
closed = 1;
nodes = (
(710,-16,o),
(856,100,o),
(906,238,c),
(864,184,l),
(914,184,l),
(884,226,l),
(886,102,o),
(922,34,o),
(1016,-16,c),
(1038,38,l),
(964,76,o),
(944,116,o),
(944,232,cs),
(944,1048,l),
(884,1048,l),
(884,390,ls),
(884,210,o),
(728,40,o),
(514,40,cs),
(330,40,o),
(224,180,o),
(224,372,cs),
(224,1048,l),
(164,1048,l),
(164,372,ls),
(164,136,o),
(304,-16,o),
(516,-16,cs)
);
}
);
width = 1144;
},
{
anchors = (
{
name = bottom;
pos = (660,0);
},
{
name = horn;
pos = (934,1080);
},
{
name = ogonek;
pos = (1056,-16);
},
{
name = top;
pos = (612,1080);
}
);
layerId = "2D8F7115-C311-411E-929D-56333CF7FFB2";
shapes = (
{
closed = 1;
nodes = (
(660,-16,o),
(800,78,o),
(898,218,c),
(734,118,l),
(868,118,l),
(806,200,l),
(808,84,o),
(880,24,o),
(1056,-16,c),
(1180,278,l),
(1110,302,o),
(1094,326,o),
(1094,398,cs),
(1094,1080,l),
(738,1080,l),
(738,450,ls),
(738,340,o),
(676,282,o),
(590,282,cs),
(508,282,o),
(446,340,o),
(446,450,cs),
(446,1080,l),
(90,1080,l),
(90,398,ls),
(90,124,o),
(274,-16,o),
(492,-16,cs)
);
}
);
width = 1220;
},
{
anchors = (
{
name = bottom;
pos = (584,0);
},
{
name = horn;
pos = (908,1060);
},
{
name = ogonek;
pos = (1026,-16);
},
{
name = top;
pos = (572,1060);
}
);
layerId = "FD1CEFBD-BAB1-4C2A-A598-30E93F9A29F6";
shapes = (
{
closed = 1;
nodes = (
(724,-16,o),
(846,86,o),
(900,200,c),
(810,140,l),
(944,140,l),
(862,176,l),
(862,106,o),
(928,30,o),
(1026,-16,c),
(1092,140,l),
(1022,168,o),
(1006,206,o),
(1006,300,cs),
(1006,1060,l),
(834,1060,l),
(834,414,ls),
(834,266,o),
(724,144,o),
(560,144,cs),
(420,144,o),
(306,234,o),
(306,414,cs),
(306,1060,l),
(134,1060,l),
(134,406,ls),
(134,140,o),
(294,-16,o),
(530,-16,cs)
);
}
);
width = 1168;
}
);
unicode = 117;
},
{
color = 6;
glyphname = u.ss01;
kernLeft = LAT_U_LC;
kernRight = LAT_ASS01_LC;
lastChange = "2023-11-23 10:10:50 +0000";
layers = (
{
anchors = (
{
name = bottom;
pos = (562,0);
},
{
name = horn;
pos = (914,1048);
},
{
name = ogonek;
pos = (944,0);
},
{
name = top;
pos = (554,1048);
}
);
background = {
shapes = (
{
angle = 180;
pos = (1116,1048);
ref = n;
}
);
};
layerId = "AB099EFE-E788-4EFC-8633-CF147CB782A6";
shapes = (
{
closed = 1;
nodes = (
(714,-16,o),
(848,90,o),
(900,224,c),
(856,180,l),
(884,180,l),
(884,0,l),
(944,0,l),
(944,1048,l),
(884,1048,l),
(884,380,ls),
(884,200,o),
(732,40,o),
(522,40,cs),
(340,40,o),
(224,156,o),
(224,388,cs),
(224,1048,l),
(164,1048,l),
(164,372,ls),
(164,116,o),
(304,-16,o),
(524,-16,cs)
);
}
);
width = 1116;
},
{
anchors = (
{
name = bottom;
pos = (634,0);
},
{
name = horn;
pos = (966,1080);
},
{
name = ogonek;
pos = (1102,0);
},
{
name = top;
pos = (592,1080);
}
);
background = {
shapes = (
{
angle = 180;
pos = (1192,1080);
ref = n;
}
);
};
layerId = "2D8F7115-C311-411E-929D-56333CF7FFB2";
shapes = (
{
closed = 1;
nodes = (
(602,-16,o),
(766,82,o),
(802,266,c),
(708,144,l),
(758,144,l),
(758,0,l),
(1102,0,l),
(1102,1080,l),
(746,1080,l),
(746,452,ls),
(746,336,o),
(676,276,o),
(586,276,cs),
(496,276,o),
(438,332,o),
(438,448,cs),
(438,1080,l),
(82,1080,l),
(82,370,ls),
(82,132,o),
(220,-16,o),
(422,-16,cs)
);
}
);
width = 1192;
},
{
anchors = (
{
name = bottom;
pos = (589,0);
},
{
name = horn;
pos = (934,1060);
},
{
name = ogonek;
pos = (1004,0);
},
{
name = top;
pos = (568,1060);
}
);
background = {
shapes = (
{
angle = 180;
pos = (1142,1060);
ref = n;
}
);
};
layerId = "FD1CEFBD-BAB1-4C2A-A598-30E93F9A29F6";
shapes = (
{
closed = 1;
nodes = (
(672,-16,o),
(812,60,o),
(866,204,c),
(792,130,l),
(832,130,l),
(832,0,l),
(1004,0,l),
(1004,1060,l),
(832,1060,l),
(832,416,ls),
(832,240,o),
(710,144,o),
(554,144,cs),
(398,144,o),
(304,236,o),
(304,416,cs),
(304,1060,l),
(132,1060,l),
(132,380,ls),
(132,188,o),
(238,-16,o),
(506,-16,cs)
);
}
);
width = 1142;
}
);
metricLeft = "=|n";
metricRight = "=|n";
},
{
color = 6;
glyphname = v;
kernLeft = LAT_V_LC;
kernRight = LAT_V_LC;
lastChange = "2023-11-23 10:10:50 +0000";
layers = (
{
anchors = (
{
name = bottom;
pos = (512,0);
},
{
name = top;
pos = (512,1048);
}
);
layerId = "AB099EFE-E788-4EFC-8633-CF147CB782A6";
shapes = (
{
closed = 1;
nodes = (
(544,0,l),
(954,1048,l),
(890,1048,l),
(628,368,l),
(516,80,l),
(508,80,l),
(396,368,l),
(134,1048,l),
(70,1048,l),
(480,0,l)
);
}
);
width = 1024;
},
{
anchors = (
{
name = bottom;
pos = (582,0);
},
{
name = top;
pos = (582,1080);
}
);
layerId = "2D8F7115-C311-411E-929D-56333CF7FFB2";
shapes = (
{
closed = 1;
nodes = (
(750,0,l),
(1164,1080,l),
(790,1080,l),
(656,648,l),
(586,368,l),
(578,368,l),
(508,648,l),
(376,1080,l),
(0,1080,l),
(414,0,l)
);
}
);
width = 1164;
},
{
anchors = (
{
name = bottom;
pos = (540,0);
},
{
name = top;
pos = (540,1060);
}
);
layerId = "FD1CEFBD-BAB1-4C2A-A598-30E93F9A29F6";
shapes = (
{
closed = 1;
nodes = (
(622,0,l),
(1040,1060,l),
(848,1060,l),
(634,454,l),
(544,204,l),
(536,204,l),
(446,454,l),
(234,1060,l),
(40,1060,l),
(458,0,l)
);
}
);
width = 1080;
}
);
unicode = 118;
},
{
color = 6;
glyphname = w;
kernLeft = LAT_V_LC;
kernRight = LAT_V_LC;
lastChange = "2023-11-23 10:10:50 +0000";
layers = (
{
anchors = (
{
name = bottom;
pos = (770,0);
},
{
name = top;
pos = (770,1048);
}
);
layerId = "AB099EFE-E788-4EFC-8633-CF147CB782A6";
shapes = (
{
closed = 1;
nodes = (
(474,0,l),
(604,388,l),
(766,868,l),
(774,868,l),
(934,388,l),
(1064,0,l),
(1136,0,l),
(1460,1048,l),
(1392,1048,l),
(1208,424,l),
(1102,72,l),
(1098,72,l),
(986,410,l),
(788,984,l),
(750,984,l),
(552,410,l),
(442,72,l),
(438,72,l),
(330,424,l),
(146,1048,l),
(78,1048,l),
(402,0,l)
);
}
);
userData = {
RMXScaler = {
adjustSpace = 8;
height = 72;
weight = 8;
width = 80;
};
};
width = 1538;
},
{
anchors = (
{
name = bottom;
pos = (832,0);
},
{
name = top;
pos = (830,1080);
}
);
layerId = "2D8F7115-C311-411E-929D-56333CF7FFB2";
shapes = (
{
closed = 1;
nodes = (
(626,0,l),
(716,202,l),
(824,466,l),
(832,466,l),
(940,202,l),
(1030,0,l),
(1316,0,l),
(1640,1080,l),
(1292,1080,l),
(1182,598,l),
(1144,422,l),
(1136,422,l),
(1096,516,l),
(886,1048,l),
(770,1048,l),
(560,516,l),
(520,422,l),
(512,422,l),
(474,598,l),
(364,1080,l),
(16,1080,l),
(340,0,l)
);
}
);
userData = {
RMXScaler = {
adjustSpace = 20;
height = 73;
weight = -120;
width = 79;
};
};
width = 1656;
},
{
anchors = (
{
name = bottom;
pos = (788,0);
},
{
name = top;
pos = (788,1060);
}
);
layerId = "FD1CEFBD-BAB1-4C2A-A598-30E93F9A29F6";
shapes = (
{
closed = 1;
nodes = (
(522,0,l),
(632,294,l),
(784,688,l),
(792,688,l),
(944,294,l),
(1054,0,l),
(1214,0,l),
(1526,1060,l),
(1346,1060,l),
(1194,492,l),
(1124,226,l),
(1116,226,l),
(1030,458,l),
(838,984,l),
(740,984,l),
(546,458,l),
(460,226,l),
(452,226,l),
(384,492,l),
(232,1060,l),
(52,1060,l),
(362,0,l)
);
}
);
userData = {
RMXScaler = {
adjustSpace = 8;
height = 72;
weight = 8;
width = 80;
};
};
width = 1578;
},
{
anchors = (
{
name = bottom;
pos = (782,0);
},
{
name = top;
pos = (782,1056);
}
);
associatedMasterId = "AB099EFE-E788-4EFC-8633-CF147CB782A6";
attr = {
coordinates = (
68
);
};
layerId = "418F6325-33C0-43DE-8086-20424332113B";
name = "{68}";
shapes = (
{
closed = 1;
nodes = (
(505,0,l),
(622,328,l),
(778,752,l),
(786,752,l),
(940,328,l),
(1058,0,l),
(1186,0,l),
(1502,1056,l),
(1362,1056,l),
(1199,468,l),
(1116,171,l),
(1110,171,l),
(1014,441,l),
(820,984,l),
(744,984,l),
(548,441,l),
(454,171,l),
(447,171,l),
(365,468,l),
(201,1056,l),
(61,1056,l),
(376,0,l)
);
}
);
width = 1564;
},
{
anchors = (
{
name = bottom;
pos = (811,0);
},
{
name = top;
pos = (811,1071);
}
);
associatedMasterId = "FD1CEFBD-BAB1-4C2A-A598-30E93F9A29F6";
attr = {
coordinates = (
140
);
};
layerId = "BDBBFD96-568A-482F-B286-3183E426AC7E";
name = "22. Nov 23 at 12:02";
shapes = (
{
closed = 1;
nodes = (
(577,0,l),
(677,237,l),
(806,555,l),
(814,555,l),
(945,237,l),
(1044,0,l),
(1276,0,l),
(1588,1071,l),
(1316,1071,l),
(1187,552,l),
(1136,342,l),
(1128,342,l),
(1070,492,l),
(868,1013,l),
(753,1013,l),
(551,492,l),
(491,342,l),
(485,342,l),
(435,552,l),
(307,1071,l),
(32,1071,l),
(344,0,l)
);
}
);
userData = {
RMXScaler = {
adjustSpace = 8;
height = 72;
weight = 8;
width = 80;
};
};
width = 1620;
}
);
unicode = 119;
userData = {
RMXScaler = {
source = W;
};
};
},
{
color = 6;
glyphname = w.ss03;
kernLeft = LAT_V_LC;
kernRight = LAT_V_LC;
lastChange = "2023-11-23 10:10:50 +0000";
layers = (
{
anchors = (
{
name = bottom;
pos = (782,0);
},
{
name = top;
pos = (782,1048);
}
);
layerId = "AB099EFE-E788-4EFC-8633-CF147CB782A6";
shapes = (
{
closed = 1;
nodes = (
(478,0,l),
(608,406,l),
(774,922,l),
(786,922,l),
(950,406,l),
(1082,0,l),
(1158,0,l),
(1488,1048,l),
(1426,1048,l),
(1232,424,l),
(1122,72,l),
(1118,72,l),
(1002,424,l),
(800,1048,l),
(758,1048,l),
(558,424,l),
(440,72,l),
(438,72,l),
(326,424,l),
(134,1048,l),
(70,1048,l),
(402,0,l)
);
}
);
width = 1558;
},
{
anchors = (
{
name = bottom;
pos = (828,0);
},
{
name = top;
pos = (828,1080);
}
);
background = {
shapes = (
{
pos = (-14,0);
ref = w;
}
);
};
layerId = "2D8F7115-C311-411E-929D-56333CF7FFB2";
shapes = (
{
closed = 1;
nodes = (
(652,0,l),
(758,308,l),
(824,520,l),
(832,520,l),
(898,308,l),
(1004,0,l),
(1332,0,l),
(1654,1080,l),
(1298,1080,l),
(1200,626,l),
(1146,372,l),
(1138,372,l),
(1056,634,l),
(922,1080,l),
(734,1080,l),
(598,634,l),
(516,372,l),
(508,372,l),
(454,626,l),
(356,1080,l),
(0,1080,l),
(324,0,l)
);
}
);
width = 1654;
},
{
anchors = (
{
name = bottom;
pos = (798,0);
},
{
name = top;
pos = (798,1060);
}
);
layerId = "FD1CEFBD-BAB1-4C2A-A598-30E93F9A29F6";
shapes = (
{
closed = 1;
nodes = (
(540,0,l),
(672,390,l),
(794,758,l),
(802,758,l),
(926,390,l),
(1056,0,l),
(1228,0,l),
(1556,1060,l),
(1376,1060,l),
(1220,516,l),
(1138,218,l),
(1130,218,l),
(1032,516,l),
(856,1060,l),
(742,1060,l),
(566,516,l),
(466,218,l),
(458,218,l),
(376,516,l),
(222,1060,l),
(40,1060,l),
(368,0,l)
);
}
);
width = 1596;
}
);
metricLeft = v;
metricRight = v;
},
{
color = 6;
glyphname = x;
kernLeft = LAT_X_LC;
kernRight = LAT_X_LC;
lastChange = "2023-11-23 10:10:50 +0000";
layers = (
{
anchors = (
{
name = bottom;
pos = (500,0);
},
{
name = top;
pos = (500,1048);
}
);
layerId = "AB099EFE-E788-4EFC-8633-CF147CB782A6";
shapes = (
{
closed = 1;
nodes = (
(914,0,l),
(540,520,l),
(540,528,l),
(508,568,l),
(496,568,l),
(158,1048,l),
(86,1048,l),
(460,528,l),
(460,520,l),
(492,478,l),
(504,478,l),
(838,0,l)
);
},
{
closed = 1;
nodes = (
(162,0,l),
(496,478,l),
(508,478,l),
(540,520,l),
(540,528,l),
(914,1048,l),
(842,1048,l),
(504,568,l),
(492,568,l),
(460,528,l),
(460,520,l),
(86,0,l)
);
}
);
userData = {
RMXScaler = {
height = 71;
weight = 16;
width = 73.5;
};
};
width = 1000;
},
{
anchors = (
{
name = bottom;
pos = (574,0);
},
{
name = top;
pos = (574,1080);
}
);
layerId = "2D8F7115-C311-411E-929D-56333CF7FFB2";
shapes = (
{
closed = 1;
nodes = (
(1142,0,l),
(790,536,l),
(790,540,l),
(578,742,l),
(570,742,l),
(364,1080,l),
(4,1080,l),
(356,544,l),
(356,540,l),
(566,316,l),
(578,316,l),
(774,0,l)
);
},
{
closed = 1;
nodes = (
(372,0,l),
(570,316,l),
(582,316,l),
(790,540,l),
(790,544,l),
(1146,1080,l),
(782,1080,l),
(578,742,l),
(570,742,l),
(356,540,l),
(356,536,l),
(0,0,l)
);
}
);
userData = {
RMXScaler = {
height = 73.5;
weight = -110;
width = 73;
};
};
width = 1146;
},
{
anchors = (
{
name = bottom;
pos = (522,0);
},
{
name = top;
pos = (522,1060);
}
);
layerId = "FD1CEFBD-BAB1-4C2A-A598-30E93F9A29F6";
shapes = (
{
closed = 1;
nodes = (
(998,0,l),
(636,528,l),
(636,536,l),
(530,644,l),
(518,644,l),
(248,1060,l),
(52,1060,l),
(408,536,l),
(408,528,l),
(514,410,l),
(526,410,l),
(792,0,l)
);
},
{
closed = 1;
nodes = (
(252,0,l),
(518,410,l),
(530,410,l),
(636,528,l),
(636,536,l),
(994,1060,l),
(796,1060,l),
(526,644,l),
(514,644,l),
(408,536,l),
(408,528,l),
(48,0,l)
);
}
);
userData = {
RMXScaler = {
height = 71;
weight = 16;
width = 73.5;
};
};
width = 1044;
}
);
unicode = 120;
userData = {
RMXScaler = {
source = X;
};
};
},
{
color = 6;
glyphname = y;
kernLeft = LAT_Y_LC;
kernRight = LAT_Y_LC;
lastChange = "2023-11-23 10:10:50 +0000";
layers = (
{
anchors = (
{
name = bottom;
pos = (306,-420);
},
{
name = top;
pos = (550,1048);
}
);
layerId = "AB099EFE-E788-4EFC-8633-CF147CB782A6";
shapes = (
{
closed = 1;
nodes = (
(414,-436,o),
(464,-322,o),
(522,-174,cs),
(1002,1048,l),
(938,1048,l),
(672,360,l),
(556,64,l),
(548,64,l),
(428,360,l),
(150,1048,l),
(86,1048,l),
(538,-58,l),
(532,4,l),
(466,-164,ls),
(428,-262,o),
(390,-380,o),
(254,-380,cs),
(214,-380,o),
(164,-370,o),
(138,-354,c),
(114,-412,l),
(144,-424,o),
(198,-436,o),
(248,-436,cs)
);
}
);
width = 1072;
},
{
anchors = (
{
name = bottom;
pos = (406,-420);
},
{
name = top;
pos = (608,1080);
}
);
layerId = "2D8F7115-C311-411E-929D-56333CF7FFB2";
shapes = (
{
closed = 1;
nodes = (
(636,-436,o),
(700,-244,o),
(750,-112,cs),
(1204,1080,l),
(832,1080,l),
(656,496,l),
(618,356,l),
(610,356,l),
(570,496,l),
(380,1080,l),
(8,1080,l),
(466,-50,l),
(496,132,l),
(450,-32,ls),
(437,-78,o),
(410,-142,o),
(316,-142,cs),
(284,-142,o),
(246,-134,o),
(218,-120,c),
(98,-400,l),
(160,-420,o),
(254,-436,o),
(336,-436,cs)
);
}
);
width = 1204;
},
{
anchors = (
{
name = bottom;
pos = (448,-420);
},
{
name = top;
pos = (580,1060);
}
);
layerId = "FD1CEFBD-BAB1-4C2A-A598-30E93F9A29F6";
shapes = (
{
closed = 1;
nodes = (
(494,-436,o),
(576,-244,o),
(612,-148,cs),
(1068,1060,l),
(886,1060,l),
(658,414,l),
(584,196,l),
(576,196,l),
(494,414,l),
(244,1060,l),
(56,1060,l),
(518,-50,l),
(514,54,l),
(460,-106,ls),
(440,-164,o),
(388,-278,o),
(266,-276,cs),
(228,-276,o),
(180,-262,o),
(138,-240,c),
(72,-396,l),
(100,-412,o),
(178,-436,o),
(260,-436,cs)
);
}
);
width = 1108;
}
);
metricRight = v;
unicode = 121;
},
{
color = 6;
glyphname = z;
kernLeft = LAT_Z_LC;
kernRight = LAT_Z_LC;
lastChange = "2023-11-23 10:10:50 +0000";
layers = (
{
anchors = (
{
name = bottom;
pos = (484,0);
},
{
name = center;
pos = (484,524);
},
{
name = leghookretroflex;
pos = (824,0);
},
{
name = top;
pos = (504,1048);
}
);
layerId = "AB099EFE-E788-4EFC-8633-CF147CB782A6";
shapes = (
{
closed = 1;
nodes = (
(850,0,l),
(850,56,l),
(200,56,l),
(200,64,l),
(838,1020,l),
(838,1048,l),
(144,1048,l),
(144,992,l),
(748,992,l),
(748,984,l),
(114,36,l),
(114,0,l)
);
}
);
width = 964;
},
{
anchors = (
{
name = bottom;
pos = (508,0);
},
{
name = center;
pos = (508,540);
},
{
name = leghookretroflex;
pos = (794,0);
},
{
name = top;
pos = (524,1080);
}
);
layerId = "2D8F7115-C311-411E-929D-56333CF7FFB2";
shapes = (
{
closed = 1;
nodes = (
(974,0,l),
(974,304,l),
(540,304,l),
(540,312,l),
(974,1006,l),
(974,1080,l),
(70,1080,l),
(70,776,l),
(466,776,l),
(466,768,l),
(32,70,l),
(32,0,l)
);
}
);
width = 1008;
},
{
anchors = (
{
name = bottom;
pos = (494,0);
},
{
name = center;
pos = (494,536);
},
{
name = leghookretroflex;
pos = (814,0);
},
{
name = top;
pos = (518,1060);
}
);
layerId = "FD1CEFBD-BAB1-4C2A-A598-30E93F9A29F6";
shapes = (
{
closed = 1;
nodes = (
(900,0,l),
(900,156,l),
(360,156,l),
(360,164,l),
(896,1020,l),
(896,1060,l),
(112,1060,l),
(112,904,l),
(624,904,l),
(624,896,l),
(88,40,l),
(88,0,l)
);
}
);
width = 988;
}
);
unicode = 122;
},
{
color = 6;
export = 0;
glyphname = a.ss08;
kernLeft = LAT_ASS02_LC;
kernRight = LAT_A_LC;
lastChange = "2023-11-23 10:10:50 +0000";
layers = (
{
anchors = (
{
name = bottom;
pos = (506,0);
},
{
name = ogonek;
pos = (840,0);
},
{
name = top;
pos = (506,1048);
}
);
layerId = "AB099EFE-E788-4EFC-8633-CF147CB782A6";
shapes = (
{
closed = 1;
nodes = (
(854,0,l),
(854,684,ls),
(854,896,o),
(796,1064,o),
(524,1064,cs),
(410,1064,o),
(252,1014,o),
(172,950,c),
(200,900,l),
(276,960,o),
(418,1008,o),
(520,1008,cs),
(738,1008,o),
(794,890,o),
(794,696,cs),
(794,562,l),
(794,554,l),
(794,246,l),
(782,176,l),
(798,176,l),
(798,0,l)
);
},
{
closed = 1;
nodes = (
(606,-16,o),
(734,78,o),
(798,180,c),
(806,290,l),
(718,138,o),
(596,40,o),
(442,40,cs),
(294,40,o),
(174,148,o),
(174,282,cs),
(174,438,o),
(326,550,o),
(622,550,cs),
(820,550,l),
(820,606,l),
(622,606,ls),
(294,606,o),
(114,476,o),
(114,282,cs),
(114,112,o),
(260,-16,o),
(442,-16,cs)
);
}
);
width = 1018;
},
{
anchors = (
{
name = bottom;
pos = (544,0);
},
{
name = ogonek;
pos = (832,0);
},
{
name = top;
pos = (558,1080);
}
);
layerId = "2D8F7115-C311-411E-929D-56333CF7FFB2";
shapes = (
{
closed = 1;
nodes = (
(1020,0,l),
(1020,710,ls),
(1020,876,o),
(968,1096,o),
(552,1096,cs),
(344,1096,o),
(184,1038,o),
(106,994,c),
(226,732,l),
(304,780,o),
(430,814,o),
(520,814,cs),
(606,814,o),
(676,780,o),
(676,706,cs),
(676,552,l),
(684,504,l),
(684,262,l),
(680,132,l),
(724,132,l),
(724,0,l)
);
},
{
closed = 1;
nodes = (
(570,-16,o),
(692,66,o),
(734,152,c),
(684,312,l),
(644,262,o),
(578,238,o),
(516,238,cs),
(438,238,o),
(390,280,o),
(390,336,cs),
(390,406,o),
(456,426,o),
(536,426,cs),
(696,426,l),
(696,630,l),
(466,630,ls),
(206,630,o),
(46,492,o),
(40,294,cs),
(46,116,o),
(180,-16,o),
(398,-16,cs)
);
}
);
width = 1102;
},
{
anchors = (
{
name = bottom;
pos = (538,0);
},
{
name = ogonek;
pos = (842,0);
},
{
name = top;
pos = (538,1060);
}
);
layerId = "FD1CEFBD-BAB1-4C2A-A598-30E93F9A29F6";
shapes = (
{
closed = 1;
nodes = (
(920,0,l),
(920,680,ls),
(920,890,o),
(838,1076,o),
(546,1076,cs),
(412,1076,o),
(252,1032,o),
(158,974,c),
(220,828,l),
(298,882,o),
(424,920,o),
(530,920,cs),
(712,920,o),
(752,820,o),
(752,680,cs),
(752,558,l),
(760,500,l),
(760,258,l),
(744,148,l),
(780,148,l),
(780,0,l)
);
},
{
closed = 1;
nodes = (
(604,-16,o),
(736,70,o),
(792,172,c),
(768,328,l),
(708,210,o),
(576,132,o),
(448,132,cs),
(346,132,o),
(260,194,o),
(260,294,cs),
(260,460,o),
(470,490,o),
(608,490,cs),
(796,490,l),
(796,630,l),
(596,630,ls),
(232,630,o),
(88,480,o),
(88,294,cs),
(88,106,o),
(240,-16,o),
(436,-16,cs)
);
}
);
width = 1052;
}
);
metricLeft = a;
metricRight = n;
},
{
color = 3;
glyphname = fl;
kernLeft = LAT_F_LC;
kernRight = LAT_L_LC;
lastChange = "2023-11-23 10:10:50 +0000";
layers = (
{
background = {
shapes = (
{
closed = 1;
nodes = (
(1042,-8,o),
(1071,-4,o),
(1092,4,c),
(1092,66,l),
(1079,57,o),
(1051,49,o),
(1022,50,cs),
(944,49,o),
(944,131,o),
(944,196,cs),
(944,1474,l),
(882,1474,l),
(882,188,ls),
(883,45,o),
(918,-8,o),
(1018,-8,cs)
);
},
{
pos = (-2,0);
ref = f;
}
);
};
layerId = "AB099EFE-E788-4EFC-8633-CF147CB782A6";
shapes = (
{
closed = 1;
nodes = (
(1040,-8,o),
(1070,-4,o),
(1090,4,c),
(1090,64,l),
(1078,56,o),
(1048,48,o),
(1020,48,cs),
(942,48,o),
(942,112,o),
(942,174,cs),
(942,1474,l),
(884,1474,l),
(884,176,ls),
(884,48,o),
(918,-8,o),
(1016,-8,cs)
);
},
{
ref = f;
}
);
width = 1154;
},
{
background = {
shapes = (
{
closed = 1;
nodes = (
(1425,-16,o),
(1483,-4,o),
(1528,12,c),
(1528,286,l),
(1520,283,o),
(1503,279,o),
(1490,278,cs),
(1434,279,o),
(1417,324,o),
(1418,356,cs),
(1418,1474,l),
(1060,1474,l),
(1060,294,ls),
(1061,131,o),
(1167,-16,o),
(1352,-16,cs)
);
}
);
};
layerId = "2D8F7115-C311-411E-929D-56333CF7FFB2";
shapes = (
{
closed = 1;
nodes = (
(1414,-16,o),
(1476,-4,o),
(1520,12,c),
(1520,286,l),
(1512,283,o),
(1496,278,o),
(1478,278,cs),
(1430,278,o),
(1410,320,o),
(1410,356,cs),
(1410,1474,l),
(1052,1474,l),
(1052,294,ls),
(1052,132,o),
(1156,-16,o),
(1356,-16,cs)
);
},
{
ref = f;
}
);
width = 1552;
},
{
layerId = "FD1CEFBD-BAB1-4C2A-A598-30E93F9A29F6";
shapes = (
{
closed = 1;
nodes = (
(1168,-12,o),
(1208,-4,o),
(1242,8,c),
(1242,152,l),
(1230,144,o),
(1206,136,o),
(1180,136,cs),
(1114,136,o),
(1106,194,o),
(1106,246,cs),
(1106,1474,l),
(934,1474,l),
(934,222,ls),
(934,70,o),
(1000,-12,o),
(1130,-12,cs)
);
},
{
alignment = -1;
ref = f;
}
);
width = 1306;
}
);
metricLeft = f;
metricRight = l;
unicode = 64258;
},
{
color = 3;
glyphname = r_slash.liga;
kernLeft = LAT_R_LC;
kernRight = PCT_SLASH;
lastChange = "2023-11-23 10:10:50 +0000";
layers = (
{
layerId = "AB099EFE-E788-4EFC-8633-CF147CB782A6";
shapes = (
{
closed = 1;
nodes = (
(232,0,l),
(232,684,ls),
(232,844,o),
(400,1010,o),
(580,1010,cs),
(640,1010,o),
(714,996,o),
(752,968,c),
(776,1028,l),
(748,1044,o),
(672,1064,o),
(596,1064,cs),
(434,1064,o),
(290,976,o),
(210,832,c),
(244,868,l),
(232,868,l),
(232,1048,l),
(172,1048,l),
(172,0,l)
);
},
{
pos = (572,0);
ref = slash;
}
);
width = 1308;
},
{
layerId = "2D8F7115-C311-411E-929D-56333CF7FFB2";
shapes = (
{
closed = 1;
nodes = (
(446,0,l),
(446,552,ls),
(446,692,o),
(524,754,o),
(664,754,cs),
(710,754,o),
(774,750,o),
(832,716,c),
(974,1064,l),
(950,1082,o),
(894,1098,o),
(786,1098,cs),
(590,1098,o),
(454,994,o),
(410,930,c),
(480,958,l),
(426,958,l),
(426,1082,l),
(90,1082,l),
(90,0,l)
);
},
{
pos = (766,0);
ref = slash;
}
);
width = 1704;
},
{
layerId = "FD1CEFBD-BAB1-4C2A-A598-30E93F9A29F6";
shapes = (
{
closed = 1;
nodes = (
(310,0,l),
(310,648,ls),
(310,792,o),
(440,918,o),
(604,918,cs),
(658,918,o),
(720,906,o),
(764,880,c),
(834,1044,l),
(810,1058,o),
(752,1078,o),
(666,1078,cs),
(470,1078,o),
(334,976,o),
(276,868,c),
(350,918,l),
(306,918,l),
(306,1060,l),
(138,1060,l),
(138,0,l)
);
},
{
alignment = -1;
pos = (646,0);
ref = slash;
}
);
width = 1428;
}
);
metricLeft = r;
metricRight = slash;
},
{
color = 6;
glyphname = ordfeminine;
kernLeft = PCT_QUOTE;
kernRight = PCT_QUOTE;
lastChange = "2023-11-23 10:10:50 +0000";
layers = (
{
anchors = (
{
name = bottom;
pos = (380,848);
},
{
name = ogonek;
pos = (684,840);
},
{
name = top;
pos = (380,1478);
},
{
name = topright;
pos = (724,1478);
}
);
layerId = "AB099EFE-E788-4EFC-8633-CF147CB782A6";
shapes = (
{
closed = 1;
nodes = (
(518,828,o),
(644,942,o),
(644,1160,cs),
(644,1380,o),
(530,1490,o),
(372,1490,cs),
(208,1490,o),
(90,1352,o),
(90,1156,cs),
(90,966,o),
(208,828,o),
(372,828,cs)
);
},
{
closed = 1;
nodes = (
(244,882,o),
(150,998,o),
(150,1156,cs),
(150,1318,o),
(242,1436,o),
(372,1436,cs),
(506,1436,o),
(598,1328,o),
(598,1160,cs),
(598,996,o),
(502,882,o),
(372,882,cs)
);
},
{
closed = 1;
nodes = (
(714,874,l),
(702,882,ls),
(672,902,o),
(654,934,o),
(654,992,cs),
(654,1478,l),
(594,1478,l),
(594,1360,l),
(586,1360,l),
(598,1336,l),
(598,1012,l),
(582,962,l),
(602,962,l),
(598,970,l),
(602,892,o),
(632,846,o),
(684,828,c)
);
}
);
userData = {
RMXScaler = {
adjustSpace = 12;
height = 60;
verticalShift = 414;
weight = 18;
width = 60;
};
};
width = 796;
},
{
anchors = (
{
name = bottom;
pos = (414,812);
},
{
name = ogonek;
pos = (700,802);
},
{
name = top;
pos = (414,1474);
},
{
name = topright;
pos = (786,1474);
}
);
layerId = "2D8F7115-C311-411E-929D-56333CF7FFB2";
shapes = (
{
closed = 1;
nodes = (
(500,802,o),
(602,976,o),
(602,1154,cs),
(602,1320,o),
(514,1486,o),
(336,1486,cs),
(174,1486,o),
(50,1348,o),
(50,1142,cs),
(50,942,o),
(166,802,o),
(324,802,cs)
);
},
{
closed = 1;
nodes = (
(348,1020,o),
(304,1074,o),
(304,1148,cs),
(304,1222,o),
(348,1270,o),
(406,1270,cs),
(472,1270,o),
(504,1218,o),
(504,1146,cs),
(504,1066,o),
(464,1020,o),
(406,1020,cs)
);
},
{
closed = 1;
nodes = (
(820,1012,l),
(790,1024,ls),
(761,1036,o),
(754,1058,o),
(754,1110,cs),
(754,1474,l),
(500,1474,l),
(500,1426,l),
(466,1426,l),
(504,1372,l),
(504,974,l),
(476,898,l),
(540,898,l),
(512,914,l),
(538,867,o),
(606,824,o),
(700,802,c)
);
}
);
userData = {
RMXScaler = {
adjustSpace = 12;
height = 61;
verticalShift = 396;
weight = -200;
width = 60;
};
};
width = 876;
},
{
anchors = (
{
name = bottom;
pos = (376,836);
},
{
name = ogonek;
pos = (676,828);
},
{
name = top;
pos = (376,1478);
},
{
name = topright;
pos = (734,1478);
}
);
layerId = "FD1CEFBD-BAB1-4C2A-A598-30E93F9A29F6";
shapes = (
{
closed = 1;
nodes = (
(496,820,o),
(610,954,o),
(610,1156,cs),
(610,1360,o),
(508,1490,o),
(344,1490,cs),
(180,1490,o),
(58,1352,o),
(58,1150,cs),
(58,954,o),
(176,820,o),
(340,820,cs)
);
},
{
closed = 1;
nodes = (
(266,938,o),
(190,1028,o),
(190,1150,cs),
(190,1282,o),
(266,1372,o),
(368,1372,cs),
(480,1372,o),
(548,1286,o),
(548,1156,cs),
(548,1024,o),
(472,938,o),
(368,938,cs)
);
},
{
closed = 1;
nodes = (
(742,930,l),
(720,938,ls),
(693,948,o),
(676,976,o),
(676,1036,cs),
(676,1474,l),
(544,1474,l),
(544,1384,l),
(524,1384,l),
(548,1352,l),
(548,1000,l),
(524,938,l),
(566,938,l),
(552,942,l),
(566,881,o),
(605,842,o),
(672,820,c)
);
}
);
width = 794;
}
);
unicode = 170;
userData = {
RMXScaler = {
source = a.ss02;
};
};
},
{
color = 6;
glyphname = ordmasculine;
kernLeft = PCT_QUOTE;
kernRight = PCT_QUOTE;
lastChange = "2023-11-23 10:10:50 +0000";
layers = (
{
layerId = "AB099EFE-E788-4EFC-8633-CF147CB782A6";
shapes = (
{
closed = 1;
nodes = (
(580,828,o),
(712,972,o),
(712,1160,cs),
(712,1352,o),
(580,1490,o),
(402,1490,cs),
(226,1490,o),
(90,1352,o),
(90,1160,cs),
(90,972,o),
(226,828,o),
(402,828,cs)
);
},
{
closed = 1;
nodes = (
(258,882,o),
(150,1004,o),
(150,1160,cs),
(150,1320,o),
(258,1436,o),
(402,1436,cs),
(546,1436,o),
(652,1320,o),
(652,1160,cs),
(652,1004,o),
(546,882,o),
(402,882,cs)
);
}
);
userData = {
RMXScaler = {
height = 60;
verticalShift = 400;
width = 60;
};
};
width = 802;
},
{
layerId = "2D8F7115-C311-411E-929D-56333CF7FFB2";
shapes = (
{
closed = 1;
nodes = (
(624,802,o),
(778,950,o),
(778,1148,cs),
(778,1344,o),
(626,1490,o),
(414,1490,cs),
(204,1490,o),
(50,1346,o),
(50,1146,cs),
(50,948,o),
(206,802,o),
(414,802,cs)
);
},
{
closed = 1;
nodes = (
(348,1032,o),
(300,1080,o),
(300,1146,cs),
(300,1214,o),
(348,1262,o),
(414,1262,cs),
(480,1262,o),
(528,1214,o),
(528,1146,cs),
(528,1080,o),
(480,1032,o),
(414,1032,cs)
);
}
);
userData = {
RMXScaler = {
height = 60;
verticalShift = 390;
weight = -200;
width = 60;
};
};
width = 828;
},
{
layerId = "FD1CEFBD-BAB1-4C2A-A598-30E93F9A29F6";
shapes = (
{
closed = 1;
nodes = (
(581,820,o),
(720,962,o),
(720,1156,cs),
(720,1349,o),
(581,1490,o),
(390,1490,cs),
(198,1490,o),
(58,1349,o),
(58,1156,cs),
(58,962,o),
(198,820,o),
(390,820,cs)
);
},
{
closed = 1;
nodes = (
(273,944,o),
(190,1032,o),
(190,1156,cs),
(190,1279,o),
(273,1366,o),
(388,1366,cs),
(504,1366,o),
(588,1279,o),
(588,1156,cs),
(588,1032,o),
(504,944,o),
(388,944,cs)
);
}
);
width = 782;
}
);
unicode = 186;
userData = {
RMXScaler = {
source = o;
};
};
},
{
color = 6;
glyphname = pi;
kernLeft = PI_LC;
kernRight = PI_LC;
lastChange = "2023-11-23 10:10:50 +0000";
layers = (
{
layerId = "AB099EFE-E788-4EFC-8633-CF147CB782A6";
shapes = (
{
closed = 1;
nodes = (
(992,-16,o),
(1020,-8,o),
(1044,8,c),
(1022,60,l),
(1000,46,o),
(978,38,o),
(956,38,cs),
(866,38,o),
(870,164,o),
(874,236,cs),
(912,1014,l),
(852,1014,l),
(820,236,ls),
(814,110,o),
(814,-16,o),
(956,-16,cs)
);
},
{
closed = 1;
nodes = (
(326,0,l),
(404,356,o),
(454,668,o),
(444,1010,c),
(386,1010,l),
(390,640,o),
(336,340,o),
(266,0,c)
);
},
{
closed = 1;
nodes = (
(186,998,o),
(262,994,o),
(426,994,cs),
(1112,994,l),
(1112,1048,l),
(388,1048,ls),
(246,1048,o),
(152,1048,o),
(74,884,c),
(130,862,l)
);
}
);
width = 1210;
},
{
layerId = "2D8F7115-C311-411E-929D-56333CF7FFB2";
shapes = (
{
closed = 1;
nodes = (
(1324,-16,o),
(1422,8,o),
(1450,20,c),
(1336,300,l),
(1322,292,o),
(1290,282,o),
(1258,282,cs),
(1212,282,o),
(1181,318,o),
(1184,394,cs),
(1204,860,l),
(892,860,l),
(864,360,ls),
(848,78,o),
(1016,-16,o),
(1220,-16,cs)
);
},
{
closed = 1;
nodes = (
(634,0,l),
(694,250,o),
(736,566,o),
(734,824,c),
(410,824,l),
(420,610,o),
(354,360,o),
(274,0,c)
);
},
{
closed = 1;
nodes = (
(320,740,o),
(360,776,o),
(434,776,cs),
(1404,776,l),
(1404,1080,l),
(496,1080,ls),
(246,1080,o),
(112,998,o),
(28,822,c),
(304,698,l)
);
}
);
width = 1466;
},
{
layerId = "FD1CEFBD-BAB1-4C2A-A598-30E93F9A29F6";
shapes = (
{
closed = 1;
nodes = (
(1104,-16,o),
(1166,-2,o),
(1188,16,c),
(1130,152,l),
(1112,142,o),
(1084,136,o),
(1060,136,cs),
(978,136,o),
(978,220,o),
(980,260,cs),
(1012,958,l),
(848,958,l),
(820,246,ls),
(812,58,o),
(902,-16,o),
(1044,-16,cs)
);
},
{
closed = 1;
nodes = (
(458,0,l),
(512,316,o),
(558,632,o),
(552,942,c),
(386,942,l),
(398,632,o),
(344,352,o),
(286,0,c)
);
},
{
closed = 1;
nodes = (
(246,894,o),
(296,914,o),
(422,914,cs),
(1220,914,l),
(1220,1060,l),
(422,1060,ls),
(230,1060,o),
(124,1020,o),
(54,864,c),
(200,794,l)
);
}
);
width = 1294;
}
);
unicode = 960;
},
{
color = 6;
glyphname = zero;
kernLeft = NUM_ZERO;
kernRight = NUM_ZERO;
lastChange = "2023-11-23 10:10:50 +0000";
layers = (
{
anchors = (
{
name = center;
pos = (672,738);
}
);
layerId = "AB099EFE-E788-4EFC-8633-CF147CB782A6";
shapes = (
{
closed = 1;
nodes = (
(982,-16,o),
(1188,248,o),
(1188,656,cs),
(1188,816,ls),
(1188,1226,o),
(982,1490,o),
(672,1490,cs),
(360,1490,o),
(156,1226,o),
(156,816,cs),
(156,656,ls),
(156,248,o),
(360,-16,o),
(672,-16,cs)
);
},
{
closed = 1;
nodes = (
(402,44,o),
(220,290,o),
(220,656,cs),
(220,816,ls),
(220,1186,o),
(392,1430,o),
(672,1430,cs),
(954,1430,o),
(1124,1186,o),
(1124,816,cs),
(1124,656,ls),
(1124,290,o),
(940,44,o),
(672,44,cs)
);
}
);
width = 1344;
},
{
anchors = (
{
name = center;
pos = (664,738);
}
);
layerId = "2D8F7115-C311-411E-929D-56333CF7FFB2";
shapes = (
{
closed = 1;
nodes = (
(992,-16,o),
(1228,226,o),
(1228,648,cs),
(1228,816,ls),
(1228,1242,o),
(992,1489,o),
(664,1490,cs),
(340,1491,o),
(98,1242,o),
(98,816,cs),
(98,648,ls),
(98,226,o),
(340,-16,o),
(664,-16,cs)
);
},
{
closed = 1;
nodes = (
(542,300,o),
(462,394,o),
(462,590,cs),
(462,884,ls),
(462,1086,o),
(542,1174,o),
(664,1174,cs),
(796,1174,o),
(864,1086,o),
(864,884,cs),
(864,590,ls),
(864,394,o),
(796,300,o),
(664,300,cs)
);
}
);
width = 1328;
},
{
anchors = (
{
name = center;
pos = (668,738);
}
);
layerId = "FD1CEFBD-BAB1-4C2A-A598-30E93F9A29F6";
shapes = (
{
closed = 1;
nodes = (
(984,-16,o),
(1200,238,o),
(1200,652,cs),
(1200,816,ls),
(1200,1234,o),
(984,1490,o),
(668,1490,cs),
(348,1490,o),
(132,1226,o),
(132,816,cs),
(132,652,ls),
(132,246,o),
(348,-16,o),
(668,-16,cs)
);
},
{
closed = 1;
nodes = (
(450,148,o),
(312,336,o),
(312,630,cs),
(312,840,ls),
(312,1148,o),
(446,1326,o),
(668,1326,cs),
(894,1326,o),
(1020,1148,o),
(1020,840,cs),
(1020,630,ls),
(1020,320,o),
(880,148,o),
(670,148,cs)
);
}
);
width = 1332;
}
);
unicode = 48;
},
{
color = 6;
glyphname = one;
kernLeft = NUM_ONE;
kernRight = NUM_ONE;
lastChange = "2023-11-23 10:10:50 +0000";
layers = (
{
layerId = "AB099EFE-E788-4EFC-8633-CF147CB782A6";
shapes = (
{
closed = 1;
nodes = (
(534,0,l),
(534,1474,l),
(494,1474,l),
(164,1294,l),
(164,1226,l),
(496,1406,l),
(470,1420,l),
(470,0,l)
);
}
);
width = 764;
},
{
layerId = "2D8F7115-C311-411E-929D-56333CF7FFB2";
shapes = (
{
closed = 1;
nodes = (
(758,0,l),
(758,1474,l),
(652,1474,l),
(114,1232,l),
(114,892,l),
(458,1040,l),
(390,1146,l),
(390,0,l)
);
}
);
width = 918;
},
{
layerId = "FD1CEFBD-BAB1-4C2A-A598-30E93F9A29F6";
shapes = (
{
closed = 1;
nodes = (
(606,0,l),
(606,1474,l),
(540,1474,l),
(132,1274,l),
(132,1102,l),
(466,1270,l),
(426,1314,l),
(426,0,l)
);
}
);
width = 790;
}
);
unicode = 49;
},
{
color = 6;
glyphname = two;
kernLeft = NUM_TWO;
kernRight = NUM_TWO;
lastChange = "2023-11-23 10:10:50 +0000";
layers = (
{
layerId = "AB099EFE-E788-4EFC-8633-CF147CB782A6";
shapes = (
{
closed = 1;
nodes = (
(1032,0,l),
(1032,60,l),
(480,60,l),
(234,60,l),
(234,64,l),
(626,520,ls),
(836,764,o),
(982,906,o),
(982,1106,cs),
(982,1324,o),
(810,1490,o),
(582,1490,cs),
(344,1490,o),
(160,1316,o),
(160,1082,c),
(224,1082,l),
(224,1280,o),
(382,1430,o),
(582,1430,cs),
(774,1430,o),
(918,1290,o),
(918,1110,cs),
(918,940,o),
(780,792,o),
(574,552,cs),
(136,40,l),
(136,0,l)
);
}
);
width = 1168;
},
{
layerId = "2D8F7115-C311-411E-929D-56333CF7FFB2";
shapes = (
{
closed = 1;
nodes = (
(1106,0,l),
(1106,320,l),
(868,320,l),
(680,316,l),
(680,324,l),
(790,462,ls),
(951,664,o),
(1106,824,o),
(1106,1048,cs),
(1106,1312,o),
(894,1490,o),
(602,1490,cs),
(288,1490,o),
(70,1282,o),
(66,988,c),
(434,988,l),
(434,1098,o),
(498,1170,o),
(596,1170,cs),
(686,1170,o),
(746,1110,o),
(746,1024,cs),
(746,890,o),
(599,730,o),
(488,586,cs),
(94,74,l),
(94,0,l)
);
}
);
width = 1204;
},
{
layerId = "FD1CEFBD-BAB1-4C2A-A598-30E93F9A29F6";
shapes = (
{
closed = 1;
nodes = (
(1056,0,l),
(1056,164,l),
(644,164,l),
(426,160,l),
(426,168,l),
(700,500,ls),
(885,724,o),
(1024,876,o),
(1024,1082,cs),
(1024,1320,o),
(836,1490,o),
(582,1490,cs),
(316,1490,o),
(118,1304,o),
(118,1048,c),
(300,1048,l),
(300,1212,o),
(422,1326,o),
(586,1326,cs),
(738,1326,o),
(844,1226,o),
(844,1084,cs),
(844,920,o),
(702,768,o),
(536,566,cs),
(114,54,l),
(114,0,l)
);
}
);
width = 1172;
}
);
unicode = 50;
},
{
color = 6;
glyphname = three;
kernLeft = NUM_THREE;
kernRight = NUM_EIGHT;
lastChange = "2023-11-23 10:10:50 +0000";
layers = (
{
layerId = "AB099EFE-E788-4EFC-8633-CF147CB782A6";
shapes = (
{
closed = 1;
nodes = (
(818,-16,o),
(1014,172,o),
(1014,406,cs),
(1014,640,o),
(826,820,o),
(550,802,c),
(550,770,l),
(760,758,o),
(940,936,o),
(940,1150,cs),
(940,1352,o),
(778,1490,o),
(574,1490,cs),
(350,1490,o),
(184,1326,o),
(184,1130,c),
(248,1130,l),
(248,1294,o),
(390,1430,o),
(572,1430,cs),
(742,1430,o),
(876,1312,o),
(876,1148,cs),
(876,974,o),
(722,820,o),
(536,820,cs),
(466,820,l),
(466,760,l),
(496,760,ls),
(778,760,o),
(950,612,o),
(950,410,cs),
(950,206,o),
(778,44,o),
(566,44,cs),
(364,44,o),
(186,188,o),
(186,410,c),
(122,410,l),
(124,156,o),
(328,-16,o),
(566,-16,cs)
);
}
);
width = 1144;
},
{
layerId = "2D8F7115-C311-411E-929D-56333CF7FFB2";
shapes = (
{
closed = 1;
nodes = (
(890,-16,o),
(1114,168,o),
(1114,410,cs),
(1114,652,o),
(906,804,o),
(598,798,c),
(598,696,l),
(878,696,o),
(1074,848,o),
(1074,1078,cs),
(1074,1298,o),
(894,1490,o),
(594,1490,cs),
(304,1490,o),
(94,1312,o),
(98,1064,c),
(438,1064,l),
(438,1140,o),
(500,1190,o),
(586,1190,cs),
(672,1190,o),
(726,1136,o),
(724,1044,cs),
(722,946,o),
(662,880,o),
(548,880,cs),
(450,880,l),
(446,610,l),
(540,610,ls),
(696,610,o),
(758,538,o),
(758,446,cs),
(758,352,o),
(692,286,o),
(594,284,cs),
(512,282,o),
(410,328,o),
(410,422,c),
(50,422,l),
(54,160,o),
(280,-16,o),
(582,-16,cs)
);
}
);
width = 1204;
},
{
layerId = "FD1CEFBD-BAB1-4C2A-A598-30E93F9A29F6";
shapes = (
{
closed = 1;
nodes = (
(840,-16,o),
(1048,172,o),
(1048,412,cs),
(1048,642,o),
(856,804,o),
(614,794,c),
(614,754,l),
(812,746,o),
(988,898,o),
(988,1118,cs),
(988,1340,o),
(804,1490,o),
(564,1490,cs),
(308,1490,o),
(144,1320,o),
(144,1102,c),
(324,1102,l),
(324,1236,o),
(418,1326,o),
(568,1326,cs),
(710,1326,o),
(806,1244,o),
(806,1106,cs),
(806,964,o),
(696,848,o),
(528,848,cs),
(458,848,l),
(458,692,l),
(520,692,ls),
(744,692,o),
(868,576,o),
(868,422,cs),
(868,266,o),
(738,148,o),
(566,148,cs),
(398,148,o),
(270,258,o),
(270,418,c),
(90,414,l),
(90,156,o),
(308,-16,o),
(568,-16,cs)
);
}
);
width = 1162;
}
);
metricRight = eight;
unicode = 51;
},
{
color = 6;
glyphname = four;
kernLeft = NUM_FOUR;
kernRight = NUM_FOUR;
lastChange = "2023-11-23 10:10:50 +0000";
layers = (
{
layerId = "AB099EFE-E788-4EFC-8633-CF147CB782A6";
shapes = (
{
closed = 1;
nodes = (
(888,0,l),
(888,1474,l),
(840,1474,l),
(90,386,l),
(90,352,l),
(1096,352,l),
(1096,412,l),
(182,412,l),
(182,416,l),
(702,1170,l),
(816,1340,l),
(824,1340,l),
(824,1100,l),
(824,0,l)
);
}
);
width = 1194;
},
{
layerId = "2D8F7115-C311-411E-929D-56333CF7FFB2";
shapes = (
{
closed = 1;
nodes = (
(1064,0,l),
(1064,1474,l),
(730,1474,l),
(32,488,l),
(32,282,l),
(1220,282,l),
(1220,578,l),
(402,578,l),
(402,582,l),
(574,832,l),
(716,1052,l),
(724,1052,l),
(716,790,l),
(716,0,l)
);
}
);
width = 1294;
},
{
layerId = "FD1CEFBD-BAB1-4C2A-A598-30E93F9A29F6";
shapes = (
{
closed = 1;
nodes = (
(950,0,l),
(950,1474,l),
(794,1474,l),
(66,426,l),
(66,324,l),
(1134,324,l),
(1134,480,l),
(308,480,l),
(308,488,l),
(656,992,l),
(774,1184,l),
(782,1184,l),
(770,918,l),
(770,0,l)
);
}
);
width = 1216;
}
);
unicode = 52;
},
{
color = 6;
glyphname = five;
kernLeft = NUM_FIVE;
kernRight = NUM_FIVE;
lastChange = "2023-11-23 10:10:50 +0000";
layers = (
{
layerId = "AB099EFE-E788-4EFC-8633-CF147CB782A6";
shapes = (
{
closed = 1;
nodes = (
(830,-16,o),
(1034,180,o),
(1034,454,cs),
(1034,726,o),
(830,922,o),
(586,922,cs),
(444,922,o),
(310,856,o),
(264,786,c),
(286,770,l),
(286,1414,l),
(938,1414,l),
(938,1474,l),
(222,1474,l),
(222,730,l),
(272,722,l),
(310,780,o),
(422,862,o),
(578,862,cs),
(808,862,o),
(970,680,o),
(970,450,cs),
(970,218,o),
(800,44,o),
(586,44,cs),
(410,44,o),
(246,158,o),
(190,308,c),
(132,282,l),
(206,98,o),
(388,-16,o),
(578,-16,cs)
);
}
);
width = 1166;
},
{
layerId = "2D8F7115-C311-411E-929D-56333CF7FFB2";
shapes = (
{
closed = 1;
nodes = (
(902,-16,o),
(1130,174,o),
(1130,470,cs),
(1130,754,o),
(918,942,o),
(664,942,cs),
(566,942,o),
(468,914,o),
(418,868,c),
(484,758,l),
(484,1154,l),
(1004,1154,l),
(1004,1474,l),
(152,1474,l),
(152,634,l),
(442,594,l),
(464,624,o),
(528,664,o),
(602,664,cs),
(700,664,o),
(794,594,o),
(794,484,cs),
(794,378,o),
(714,300,o),
(610,300,cs),
(528,300,o),
(456,348,o),
(426,414,c),
(90,274,l),
(160,106,o),
(360,-16,o),
(602,-16,cs)
);
}
);
width = 1196;
},
{
layerId = "FD1CEFBD-BAB1-4C2A-A598-30E93F9A29F6";
shapes = (
{
closed = 1;
nodes = (
(860,-16,o),
(1078,176,o),
(1078,458,cs),
(1078,742,o),
(856,934,o),
(610,934,cs),
(484,934,o),
(374,882,o),
(336,836,c),
(384,766,l),
(384,1310,l),
(970,1310,l),
(970,1474,l),
(204,1474,l),
(204,684,l),
(336,660,l),
(374,726,o),
(484,770,o),
(594,770,cs),
(782,770,o),
(898,640,o),
(898,462,cs),
(898,280,o),
(774,148,o),
(594,148,cs),
(446,148,o),
(336,238,o),
(286,356,c),
(122,282,l),
(198,102,o),
(386,-16,o),
(594,-16,cs)
);
}
);
width = 1192;
}
);
unicode = 53;
},
{
color = 6;
glyphname = six;
kernLeft = NUM_SIX;
kernRight = NUM_SIX;
lastChange = "2023-11-23 10:10:50 +0000";
layers = (
{
layerId = "AB099EFE-E788-4EFC-8633-CF147CB782A6";
shapes = (
{
closed = 1;
nodes = (
(856,-16,o),
(1054,186,o),
(1054,454,cs),
(1054,722,o),
(858,918,o),
(602,918,cs),
(522,918,o),
(412,898,o),
(330,828,c),
(362,848,l),
(842,1474,l),
(768,1474,l),
(266,814,ls),
(194,720,o),
(126,594,o),
(126,446,cs),
(126,196,o),
(320,-16,o),
(592,-16,cs)
);
},
{
closed = 1;
nodes = (
(364,44,o),
(190,222,o),
(190,454,cs),
(190,688,o),
(364,858,o),
(596,858,cs),
(830,858,o),
(994,686,o),
(994,456,cs),
(994,222,o),
(822,44,o),
(594,44,cs)
);
}
);
width = 1182;
},
{
layerId = "2D8F7115-C311-411E-929D-56333CF7FFB2";
shapes = (
{
closed = 1;
nodes = (
(912,-16,o),
(1136,180,o),
(1136,466,cs),
(1136,750,o),
(916,938,o),
(674,938,cs),
(604,938,o),
(568,922,o),
(554,906,c),
(588,884,l),
(976,1474,l),
(580,1474,l),
(194,884,ls),
(150,816,o),
(60,644,o),
(60,480,cs),
(60,214,o),
(290,-16,o),
(612,-16,cs)
);
},
{
closed = 1;
nodes = (
(484,290,o),
(400,368,o),
(400,476,cs),
(400,582,o),
(484,660,o),
(600,660,cs),
(713,660,o),
(796,582,o),
(796,476,cs),
(796,368,o),
(713,290,o),
(600,290,cs)
);
}
);
width = 1196;
},
{
layerId = "FD1CEFBD-BAB1-4C2A-A598-30E93F9A29F6";
shapes = (
{
closed = 1;
nodes = (
(878,-16,o),
(1088,188,o),
(1088,462,cs),
(1088,738,o),
(878,934,o),
(624,934,cs),
(544,934,o),
(466,914,o),
(412,864,c),
(456,856,l),
(898,1474,l),
(686,1474,l),
(244,840,ls),
(178,746,o),
(104,606,o),
(104,450,cs),
(104,194,o),
(310,-16,o),
(596,-16,cs)
);
},
{
closed = 1;
nodes = (
(415,148,o),
(284,279,o),
(284,460,cs),
(284,639,o),
(415,770,o),
(596,770,cs),
(777,770,o),
(908,639,o),
(908,460,cs),
(908,279,o),
(777,148,o),
(596,148,cs)
);
}
);
width = 1192;
}
);
unicode = 54;
},
{
color = 6;
glyphname = seven;
kernLeft = NUM_SEVEN;
kernRight = NUM_SEVEN;
lastChange = "2023-11-23 10:10:50 +0000";
layers = (
{
layerId = "AB099EFE-E788-4EFC-8633-CF147CB782A6";
shapes = (
{
closed = 1;
nodes = (
(404,0,l),
(998,1434,l),
(998,1474,l),
(82,1474,l),
(82,1414,l),
(920,1414,l),
(920,1406,l),
(338,0,l)
);
}
);
width = 1072;
},
{
layerId = "2D8F7115-C311-411E-929D-56333CF7FFB2";
shapes = (
{
closed = 1;
nodes = (
(508,0,l),
(1094,1418,l),
(1094,1474,l),
(32,1474,l),
(32,1154,l),
(626,1154,l),
(626,1144,l),
(132,0,l)
);
}
);
width = 1110;
},
{
layerId = "FD1CEFBD-BAB1-4C2A-A598-30E93F9A29F6";
shapes = (
{
closed = 1;
nodes = (
(438,0,l),
(1032,1430,l),
(1032,1474,l),
(58,1474,l),
(58,1310,l),
(794,1310,l),
(794,1302,l),
(246,0,l)
);
}
);
width = 1078;
}
);
unicode = 55;
},
{
color = 6;
glyphname = eight;
kernLeft = NUM_EIGHT;
kernRight = NUM_EIGHT;
lastChange = "2023-11-23 10:10:50 +0000";
layers = (
{
layerId = "AB099EFE-E788-4EFC-8633-CF147CB782A6";
shapes = (
{
closed = 1;
nodes = (
(884,-16,o),
(1090,168,o),
(1090,410,cs),
(1090,652,o),
(880,832,o),
(610,832,cs),
(340,832,o),
(132,652,o),
(132,410,cs),
(132,168,o),
(336,-16,o),
(610,-16,cs)
);
},
{
closed = 1;
nodes = (
(372,44,o),
(194,206,o),
(194,410,cs),
(194,614,o),
(372,772,o),
(610,772,cs),
(848,772,o),
(1026,614,o),
(1026,410,cs),
(1026,206,o),
(848,44,o),
(610,44,cs)
);
},
{
closed = 1;
nodes = (
(830,772,o),
(990,926,o),
(990,1130,cs),
(990,1336,o),
(834,1490,o),
(610,1490,cs),
(386,1490,o),
(230,1336,o),
(230,1130,cs),
(230,928,o),
(390,772,o),
(610,772,cs)
);
},
{
closed = 1;
nodes = (
(426,832,o),
(292,968,o),
(292,1130,cs),
(292,1306,o),
(434,1436,o),
(610,1436,cs),
(786,1436,o),
(926,1304,o),
(926,1130,cs),
(926,968,o),
(796,832,o),
(610,832,cs)
);
}
);
width = 1220;
},
{
layerId = "2D8F7115-C311-411E-929D-56333CF7FFB2";
shapes = (
{
closed = 1;
nodes = (
(957,-16,o),
(1198,173,o),
(1198,418,cs),
(1198,663,o),
(957,852,o),
(644,852,cs),
(331,852,o),
(90,663,o),
(90,418,cs),
(90,173,o),
(331,-16,o),
(644,-16,cs)
);
},
{
closed = 1;
nodes = (
(530,272,o),
(442,344,o),
(442,438,cs),
(442,535,o),
(531,610,o),
(646,610,cs),
(759,610,o),
(846,535,o),
(846,438,cs),
(846,344,o),
(758,272,o),
(644,272,cs)
);
},
{
closed = 1;
nodes = (
(918,638,o),
(1128,830,o),
(1128,1078,cs),
(1128,1310,o),
(917,1490,o),
(644,1490,cs),
(371,1490,o),
(160,1310,o),
(160,1078,cs),
(160,830,o),
(372,638,o),
(646,638,cs)
);
},
{
closed = 1;
nodes = (
(545,880,o),
(468,953,o),
(468,1048,cs),
(468,1139,o),
(544,1210,o),
(642,1210,cs),
(742,1210,o),
(820,1139,o),
(820,1048,cs),
(820,953,o),
(743,880,o),
(644,880,cs)
);
}
);
width = 1288;
},
{
layerId = "FD1CEFBD-BAB1-4C2A-A598-30E93F9A29F6";
shapes = (
{
closed = 1;
nodes = (
(890,-16,o),
(1106,171,o),
(1106,414,cs),
(1106,654,o),
(890,840,o),
(610,840,cs),
(330,840,o),
(114,654,o),
(114,414,cs),
(114,171,o),
(330,-16,o),
(610,-16,cs)
);
},
{
closed = 1;
nodes = (
(432,148,o),
(294,265,o),
(294,416,cs),
(294,574,o),
(433,696,o),
(612,696,cs),
(789,696,o),
(926,575,o),
(926,418,cs),
(926,266,o),
(788,148,o),
(610,148,cs)
);
},
{
closed = 1;
nodes = (
(845,724,o),
(1028,891,o),
(1028,1108,cs),
(1028,1324,o),
(846,1490,o),
(610,1490,cs),
(374,1490,o),
(192,1324,o),
(192,1110,cs),
(192,892,o),
(373,724,o),
(608,724,cs)
);
},
{
closed = 1;
nodes = (
(472,860,o),
(364,965,o),
(364,1102,cs),
(364,1228,o),
(471,1326,o),
(610,1326,cs),
(749,1326,o),
(856,1228,o),
(856,1102,cs),
(856,965,o),
(750,860,o),
(612,860,cs)
);
}
);
width = 1220;
}
);
unicode = 56;
},
{
color = 6;
glyphname = zero.osf;
kernLeft = NUM_ZERO_OSF;
kernRight = NUM_ZERO_OSF;
lastChange = "2023-11-23 10:10:50 +0000";
layers = (
{
anchors = (
{
name = center;
pos = (528,528);
}
);
layerId = "AB099EFE-E788-4EFC-8633-CF147CB782A6";
shapes = (
{
closed = 1;
nodes = (
(776,-12,o),
(946,176,o),
(946,466,cs),
(946,582,ls),
(946,878,o),
(776,1064,o),
(530,1064,cs),
(284,1064,o),
(116,876,o),
(116,582,cs),
(116,466,ls),
(116,176,o),
(284,-12,o),
(530,-12,cs)
);
},
{
closed = 1;
nodes = (
(322,44,o),
(180,216,o),
(180,462,cs),
(180,586,ls),
(180,838,o),
(314,1008,o),
(530,1008,cs),
(750,1008,o),
(882,840,o),
(882,586,cs),
(882,462,ls),
(882,214,o),
(738,44,o),
(530,44,cs)
);
}
);
userData = {
RMXScaler = {
adjustSpace = 2;
height = 71.5;
weight = 13;
width = 80;
};
};
width = 1060;
},
{
anchors = (
{
name = center;
pos = (540,540);
}
);
layerId = "2D8F7115-C311-411E-929D-56333CF7FFB2";
shapes = (
{
closed = 1;
nodes = (
(808,-12,o),
(1008,164,o),
(1008,476,cs),
(1008,596,ls),
(1008,908,o),
(812,1096,o),
(540,1096,cs),
(280,1096,o),
(74,912,o),
(74,596,cs),
(74,476,ls),
(74,164,o),
(280,-12,o),
(540,-12,cs)
);
},
{
closed = 1;
nodes = (
(446,264,o),
(390,324,o),
(390,422,cs),
(390,662,ls),
(390,760,o),
(446,820,o),
(540,820,cs),
(636,820,o),
(692,760,o),
(692,662,cs),
(692,422,ls),
(692,324,o),
(636,264,o),
(540,264,cs)
);
}
);
userData = {
RMXScaler = {
adjustSpace = 1;
height = 73.5;
weight = -100;
width = 80;
};
};
width = 1082;
},
{
anchors = (
{
name = center;
pos = (516,536);
}
);
layerId = "FD1CEFBD-BAB1-4C2A-A598-30E93F9A29F6";
shapes = (
{
closed = 1;
nodes = (
(770,-12,o),
(946,172,o),
(946,472,cs),
(946,584,ls),
(946,888,o),
(770,1076,o),
(516,1076,cs),
(266,1076,o),
(86,888,o),
(86,584,cs),
(86,472,ls),
(86,172,o),
(266,-12,o),
(516,-12,cs)
);
},
{
closed = 1;
nodes = (
(360,136,o),
(254,250,o),
(254,446,cs),
(254,612,ls),
(254,810,o),
(356,924,o),
(520,924,cs),
(684,924,o),
(778,810,o),
(778,612,cs),
(778,446,ls),
(778,254,o),
(680,136,o),
(516,136,cs)
);
}
);
width = 1032;
}
);
userData = {
RMXScaler = {
source = zero;
};
};
},
{
color = 6;
glyphname = zero.ss04;
kernLeft = NUM_ZERO;
kernRight = NUM_ZERO;
lastChange = "2023-11-23 10:10:50 +0000";
layers = (
{
anchors = (
{
name = center;
pos = (888,724);
}
);
layerId = "AB099EFE-E788-4EFC-8633-CF147CB782A6";
shapes = (
{
closed = 1;
nodes = (
(1318,-16,o),
(1638,308,o),
(1638,738,cs),
(1638,1168,o),
(1318,1490,o),
(884,1490,cs),
(456,1490,o),
(132,1168,o),
(132,738,cs),
(132,308,o),
(456,-16,o),
(884,-16,cs)
);
},
{
closed = 1;
nodes = (
(494,38,o),
(194,340,o),
(194,738,cs),
(194,1136,o),
(494,1432,o),
(884,1432,cs),
(1280,1432,o),
(1574,1136,o),
(1574,738,cs),
(1574,338,o),
(1278,38,o),
(884,38,cs)
);
}
);
width = 1770;
},
{
anchors = (
{
name = center;
pos = (820,738);
}
);
layerId = "2D8F7115-C311-411E-929D-56333CF7FFB2";
shapes = (
{
closed = 1;
nodes = (
(1256,-16,o),
(1582,306,o),
(1582,734,cs),
(1582,1166,o),
(1258,1490,o),
(828,1490,cs),
(388,1490,o),
(58,1168,o),
(58,738,cs),
(58,308,o),
(390,-16,o),
(824,-16,cs)
);
},
{
closed = 1;
nodes = (
(590,304,o),
(418,492,o),
(418,742,cs),
(418,988,o),
(590,1172,o),
(820,1172,cs),
(1050,1172,o),
(1220,988,o),
(1220,742,cs),
(1220,492,o),
(1050,304,o),
(820,304,cs)
);
}
);
width = 1638;
},
{
anchors = (
{
name = center;
pos = (860,730);
}
);
layerId = "FD1CEFBD-BAB1-4C2A-A598-30E93F9A29F6";
shapes = (
{
closed = 1;
nodes = (
(1290,-16,o),
(1614,308,o),
(1614,738,cs),
(1614,1168,o),
(1290,1490,o),
(856,1490,cs),
(426,1490,o),
(98,1168,o),
(98,738,cs),
(98,308,o),
(430,-16,o),
(860,-16,cs)
);
},
{
closed = 1;
nodes = (
(528,148,o),
(278,406,o),
(278,738,cs),
(278,1078,o),
(528,1326,o),
(856,1326,cs),
(1188,1326,o),
(1434,1078,o),
(1434,738,cs),
(1434,406,o),
(1188,148,o),
(856,148,cs)
);
}
);
width = 1712;
}
);
},
{
color = 6;
glyphname = zero.tf;
lastChange = "2023-11-23 10:10:50 +0000";
layers = (
{
anchors = (
{
name = center;
pos = (630,724);
}
);
layerId = "AB099EFE-E788-4EFC-8633-CF147CB782A6";
shapes = (
{
closed = 1;
nodes = (
(932,-16,o),
(1138,266,o),
(1138,656,cs),
(1138,816,ls),
(1138,1212,o),
(932,1490,o),
(618,1490,cs),
(308,1490,o),
(112,1212,o),
(112,812,cs),
(112,656,ls),
(112,266,o),
(308,-16,o),
(618,-16,cs)
);
},
{
closed = 1;
nodes = (
(358,38,o),
(178,302,o),
(178,656,cs),
(178,816,ls),
(178,1178,o),
(358,1432,o),
(618,1432,cs),
(894,1432,o),
(1072,1180,o),
(1072,812,cs),
(1072,656,ls),
(1072,300,o),
(894,38,o),
(618,38,cs)
);
}
);
userData = {
RMXScaler = {
adjustSpace = 20;
};
};
width = 1246;
},
{
anchors = (
{
name = center;
pos = (622,738);
}
);
layerId = "2D8F7115-C311-411E-929D-56333CF7FFB2";
shapes = (
{
closed = 1;
nodes = (
(950,-16,o),
(1188,226,o),
(1188,648,cs),
(1188,824,ls),
(1188,1250,o),
(950,1500,o),
(622,1500,cs),
(300,1500,o),
(58,1250,o),
(58,824,cs),
(58,648,ls),
(58,226,o),
(300,-16,o),
(622,-16,cs)
);
},
{
closed = 1;
nodes = (
(504,300,o),
(422,394,o),
(422,590,cs),
(422,892,ls),
(422,1094,o),
(504,1184,o),
(622,1184,cs),
(754,1184,o),
(824,1094,o),
(824,892,cs),
(824,590,ls),
(824,394,o),
(754,300,o),
(622,300,cs)
);
}
);
width = 1246;
},
{
anchors = (
{
name = center;
pos = (626,730);
}
);
layerId = "FD1CEFBD-BAB1-4C2A-A598-30E93F9A29F6";
shapes = (
{
closed = 1;
nodes = (
(942,-16,o),
(1156,250,o),
(1156,660,cs),
(1156,812,ls),
(1156,1230,o),
(942,1490,o),
(622,1490,cs),
(304,1490,o),
(90,1230,o),
(90,806,cs),
(90,660,ls),
(90,250,o),
(304,-16,o),
(622,-16,cs)
);
},
{
closed = 1;
nodes = (
(406,148,o),
(270,344,o),
(270,638,cs),
(270,836,ls),
(270,1144,o),
(410,1328,o),
(622,1328,cs),
(844,1328,o),
(974,1144,o),
(974,832,cs),
(974,638,ls),
(974,332,o),
(840,148,o),
(622,148,cs)
);
}
);
userData = {
RMXScaler = {
adjustSpace = 20;
};
};
width = 1246;
}
);
userData = {
RMXScaler = {
source = zero;
};
};
},
